M48
; DRILL file {KiCad (6.0.0)} date Wed Jan 19 10:57:21 2022
; FORMAT={-:-/ absolute / metric / decimal}
; #@! TF.CreationDate,2022-01-19T10:57:21+01:00
; #@! TF.GenerationSoftware,Kicad,Pcbnew,(6.0.0)
; #@! TF.FileFunction,Plated,1,2,PTH
FMAT,2
METRIC
; #@! TA.AperFunction,Plated,PTH,ViaDrill
T1C0.300
; #@! TA.AperFunction,Plated,PTH,ViaDrill
T2C0.400
; #@! TA.AperFunction,Plated,PTH,ComponentDrill
T3C1.000
%
G90
G05
T1
X101.092Y-67.564
X101.092Y-70.612
X107.442Y-57.15
X110.236Y-67.564
X110.236Y-74.422
X113.538Y-78.994
X116.332Y-84.582
X118.872Y-59.182
X119.38Y-64.008
X120.65Y-62.992
T2
X103.164Y-80.865
X105.268Y-80.51
X106.215Y-67.61
X107.188Y-83.314
X108.063Y-81.158
X114.867Y-77.777
X115.618Y-79.502
X117.138Y-83.058
X118.918Y-62.605
X119.069Y-85.617
T3
X96.012Y-57.912
X96.012Y-60.452
X96.012Y-65.415
X96.012Y-67.955
X96.012Y-70.495
X96.012Y-73.035
X96.012Y-77.978
X96.012Y-80.518
X99.299Y-52.832
X101.839Y-52.832
X102.108Y-87.112
X102.108Y-89.652
X104.379Y-52.832
X104.648Y-87.112
X104.648Y-89.652
X106.919Y-52.832
X107.188Y-87.112
X107.188Y-89.652
X109.459Y-52.832
X109.728Y-87.112
X109.728Y-89.652
X111.999Y-52.832
X112.268Y-87.112
X112.268Y-89.652
X114.539Y-52.832
X114.808Y-87.112
X114.808Y-89.652
X117.079Y-52.832
X117.348Y-87.112
X117.348Y-89.652
X119.619Y-52.832
X119.888Y-87.112
X119.888Y-89.652
T0
M30
