%TF.GenerationSoftware,KiCad,Pcbnew,(6.0.0)*%
%TF.CreationDate,2022-01-19T10:56:35+01:00*%
%TF.ProjectId,CH423_ev_routed,43483432-335f-4657-965f-726f75746564,rev?*%
%TF.SameCoordinates,Original*%
%TF.FileFunction,Copper,L1,Top*%
%TF.FilePolarity,Positive*%
%FSLAX46Y46*%
G04 Gerber Fmt 4.6, Leading zero omitted, Abs format (unit mm)*
G04 Created by KiCad (PCBNEW (6.0.0)) date 2022-01-19 10:56:35*
%MOMM*%
%LPD*%
G01*
G04 APERTURE LIST*
G04 Aperture macros list*
%AMRoundRect*
0 Rectangle with rounded corners*
0 $1 Rounding radius*
0 $2 $3 $4 $5 $6 $7 $8 $9 X,Y pos of 4 corners*
0 Add a 4 corners polygon primitive as box body*
4,1,4,$2,$3,$4,$5,$6,$7,$8,$9,$2,$3,0*
0 Add four circle primitives for the rounded corners*
1,1,$1+$1,$2,$3*
1,1,$1+$1,$4,$5*
1,1,$1+$1,$6,$7*
1,1,$1+$1,$8,$9*
0 Add four rect primitives between the rounded corners*
20,1,$1+$1,$2,$3,$4,$5,0*
20,1,$1+$1,$4,$5,$6,$7,0*
20,1,$1+$1,$6,$7,$8,$9,0*
20,1,$1+$1,$8,$9,$2,$3,0*%
G04 Aperture macros list end*
%TA.AperFunction,SMDPad,CuDef*%
%ADD10RoundRect,0.135000X0.135000X0.185000X-0.135000X0.185000X-0.135000X-0.185000X0.135000X-0.185000X0*%
%TD*%
%TA.AperFunction,ComponentPad*%
%ADD11R,1.700000X1.700000*%
%TD*%
%TA.AperFunction,ComponentPad*%
%ADD12O,1.700000X1.700000*%
%TD*%
%TA.AperFunction,SMDPad,CuDef*%
%ADD13RoundRect,0.140000X-0.140000X-0.170000X0.140000X-0.170000X0.140000X0.170000X-0.140000X0.170000X0*%
%TD*%
%TA.AperFunction,SMDPad,CuDef*%
%ADD14RoundRect,0.218750X0.256250X-0.218750X0.256250X0.218750X-0.256250X0.218750X-0.256250X-0.218750X0*%
%TD*%
%TA.AperFunction,ComponentPad*%
%ADD15RoundRect,0.250000X0.600000X-0.600000X0.600000X0.600000X-0.600000X0.600000X-0.600000X-0.600000X0*%
%TD*%
%TA.AperFunction,ComponentPad*%
%ADD16C,1.700000*%
%TD*%
%TA.AperFunction,SMDPad,CuDef*%
%ADD17RoundRect,0.150000X-0.875000X-0.150000X0.875000X-0.150000X0.875000X0.150000X-0.875000X0.150000X0*%
%TD*%
%TA.AperFunction,SMDPad,CuDef*%
%ADD18RoundRect,0.135000X-0.135000X-0.185000X0.135000X-0.185000X0.135000X0.185000X-0.135000X0.185000X0*%
%TD*%
%TA.AperFunction,ViaPad*%
%ADD19C,0.800000*%
%TD*%
%TA.AperFunction,ViaPad*%
%ADD20C,0.600000*%
%TD*%
%TA.AperFunction,Conductor*%
%ADD21C,0.300000*%
%TD*%
%TA.AperFunction,Conductor*%
%ADD22C,0.550000*%
%TD*%
G04 APERTURE END LIST*
D10*
X118110000Y-61214000D03*
X117090000Y-61214000D03*
D11*
X96012000Y-65415000D03*
D12*
X96012000Y-67955000D03*
X96012000Y-70495000D03*
X96012000Y-73035000D03*
D13*
X117094000Y-64008000D03*
X118054000Y-64008000D03*
D11*
X96012000Y-80518000D03*
D12*
X96012000Y-77978000D03*
D11*
X96012000Y-60452000D03*
D12*
X96012000Y-57912000D03*
D14*
X120650000Y-62992000D03*
X120650000Y-61417000D03*
D15*
X102108000Y-89652500D03*
D16*
X102108000Y-87112500D03*
X104648000Y-89652500D03*
X104648000Y-87112500D03*
X107188000Y-89652500D03*
X107188000Y-87112500D03*
X109728000Y-89652500D03*
X109728000Y-87112500D03*
X112268000Y-89652500D03*
X112268000Y-87112500D03*
X114808000Y-89652500D03*
X114808000Y-87112500D03*
X117348000Y-89652500D03*
X117348000Y-87112500D03*
X119888000Y-89652500D03*
X119888000Y-87112500D03*
D10*
X93476000Y-68062000D03*
X92456000Y-68062000D03*
D11*
X119619000Y-52832000D03*
D12*
X117079000Y-52832000D03*
X114539000Y-52832000D03*
X111999000Y-52832000D03*
X109459000Y-52832000D03*
X106919000Y-52832000D03*
X104379000Y-52832000D03*
X101839000Y-52832000D03*
X99299000Y-52832000D03*
D10*
X93474000Y-70602000D03*
X92454000Y-70602000D03*
D17*
X104570000Y-60325000D03*
X104570000Y-61595000D03*
X104570000Y-62865000D03*
X104570000Y-64135000D03*
X104570000Y-65405000D03*
X104570000Y-66675000D03*
X104570000Y-67945000D03*
X104570000Y-69215000D03*
X104570000Y-70485000D03*
X104570000Y-71755000D03*
X104570000Y-73025000D03*
X104570000Y-74295000D03*
X104570000Y-75565000D03*
X104570000Y-76835000D03*
X113870000Y-76835000D03*
X113870000Y-75565000D03*
X113870000Y-74295000D03*
X113870000Y-73025000D03*
X113870000Y-71755000D03*
X113870000Y-70485000D03*
X113870000Y-69215000D03*
X113870000Y-67945000D03*
X113870000Y-66675000D03*
X113870000Y-65405000D03*
X113870000Y-64135000D03*
X113870000Y-62865000D03*
X113870000Y-61595000D03*
X113870000Y-60325000D03*
D18*
X117090000Y-68072000D03*
X118110000Y-68072000D03*
D13*
X117038000Y-62734000D03*
X117998000Y-62734000D03*
D19*
X108062800Y-81157700D03*
X106215300Y-67610300D03*
X107187500Y-83314000D03*
X105268200Y-80510400D03*
D20*
X116332000Y-84582000D03*
X110236000Y-67564000D03*
X120650000Y-62992000D03*
X101092000Y-70612000D03*
D19*
X118917700Y-62604600D03*
D20*
X118872000Y-59182000D03*
X110236000Y-74422000D03*
X119380000Y-64008000D03*
X101092000Y-67564000D03*
X107442000Y-57150000D03*
X113538000Y-78994000D03*
D19*
X103164500Y-80865000D03*
X114866600Y-77776800D03*
X115617700Y-79502000D03*
X117137900Y-83058000D03*
X119069100Y-85617200D03*
D21*
X93476000Y-68062000D02*
X94704700Y-68062000D01*
X99705000Y-67955000D02*
X96012000Y-67955000D01*
X96012000Y-67955000D02*
X94811700Y-67955000D01*
X102235000Y-70485000D02*
X99705000Y-67955000D01*
X104570000Y-70485000D02*
X102235000Y-70485000D01*
X94704700Y-68062000D02*
X94811700Y-67955000D01*
D22*
X117038000Y-62734000D02*
X117038000Y-63952000D01*
X117038000Y-61266000D02*
X117038000Y-62734000D01*
X117090000Y-61214000D02*
X117038000Y-61266000D01*
X106214500Y-59541000D02*
X98248300Y-59541000D01*
X116855000Y-64135000D02*
X113870000Y-64135000D01*
X113870000Y-64135000D02*
X110808500Y-64135000D01*
X92454000Y-68064000D02*
X92456000Y-68062000D01*
X92456000Y-66548000D02*
X92456000Y-68062000D01*
X117038000Y-63952000D02*
X117094000Y-64008000D01*
X92454000Y-70602000D02*
X92454000Y-68064000D01*
X96012000Y-60452000D02*
X97337300Y-60452000D01*
X110808500Y-64135000D02*
X106214500Y-59541000D01*
X96012000Y-65415000D02*
X93589000Y-65415000D01*
X93589000Y-65415000D02*
X92456000Y-66548000D01*
X117038000Y-63952000D02*
X116855000Y-64135000D01*
X98248300Y-59541000D02*
X97337300Y-60452000D01*
D21*
X104570000Y-71755000D02*
X98472300Y-71755000D01*
X93474000Y-70602000D02*
X94704700Y-70602000D01*
X94704700Y-70602000D02*
X94811700Y-70495000D01*
X96012000Y-70495000D02*
X94811700Y-70495000D01*
X98472300Y-71755000D02*
X97212300Y-70495000D01*
X96012000Y-70495000D02*
X97212300Y-70495000D01*
X118313000Y-61417000D02*
X118110000Y-61214000D01*
X120650000Y-61417000D02*
X118313000Y-61417000D01*
D22*
X104570000Y-64135000D02*
X104524600Y-64089600D01*
X99558500Y-89652500D02*
X102108000Y-89652500D01*
X91683700Y-81777700D02*
X99558500Y-89652500D01*
X93644400Y-64089600D02*
X91683700Y-66050300D01*
X104524600Y-64089600D02*
X93644400Y-64089600D01*
X91683700Y-66050300D02*
X91683700Y-81777700D01*
X108062800Y-81157700D02*
X108062800Y-68195900D01*
X108062800Y-68195900D02*
X105271900Y-65405000D01*
X105271900Y-65405000D02*
X104570000Y-65405000D01*
X105280000Y-66675000D02*
X106215300Y-67610300D01*
X104570000Y-66675000D02*
X105280000Y-66675000D01*
X105210600Y-67945000D02*
X104570000Y-67945000D01*
X107187500Y-69921900D02*
X105210600Y-67945000D01*
X107187500Y-83314000D02*
X107187500Y-69921900D01*
X106107400Y-79671200D02*
X105268200Y-80510400D01*
X106107400Y-70102200D02*
X106107400Y-79671200D01*
X104570000Y-69215000D02*
X105220200Y-69215000D01*
X105220200Y-69215000D02*
X106107400Y-70102200D01*
X118054000Y-62790000D02*
X118917700Y-62790000D01*
X120448000Y-62790000D02*
X120650000Y-62992000D01*
X97347300Y-73025000D02*
X97337300Y-73035000D01*
X104570000Y-73025000D02*
X97347300Y-73025000D01*
X96012000Y-73035000D02*
X97337300Y-73035000D01*
X118917700Y-62790000D02*
X120448000Y-62790000D01*
X118917700Y-62790000D02*
X118917700Y-62604600D01*
X117998000Y-62734000D02*
X118054000Y-62790000D01*
X118054000Y-62790000D02*
X118054000Y-64008000D01*
X104570000Y-74295000D02*
X103913300Y-74295000D01*
X103913300Y-74295000D02*
X102283900Y-75924400D01*
X102283900Y-75924400D02*
X102283900Y-82208400D01*
X102283900Y-82208400D02*
X107188000Y-87112500D01*
X103069100Y-76411000D02*
X103069100Y-80769600D01*
X103069100Y-80769600D02*
X103164500Y-80865000D01*
X104570000Y-75565000D02*
X103915100Y-75565000D01*
X103915100Y-75565000D02*
X103069100Y-76411000D01*
X104366500Y-77038500D02*
X104366500Y-81751000D01*
X104570000Y-76835000D02*
X104366500Y-77038500D01*
X104366500Y-81751000D02*
X109728000Y-87112500D01*
X113924800Y-76835000D02*
X114866600Y-77776800D01*
X113870000Y-76835000D02*
X113924800Y-76835000D01*
X113870000Y-75565000D02*
X112598200Y-75565000D01*
X112268000Y-75895200D02*
X112268000Y-87112500D01*
X112598200Y-75565000D02*
X112268000Y-75895200D01*
X115617700Y-79502000D02*
X115741900Y-79377800D01*
X115741900Y-74695500D02*
X115341400Y-74295000D01*
X115341400Y-74295000D02*
X113870000Y-74295000D01*
X115741900Y-79377800D02*
X115741900Y-74695500D01*
X116492200Y-81881800D02*
X116492200Y-74125000D01*
X114808000Y-83566000D02*
X116492200Y-81881800D01*
X114808000Y-87112500D02*
X114808000Y-83566000D01*
X115392200Y-73025000D02*
X113870000Y-73025000D01*
X116492200Y-74125000D02*
X115392200Y-73025000D01*
X117137900Y-83058000D02*
X117242500Y-82953400D01*
X115697000Y-71755000D02*
X113870000Y-71755000D01*
X117242500Y-82953400D02*
X117242500Y-73300500D01*
X117242500Y-73300500D02*
X115697000Y-71755000D01*
X118012400Y-72648000D02*
X118012400Y-86448100D01*
X118012400Y-86448100D02*
X117348000Y-87112500D01*
X115849400Y-70485000D02*
X118012400Y-72648000D01*
X113870000Y-70485000D02*
X115849400Y-70485000D01*
X115951000Y-69215000D02*
X119069100Y-72333100D01*
X113870000Y-69215000D02*
X115951000Y-69215000D01*
X119069100Y-72333100D02*
X119069100Y-85617200D01*
X117090000Y-68806000D02*
X117090000Y-68072000D01*
X119888000Y-87112500D02*
X119945200Y-87055300D01*
X119945200Y-71661200D02*
X117090000Y-68806000D01*
X116963000Y-67945000D02*
X117090000Y-68072000D01*
X113870000Y-67945000D02*
X116963000Y-67945000D01*
X119945200Y-87055300D02*
X119945200Y-71661200D01*
D21*
X122025000Y-58169400D02*
X119619000Y-55763400D01*
X118958900Y-66675000D02*
X122025000Y-63608900D01*
X122025000Y-63608900D02*
X122025000Y-58169400D01*
X119619000Y-55763400D02*
X119619000Y-52832000D01*
X113870000Y-66675000D02*
X118958900Y-66675000D01*
X113870000Y-65405000D02*
X119521200Y-65405000D01*
X119521200Y-65405000D02*
X121500400Y-63425800D01*
X121500400Y-63425800D02*
X121500400Y-58453700D01*
X117079000Y-52832000D02*
X117079000Y-54032300D01*
X121500400Y-58453700D02*
X117079000Y-54032300D01*
X115794900Y-62106700D02*
X115794900Y-56968500D01*
X115036600Y-62865000D02*
X115794900Y-62106700D01*
X113870000Y-62865000D02*
X115036600Y-62865000D01*
X114539000Y-55712600D02*
X114539000Y-52832000D01*
X115794900Y-56968500D02*
X114539000Y-55712600D01*
X115264300Y-61113300D02*
X115264300Y-57297600D01*
X113870000Y-61595000D02*
X114782600Y-61595000D01*
X114782600Y-61595000D02*
X115264300Y-61113300D01*
X111999000Y-54032300D02*
X111999000Y-52832000D01*
X115264300Y-57297600D02*
X111999000Y-54032300D01*
X109474000Y-52832000D02*
X109459000Y-52832000D01*
X113870000Y-60325000D02*
X113870000Y-57228000D01*
X113870000Y-57228000D02*
X109474000Y-52832000D01*
X102916800Y-56696800D02*
X106781600Y-52832000D01*
X106781600Y-52832000D02*
X106919000Y-52832000D01*
X99256200Y-61652400D02*
X94964400Y-61652400D01*
X94964400Y-61652400D02*
X94787200Y-61475200D01*
X100583600Y-60325000D02*
X99256200Y-61652400D01*
X104570000Y-60325000D02*
X100583600Y-60325000D01*
X95495600Y-56696800D02*
X102916800Y-56696800D01*
X94787200Y-57405200D02*
X95495600Y-56696800D01*
X94787200Y-61475200D02*
X94787200Y-57405200D01*
X95288400Y-56196500D02*
X94286900Y-57198000D01*
X104379000Y-54117000D02*
X102299500Y-56196500D01*
X102299500Y-56196500D02*
X95288400Y-56196500D01*
X103047800Y-61595000D02*
X104570000Y-61595000D01*
X104379000Y-52832000D02*
X104379000Y-54117000D01*
X94286900Y-57198000D02*
X94286900Y-61682400D01*
X94286900Y-61682400D02*
X94757200Y-62152700D01*
X94757200Y-62152700D02*
X102490100Y-62152700D01*
X102490100Y-62152700D02*
X103047800Y-61595000D01*
X93786600Y-61889600D02*
X94762000Y-62865000D01*
X101839000Y-52832000D02*
X101839000Y-55691800D01*
X101839000Y-55691800D02*
X101834600Y-55696200D01*
X101834600Y-55696200D02*
X95081200Y-55696200D01*
X95081200Y-55696200D02*
X93786600Y-56990800D01*
X94762000Y-62865000D02*
X104570000Y-62865000D01*
X93786600Y-56990800D02*
X93786600Y-61889600D01*
X103378000Y-86360000D02*
X103378000Y-87847000D01*
X103923000Y-88392000D02*
X120659850Y-88392000D01*
X103378000Y-87847000D02*
X103923000Y-88392000D01*
X120659850Y-88392000D02*
X121132700Y-87919150D01*
X96012000Y-80518000D02*
X97536000Y-80518000D01*
X121132700Y-87919150D02*
X121132700Y-71094700D01*
X97536000Y-80518000D02*
X103378000Y-86360000D01*
X121132700Y-71094700D02*
X118110000Y-68072000D01*
%TA.AperFunction,Conductor*%
G36*
X125642121Y-49320002D02*
G01*
X125688614Y-49373658D01*
X125700000Y-49426000D01*
X125700000Y-93574000D01*
X125679998Y-93642121D01*
X125626342Y-93688614D01*
X125574000Y-93700000D01*
X91426000Y-93700000D01*
X91357879Y-93679998D01*
X91311386Y-93626342D01*
X91300000Y-93574000D01*
X91300000Y-90986288D01*
X92171404Y-90986288D01*
X92200081Y-91234140D01*
X92268017Y-91474219D01*
X92373462Y-91700348D01*
X92513706Y-91906710D01*
X92685138Y-92087994D01*
X92883349Y-92239538D01*
X93103239Y-92357443D01*
X93339152Y-92438674D01*
X93467099Y-92460774D01*
X93581107Y-92480467D01*
X93581113Y-92480468D01*
X93585017Y-92481142D01*
X93588978Y-92481322D01*
X93588979Y-92481322D01*
X93613503Y-92482436D01*
X93613522Y-92482436D01*
X93614922Y-92482500D01*
X93788691Y-92482500D01*
X93791199Y-92482298D01*
X93791204Y-92482298D01*
X93969661Y-92467940D01*
X93969666Y-92467939D01*
X93974702Y-92467534D01*
X93979610Y-92466329D01*
X93979613Y-92466328D01*
X94212092Y-92409225D01*
X94217006Y-92408018D01*
X94221658Y-92406043D01*
X94221662Y-92406042D01*
X94442022Y-92312505D01*
X94442023Y-92312505D01*
X94446677Y-92310529D01*
X94657808Y-92177573D01*
X94755923Y-92091073D01*
X94841168Y-92015920D01*
X94841171Y-92015917D01*
X94844965Y-92012572D01*
X95003334Y-91819770D01*
X95128840Y-91604128D01*
X95218255Y-91371195D01*
X95269278Y-91126961D01*
X95280596Y-90877712D01*
X95264637Y-90739775D01*
X95252501Y-90634890D01*
X95251919Y-90629860D01*
X95183983Y-90389781D01*
X95109576Y-90230214D01*
X95080675Y-90168234D01*
X95080673Y-90168230D01*
X95078538Y-90163652D01*
X94938294Y-89957290D01*
X94766862Y-89776006D01*
X94717748Y-89738455D01*
X94572677Y-89627540D01*
X94572676Y-89627539D01*
X94568651Y-89624462D01*
X94348761Y-89506557D01*
X94112848Y-89425326D01*
X93984901Y-89403226D01*
X93870893Y-89383533D01*
X93870887Y-89383532D01*
X93866983Y-89382858D01*
X93863022Y-89382678D01*
X93863021Y-89382678D01*
X93838497Y-89381564D01*
X93838478Y-89381564D01*
X93837078Y-89381500D01*
X93663309Y-89381500D01*
X93660801Y-89381702D01*
X93660796Y-89381702D01*
X93482339Y-89396060D01*
X93482334Y-89396061D01*
X93477298Y-89396466D01*
X93472390Y-89397671D01*
X93472387Y-89397672D01*
X93292162Y-89441940D01*
X93234994Y-89455982D01*
X93230342Y-89457957D01*
X93230338Y-89457958D01*
X93021058Y-89546792D01*
X93005323Y-89553471D01*
X92794192Y-89686427D01*
X92790398Y-89689772D01*
X92610832Y-89848080D01*
X92610829Y-89848083D01*
X92607035Y-89851428D01*
X92603825Y-89855336D01*
X92603824Y-89855337D01*
X92578180Y-89886556D01*
X92448666Y-90044230D01*
X92323160Y-90259872D01*
X92321347Y-90264595D01*
X92321346Y-90264597D01*
X92309571Y-90295272D01*
X92233745Y-90492805D01*
X92232712Y-90497751D01*
X92232710Y-90497757D01*
X92196687Y-90670192D01*
X92182722Y-90737039D01*
X92182493Y-90742088D01*
X92182492Y-90742094D01*
X92179727Y-90803000D01*
X92171404Y-90986288D01*
X91300000Y-90986288D01*
X91300000Y-82512070D01*
X91320002Y-82443949D01*
X91373658Y-82397456D01*
X91443932Y-82387352D01*
X91508512Y-82416846D01*
X91515095Y-82422975D01*
X99119050Y-90026930D01*
X99129917Y-90039321D01*
X99148049Y-90062951D01*
X99154599Y-90067977D01*
X99178229Y-90086109D01*
X99178232Y-90086112D01*
X99232167Y-90127498D01*
X99268267Y-90155199D01*
X99367260Y-90196203D01*
X99400634Y-90210027D01*
X99400637Y-90210028D01*
X99408264Y-90213187D01*
X99520780Y-90228000D01*
X99520781Y-90228000D01*
X99520791Y-90228001D01*
X99550310Y-90231887D01*
X99550312Y-90231887D01*
X99558500Y-90232965D01*
X99566688Y-90231887D01*
X99566689Y-90231887D01*
X99588026Y-90229078D01*
X99604472Y-90228000D01*
X100837688Y-90228000D01*
X100905809Y-90248002D01*
X100952302Y-90301658D01*
X100962775Y-90338862D01*
X100968364Y-90385047D01*
X101023887Y-90525283D01*
X101115078Y-90645422D01*
X101235217Y-90736613D01*
X101275727Y-90752652D01*
X101367923Y-90789155D01*
X101367925Y-90789156D01*
X101375453Y-90792136D01*
X101465228Y-90803000D01*
X102750772Y-90803000D01*
X102840547Y-90792136D01*
X102848075Y-90789156D01*
X102848077Y-90789155D01*
X102940273Y-90752652D01*
X102980783Y-90736613D01*
X103100922Y-90645422D01*
X103192113Y-90525283D01*
X103247636Y-90385047D01*
X103258500Y-90295272D01*
X103258500Y-89863173D01*
X103278502Y-89795052D01*
X103332158Y-89748559D01*
X103402432Y-89738455D01*
X103467012Y-89767949D01*
X103505396Y-89827675D01*
X103506658Y-89833284D01*
X103506796Y-89833249D01*
X103558845Y-90038190D01*
X103561262Y-90043433D01*
X103567240Y-90056401D01*
X103647369Y-90230214D01*
X103769405Y-90402891D01*
X103773539Y-90406918D01*
X103866788Y-90497757D01*
X103920865Y-90550437D01*
X103925661Y-90553642D01*
X103925664Y-90553644D01*
X104032435Y-90624986D01*
X104096677Y-90667911D01*
X104101985Y-90670192D01*
X104101986Y-90670192D01*
X104285650Y-90749100D01*
X104285653Y-90749101D01*
X104290953Y-90751378D01*
X104296582Y-90752652D01*
X104296583Y-90752652D01*
X104491550Y-90796769D01*
X104491553Y-90796769D01*
X104497186Y-90798044D01*
X104502957Y-90798271D01*
X104502959Y-90798271D01*
X104564989Y-90800708D01*
X104708470Y-90806346D01*
X104714179Y-90805518D01*
X104714183Y-90805518D01*
X104912015Y-90776833D01*
X104912019Y-90776832D01*
X104917730Y-90776004D01*
X105047112Y-90732085D01*
X105112483Y-90709895D01*
X105112488Y-90709893D01*
X105117955Y-90708037D01*
X105122998Y-90705213D01*
X105297395Y-90607546D01*
X105297399Y-90607543D01*
X105302442Y-90604719D01*
X105465012Y-90469512D01*
X105600219Y-90306942D01*
X105603043Y-90301899D01*
X105603046Y-90301895D01*
X105700713Y-90127498D01*
X105700714Y-90127496D01*
X105703537Y-90122455D01*
X105705393Y-90116988D01*
X105705395Y-90116983D01*
X105769647Y-89927700D01*
X105771504Y-89922230D01*
X105780067Y-89863173D01*
X105793090Y-89773360D01*
X105822660Y-89708815D01*
X105882432Y-89670503D01*
X105953429Y-89670587D01*
X106013109Y-89709042D01*
X106042525Y-89773658D01*
X106043515Y-89783195D01*
X106046796Y-89833249D01*
X106048217Y-89838845D01*
X106048218Y-89838850D01*
X106070784Y-89927700D01*
X106098845Y-90038190D01*
X106101262Y-90043433D01*
X106107240Y-90056401D01*
X106187369Y-90230214D01*
X106309405Y-90402891D01*
X106313539Y-90406918D01*
X106406788Y-90497757D01*
X106460865Y-90550437D01*
X106465661Y-90553642D01*
X106465664Y-90553644D01*
X106572435Y-90624986D01*
X106636677Y-90667911D01*
X106641985Y-90670192D01*
X106641986Y-90670192D01*
X106825650Y-90749100D01*
X106825653Y-90749101D01*
X106830953Y-90751378D01*
X106836582Y-90752652D01*
X106836583Y-90752652D01*
X107031550Y-90796769D01*
X107031553Y-90796769D01*
X107037186Y-90798044D01*
X107042957Y-90798271D01*
X107042959Y-90798271D01*
X107104989Y-90800708D01*
X107248470Y-90806346D01*
X107254179Y-90805518D01*
X107254183Y-90805518D01*
X107452015Y-90776833D01*
X107452019Y-90776832D01*
X107457730Y-90776004D01*
X107587112Y-90732085D01*
X107652483Y-90709895D01*
X107652488Y-90709893D01*
X107657955Y-90708037D01*
X107662998Y-90705213D01*
X107837395Y-90607546D01*
X107837399Y-90607543D01*
X107842442Y-90604719D01*
X108005012Y-90469512D01*
X108140219Y-90306942D01*
X108143043Y-90301899D01*
X108143046Y-90301895D01*
X108240713Y-90127498D01*
X108240714Y-90127496D01*
X108243537Y-90122455D01*
X108245393Y-90116988D01*
X108245395Y-90116983D01*
X108309647Y-89927700D01*
X108311504Y-89922230D01*
X108320067Y-89863173D01*
X108333090Y-89773360D01*
X108362660Y-89708815D01*
X108422432Y-89670503D01*
X108493429Y-89670587D01*
X108553109Y-89709042D01*
X108582525Y-89773658D01*
X108583515Y-89783195D01*
X108586796Y-89833249D01*
X108588217Y-89838845D01*
X108588218Y-89838850D01*
X108610784Y-89927700D01*
X108638845Y-90038190D01*
X108641262Y-90043433D01*
X108647240Y-90056401D01*
X108727369Y-90230214D01*
X108849405Y-90402891D01*
X108853539Y-90406918D01*
X108946788Y-90497757D01*
X109000865Y-90550437D01*
X109005661Y-90553642D01*
X109005664Y-90553644D01*
X109112435Y-90624986D01*
X109176677Y-90667911D01*
X109181985Y-90670192D01*
X109181986Y-90670192D01*
X109365650Y-90749100D01*
X109365653Y-90749101D01*
X109370953Y-90751378D01*
X109376582Y-90752652D01*
X109376583Y-90752652D01*
X109571550Y-90796769D01*
X109571553Y-90796769D01*
X109577186Y-90798044D01*
X109582957Y-90798271D01*
X109582959Y-90798271D01*
X109644989Y-90800708D01*
X109788470Y-90806346D01*
X109794179Y-90805518D01*
X109794183Y-90805518D01*
X109992015Y-90776833D01*
X109992019Y-90776832D01*
X109997730Y-90776004D01*
X110127112Y-90732085D01*
X110192483Y-90709895D01*
X110192488Y-90709893D01*
X110197955Y-90708037D01*
X110202998Y-90705213D01*
X110377395Y-90607546D01*
X110377399Y-90607543D01*
X110382442Y-90604719D01*
X110545012Y-90469512D01*
X110680219Y-90306942D01*
X110683043Y-90301899D01*
X110683046Y-90301895D01*
X110780713Y-90127498D01*
X110780714Y-90127496D01*
X110783537Y-90122455D01*
X110785393Y-90116988D01*
X110785395Y-90116983D01*
X110849647Y-89927700D01*
X110851504Y-89922230D01*
X110860067Y-89863173D01*
X110873090Y-89773360D01*
X110902660Y-89708815D01*
X110962432Y-89670503D01*
X111033429Y-89670587D01*
X111093109Y-89709042D01*
X111122525Y-89773658D01*
X111123515Y-89783195D01*
X111126796Y-89833249D01*
X111128217Y-89838845D01*
X111128218Y-89838850D01*
X111150784Y-89927700D01*
X111178845Y-90038190D01*
X111181262Y-90043433D01*
X111187240Y-90056401D01*
X111267369Y-90230214D01*
X111389405Y-90402891D01*
X111393539Y-90406918D01*
X111486788Y-90497757D01*
X111540865Y-90550437D01*
X111545661Y-90553642D01*
X111545664Y-90553644D01*
X111652435Y-90624986D01*
X111716677Y-90667911D01*
X111721985Y-90670192D01*
X111721986Y-90670192D01*
X111905650Y-90749100D01*
X111905653Y-90749101D01*
X111910953Y-90751378D01*
X111916582Y-90752652D01*
X111916583Y-90752652D01*
X112111550Y-90796769D01*
X112111553Y-90796769D01*
X112117186Y-90798044D01*
X112122957Y-90798271D01*
X112122959Y-90798271D01*
X112184989Y-90800708D01*
X112328470Y-90806346D01*
X112334179Y-90805518D01*
X112334183Y-90805518D01*
X112532015Y-90776833D01*
X112532019Y-90776832D01*
X112537730Y-90776004D01*
X112667112Y-90732085D01*
X112732483Y-90709895D01*
X112732488Y-90709893D01*
X112737955Y-90708037D01*
X112742998Y-90705213D01*
X112917395Y-90607546D01*
X112917399Y-90607543D01*
X112922442Y-90604719D01*
X113085012Y-90469512D01*
X113220219Y-90306942D01*
X113223043Y-90301899D01*
X113223046Y-90301895D01*
X113320713Y-90127498D01*
X113320714Y-90127496D01*
X113323537Y-90122455D01*
X113325393Y-90116988D01*
X113325395Y-90116983D01*
X113389647Y-89927700D01*
X113391504Y-89922230D01*
X113400067Y-89863173D01*
X113413090Y-89773360D01*
X113442660Y-89708815D01*
X113502432Y-89670503D01*
X113573429Y-89670587D01*
X113633109Y-89709042D01*
X113662525Y-89773658D01*
X113663515Y-89783195D01*
X113666796Y-89833249D01*
X113668217Y-89838845D01*
X113668218Y-89838850D01*
X113690784Y-89927700D01*
X113718845Y-90038190D01*
X113721262Y-90043433D01*
X113727240Y-90056401D01*
X113807369Y-90230214D01*
X113929405Y-90402891D01*
X113933539Y-90406918D01*
X114026788Y-90497757D01*
X114080865Y-90550437D01*
X114085661Y-90553642D01*
X114085664Y-90553644D01*
X114192435Y-90624986D01*
X114256677Y-90667911D01*
X114261985Y-90670192D01*
X114261986Y-90670192D01*
X114445650Y-90749100D01*
X114445653Y-90749101D01*
X114450953Y-90751378D01*
X114456582Y-90752652D01*
X114456583Y-90752652D01*
X114651550Y-90796769D01*
X114651553Y-90796769D01*
X114657186Y-90798044D01*
X114662957Y-90798271D01*
X114662959Y-90798271D01*
X114724989Y-90800708D01*
X114868470Y-90806346D01*
X114874179Y-90805518D01*
X114874183Y-90805518D01*
X115072015Y-90776833D01*
X115072019Y-90776832D01*
X115077730Y-90776004D01*
X115207112Y-90732085D01*
X115272483Y-90709895D01*
X115272488Y-90709893D01*
X115277955Y-90708037D01*
X115282998Y-90705213D01*
X115457395Y-90607546D01*
X115457399Y-90607543D01*
X115462442Y-90604719D01*
X115625012Y-90469512D01*
X115760219Y-90306942D01*
X115763043Y-90301899D01*
X115763046Y-90301895D01*
X115860713Y-90127498D01*
X115860714Y-90127496D01*
X115863537Y-90122455D01*
X115865393Y-90116988D01*
X115865395Y-90116983D01*
X115929647Y-89927700D01*
X115931504Y-89922230D01*
X115940067Y-89863173D01*
X115953090Y-89773360D01*
X115982660Y-89708815D01*
X116042432Y-89670503D01*
X116113429Y-89670587D01*
X116173109Y-89709042D01*
X116202525Y-89773658D01*
X116203515Y-89783195D01*
X116206796Y-89833249D01*
X116208217Y-89838845D01*
X116208218Y-89838850D01*
X116230784Y-89927700D01*
X116258845Y-90038190D01*
X116261262Y-90043433D01*
X116267240Y-90056401D01*
X116347369Y-90230214D01*
X116469405Y-90402891D01*
X116473539Y-90406918D01*
X116566788Y-90497757D01*
X116620865Y-90550437D01*
X116625661Y-90553642D01*
X116625664Y-90553644D01*
X116732435Y-90624986D01*
X116796677Y-90667911D01*
X116801985Y-90670192D01*
X116801986Y-90670192D01*
X116985650Y-90749100D01*
X116985653Y-90749101D01*
X116990953Y-90751378D01*
X116996582Y-90752652D01*
X116996583Y-90752652D01*
X117191550Y-90796769D01*
X117191553Y-90796769D01*
X117197186Y-90798044D01*
X117202957Y-90798271D01*
X117202959Y-90798271D01*
X117264989Y-90800708D01*
X117408470Y-90806346D01*
X117414179Y-90805518D01*
X117414183Y-90805518D01*
X117612015Y-90776833D01*
X117612019Y-90776832D01*
X117617730Y-90776004D01*
X117747112Y-90732085D01*
X117812483Y-90709895D01*
X117812488Y-90709893D01*
X117817955Y-90708037D01*
X117822998Y-90705213D01*
X117997395Y-90607546D01*
X117997399Y-90607543D01*
X118002442Y-90604719D01*
X118165012Y-90469512D01*
X118300219Y-90306942D01*
X118303043Y-90301899D01*
X118303046Y-90301895D01*
X118400713Y-90127498D01*
X118400714Y-90127496D01*
X118403537Y-90122455D01*
X118405393Y-90116988D01*
X118405395Y-90116983D01*
X118469647Y-89927700D01*
X118471504Y-89922230D01*
X118480067Y-89863173D01*
X118493090Y-89773360D01*
X118522660Y-89708815D01*
X118582432Y-89670503D01*
X118653429Y-89670587D01*
X118713109Y-89709042D01*
X118742525Y-89773658D01*
X118743515Y-89783195D01*
X118746796Y-89833249D01*
X118748217Y-89838845D01*
X118748218Y-89838850D01*
X118770784Y-89927700D01*
X118798845Y-90038190D01*
X118801262Y-90043433D01*
X118807240Y-90056401D01*
X118887369Y-90230214D01*
X119009405Y-90402891D01*
X119013539Y-90406918D01*
X119106788Y-90497757D01*
X119160865Y-90550437D01*
X119165661Y-90553642D01*
X119165664Y-90553644D01*
X119272435Y-90624986D01*
X119336677Y-90667911D01*
X119341985Y-90670192D01*
X119341986Y-90670192D01*
X119525650Y-90749100D01*
X119525653Y-90749101D01*
X119530953Y-90751378D01*
X119536582Y-90752652D01*
X119536583Y-90752652D01*
X119731550Y-90796769D01*
X119731553Y-90796769D01*
X119737186Y-90798044D01*
X119742957Y-90798271D01*
X119742959Y-90798271D01*
X119804989Y-90800708D01*
X119948470Y-90806346D01*
X119954179Y-90805518D01*
X119954183Y-90805518D01*
X120152015Y-90776833D01*
X120152019Y-90776832D01*
X120157730Y-90776004D01*
X120287112Y-90732085D01*
X120352483Y-90709895D01*
X120352488Y-90709893D01*
X120357955Y-90708037D01*
X120362998Y-90705213D01*
X120537395Y-90607546D01*
X120537399Y-90607543D01*
X120542442Y-90604719D01*
X120705012Y-90469512D01*
X120840219Y-90306942D01*
X120843043Y-90301899D01*
X120843046Y-90301895D01*
X120940713Y-90127498D01*
X120940714Y-90127496D01*
X120943537Y-90122455D01*
X120945393Y-90116988D01*
X120945395Y-90116983D01*
X121009647Y-89927700D01*
X121011504Y-89922230D01*
X121021204Y-89855337D01*
X121041314Y-89716640D01*
X121041314Y-89716638D01*
X121041846Y-89712970D01*
X121043429Y-89652500D01*
X121024081Y-89441940D01*
X121019396Y-89425326D01*
X120968255Y-89243996D01*
X120966686Y-89238431D01*
X120955553Y-89215854D01*
X120875719Y-89053969D01*
X120873165Y-89048790D01*
X120850675Y-89018672D01*
X120822179Y-88980511D01*
X120797447Y-88913961D01*
X120812622Y-88844605D01*
X120868594Y-88791539D01*
X120893213Y-88779717D01*
X120915929Y-88768809D01*
X120921215Y-88763923D01*
X120921263Y-88763890D01*
X120927638Y-88760579D01*
X120932678Y-88756275D01*
X120969905Y-88719048D01*
X120973471Y-88715618D01*
X121008491Y-88683246D01*
X121015406Y-88676854D01*
X121019099Y-88670495D01*
X121024616Y-88664337D01*
X121427050Y-88261903D01*
X121438139Y-88252049D01*
X121457410Y-88236856D01*
X121457411Y-88236855D01*
X121464810Y-88231022D01*
X121470165Y-88223274D01*
X121470167Y-88223272D01*
X121498174Y-88182750D01*
X121500474Y-88179531D01*
X121529738Y-88139910D01*
X121529739Y-88139909D01*
X121535334Y-88132333D01*
X121537727Y-88125519D01*
X121541831Y-88119581D01*
X121545373Y-88108383D01*
X121559525Y-88063633D01*
X121560778Y-88059878D01*
X121577096Y-88013412D01*
X121580219Y-88004519D01*
X121580501Y-87997332D01*
X121580513Y-87997270D01*
X121582680Y-87990420D01*
X121583200Y-87983813D01*
X121583200Y-87931134D01*
X121583297Y-87926187D01*
X121583557Y-87919574D01*
X121585538Y-87869156D01*
X121583654Y-87862050D01*
X121583200Y-87853803D01*
X121583200Y-71128919D01*
X121584073Y-71114110D01*
X121586957Y-71089741D01*
X121588064Y-71080389D01*
X121586372Y-71071126D01*
X121586372Y-71071119D01*
X121577525Y-71022682D01*
X121576874Y-71018775D01*
X121569550Y-70970056D01*
X121569550Y-70970055D01*
X121568149Y-70960738D01*
X121565021Y-70954225D01*
X121563725Y-70947127D01*
X121536672Y-70895047D01*
X121534923Y-70891545D01*
X121513587Y-70847113D01*
X121513586Y-70847112D01*
X121509509Y-70838621D01*
X121504623Y-70833336D01*
X121504592Y-70833289D01*
X121501279Y-70826911D01*
X121496975Y-70821872D01*
X121459748Y-70784645D01*
X121456318Y-70781079D01*
X121423946Y-70746059D01*
X121417554Y-70739144D01*
X121411195Y-70735451D01*
X121405037Y-70729934D01*
X118801391Y-68126288D01*
X121381404Y-68126288D01*
X121381985Y-68131308D01*
X121381985Y-68131312D01*
X121401281Y-68298080D01*
X121410081Y-68374140D01*
X121411460Y-68379011D01*
X121411460Y-68379014D01*
X121435815Y-68465080D01*
X121478017Y-68614219D01*
X121503338Y-68668521D01*
X121580842Y-68834729D01*
X121583462Y-68840348D01*
X121586304Y-68844529D01*
X121586304Y-68844530D01*
X121594197Y-68856144D01*
X121723706Y-69046710D01*
X121895138Y-69227994D01*
X121899164Y-69231072D01*
X121899165Y-69231073D01*
X122089323Y-69376460D01*
X122093349Y-69379538D01*
X122313239Y-69497443D01*
X122549152Y-69578674D01*
X122677099Y-69600774D01*
X122791107Y-69620467D01*
X122791113Y-69620468D01*
X122795017Y-69621142D01*
X122798978Y-69621322D01*
X122798979Y-69621322D01*
X122823503Y-69622436D01*
X122823522Y-69622436D01*
X122824922Y-69622500D01*
X122998691Y-69622500D01*
X123001199Y-69622298D01*
X123001204Y-69622298D01*
X123179661Y-69607940D01*
X123179666Y-69607939D01*
X123184702Y-69607534D01*
X123189610Y-69606329D01*
X123189613Y-69606328D01*
X123422092Y-69549225D01*
X123427006Y-69548018D01*
X123431658Y-69546043D01*
X123431662Y-69546042D01*
X123652022Y-69452505D01*
X123652023Y-69452505D01*
X123656677Y-69450529D01*
X123867808Y-69317573D01*
X123969014Y-69228348D01*
X124051168Y-69155920D01*
X124051171Y-69155917D01*
X124054965Y-69152572D01*
X124213334Y-68959770D01*
X124338840Y-68744128D01*
X124341479Y-68737255D01*
X124410166Y-68558319D01*
X124428255Y-68511195D01*
X124429304Y-68506178D01*
X124478243Y-68271915D01*
X124479278Y-68266961D01*
X124482253Y-68201457D01*
X124484682Y-68147954D01*
X124490596Y-68017712D01*
X124486232Y-67979990D01*
X124462501Y-67774890D01*
X124461919Y-67769860D01*
X124458125Y-67756450D01*
X124411447Y-67591498D01*
X124393983Y-67529781D01*
X124307586Y-67344500D01*
X124290675Y-67308234D01*
X124290673Y-67308230D01*
X124288538Y-67303652D01*
X124148294Y-67097290D01*
X124006490Y-66947337D01*
X123980344Y-66919688D01*
X123980343Y-66919687D01*
X123976862Y-66916006D01*
X123971789Y-66912127D01*
X123782677Y-66767540D01*
X123782676Y-66767539D01*
X123778651Y-66764462D01*
X123558761Y-66646557D01*
X123322848Y-66565326D01*
X123194901Y-66543226D01*
X123080893Y-66523533D01*
X123080887Y-66523532D01*
X123076983Y-66522858D01*
X123073022Y-66522678D01*
X123073021Y-66522678D01*
X123048497Y-66521564D01*
X123048478Y-66521564D01*
X123047078Y-66521500D01*
X122873309Y-66521500D01*
X122870801Y-66521702D01*
X122870796Y-66521702D01*
X122692339Y-66536060D01*
X122692334Y-66536061D01*
X122687298Y-66536466D01*
X122682390Y-66537671D01*
X122682387Y-66537672D01*
X122461222Y-66591996D01*
X122444994Y-66595982D01*
X122440342Y-66597957D01*
X122440338Y-66597958D01*
X122219978Y-66691495D01*
X122215323Y-66693471D01*
X122004192Y-66826427D01*
X121980684Y-66847152D01*
X121820832Y-66988080D01*
X121820829Y-66988083D01*
X121817035Y-66991428D01*
X121658666Y-67184230D01*
X121533160Y-67399872D01*
X121531347Y-67404595D01*
X121531346Y-67404597D01*
X121483292Y-67529781D01*
X121443745Y-67632805D01*
X121442712Y-67637751D01*
X121442710Y-67637757D01*
X121405549Y-67815640D01*
X121392722Y-67877039D01*
X121392493Y-67882088D01*
X121392492Y-67882094D01*
X121390392Y-67928350D01*
X121381404Y-68126288D01*
X118801391Y-68126288D01*
X118717405Y-68042302D01*
X118683379Y-67979990D01*
X118680500Y-67953207D01*
X118680500Y-67834962D01*
X118678673Y-67815632D01*
X118678341Y-67812119D01*
X118678340Y-67812116D01*
X118677618Y-67804474D01*
X118634227Y-67680915D01*
X118596836Y-67630291D01*
X118562018Y-67583152D01*
X118556423Y-67575577D01*
X118492434Y-67528314D01*
X118458663Y-67503370D01*
X118458662Y-67503369D01*
X118451085Y-67497773D01*
X118358277Y-67465181D01*
X118334774Y-67456927D01*
X118334772Y-67456926D01*
X118327526Y-67454382D01*
X118319884Y-67453660D01*
X118319881Y-67453659D01*
X118309974Y-67452723D01*
X118297038Y-67451500D01*
X117922962Y-67451500D01*
X117910026Y-67452723D01*
X117900119Y-67453659D01*
X117900116Y-67453660D01*
X117892474Y-67454382D01*
X117885228Y-67456926D01*
X117885226Y-67456927D01*
X117861723Y-67465181D01*
X117768915Y-67497773D01*
X117761338Y-67503369D01*
X117761337Y-67503370D01*
X117674859Y-67567244D01*
X117608181Y-67591627D01*
X117538905Y-67576090D01*
X117525141Y-67567244D01*
X117438663Y-67503370D01*
X117438662Y-67503369D01*
X117431085Y-67497773D01*
X117338277Y-67465181D01*
X117314774Y-67456927D01*
X117314772Y-67456926D01*
X117307526Y-67454382D01*
X117299882Y-67453659D01*
X117299880Y-67453659D01*
X117292398Y-67452952D01*
X117253910Y-67440668D01*
X117253233Y-67442302D01*
X117235153Y-67434813D01*
X117120865Y-67387473D01*
X117113236Y-67384313D01*
X117053298Y-67376422D01*
X116988371Y-67347700D01*
X116949279Y-67288434D01*
X116948434Y-67217443D01*
X116986104Y-67157264D01*
X117050330Y-67127005D01*
X117069744Y-67125500D01*
X118924680Y-67125500D01*
X118939489Y-67126373D01*
X118973210Y-67130364D01*
X118982474Y-67128672D01*
X118982475Y-67128672D01*
X119030901Y-67119828D01*
X119034804Y-67119178D01*
X119083545Y-67111850D01*
X119083546Y-67111850D01*
X119092862Y-67110449D01*
X119099375Y-67107321D01*
X119106473Y-67106025D01*
X119158547Y-67078975D01*
X119162037Y-67077232D01*
X119214979Y-67051809D01*
X119220265Y-67046923D01*
X119220313Y-67046890D01*
X119226688Y-67043579D01*
X119231728Y-67039275D01*
X119268955Y-67002048D01*
X119272521Y-66998618D01*
X119307541Y-66966246D01*
X119314456Y-66959854D01*
X119318149Y-66953495D01*
X119323666Y-66947337D01*
X122319350Y-63951653D01*
X122330439Y-63941799D01*
X122349709Y-63926607D01*
X122349711Y-63926605D01*
X122357110Y-63920772D01*
X122390462Y-63872515D01*
X122392757Y-63869303D01*
X122422040Y-63829658D01*
X122422041Y-63829657D01*
X122427634Y-63822084D01*
X122430027Y-63815268D01*
X122434131Y-63809331D01*
X122451826Y-63753381D01*
X122453071Y-63749650D01*
X122469396Y-63703163D01*
X122469396Y-63703161D01*
X122472519Y-63694269D01*
X122472801Y-63687081D01*
X122472812Y-63687022D01*
X122474980Y-63680170D01*
X122475500Y-63673563D01*
X122475500Y-63620884D01*
X122475597Y-63615937D01*
X122477468Y-63568318D01*
X122477838Y-63558906D01*
X122475954Y-63551800D01*
X122475500Y-63543556D01*
X122475500Y-58203620D01*
X122476373Y-58188811D01*
X122479257Y-58164443D01*
X122480364Y-58155090D01*
X122478672Y-58145826D01*
X122478672Y-58145822D01*
X122469827Y-58097389D01*
X122469178Y-58093488D01*
X122461851Y-58044755D01*
X122461849Y-58044747D01*
X122460449Y-58035438D01*
X122457323Y-58028928D01*
X122456026Y-58021827D01*
X122428982Y-57969763D01*
X122427214Y-57966225D01*
X122405886Y-57921811D01*
X122401809Y-57913321D01*
X122396922Y-57908035D01*
X122396895Y-57907995D01*
X122393580Y-57901612D01*
X122389275Y-57896572D01*
X122352048Y-57859345D01*
X122348618Y-57855779D01*
X122316246Y-57820759D01*
X122309854Y-57813844D01*
X122303495Y-57810151D01*
X122297337Y-57804634D01*
X120106405Y-55613702D01*
X120072379Y-55551390D01*
X120069500Y-55524607D01*
X120069500Y-54108500D01*
X120089502Y-54040379D01*
X120143158Y-53993886D01*
X120195500Y-53982500D01*
X120513646Y-53982500D01*
X120517350Y-53982059D01*
X120517353Y-53982059D01*
X120524746Y-53981179D01*
X120539846Y-53979382D01*
X120552569Y-53973731D01*
X120631518Y-53938663D01*
X120642153Y-53933939D01*
X120721241Y-53854713D01*
X120766506Y-53752327D01*
X120769500Y-53726646D01*
X120769500Y-51937354D01*
X120766382Y-51911154D01*
X120750341Y-51875039D01*
X120725663Y-51819482D01*
X120720939Y-51808847D01*
X120712444Y-51800366D01*
X120649945Y-51737977D01*
X120641713Y-51729759D01*
X120631076Y-51725056D01*
X120631074Y-51725055D01*
X120561998Y-51694517D01*
X120539327Y-51684494D01*
X120513646Y-51681500D01*
X118724354Y-51681500D01*
X118720650Y-51681941D01*
X118720647Y-51681941D01*
X118713254Y-51682821D01*
X118698154Y-51684618D01*
X118689514Y-51688456D01*
X118689513Y-51688456D01*
X118623131Y-51717942D01*
X118595847Y-51730061D01*
X118516759Y-51809287D01*
X118512056Y-51819924D01*
X118512055Y-51819926D01*
X118489880Y-51870085D01*
X118471494Y-51911673D01*
X118468500Y-51937354D01*
X118468500Y-52631111D01*
X118448498Y-52699232D01*
X118394842Y-52745725D01*
X118324568Y-52755829D01*
X118259988Y-52726335D01*
X118221604Y-52666609D01*
X118217029Y-52642640D01*
X118215610Y-52627197D01*
X118215081Y-52621440D01*
X118212481Y-52612219D01*
X118159255Y-52423496D01*
X118157686Y-52417931D01*
X118148692Y-52399692D01*
X118066719Y-52233469D01*
X118064165Y-52228290D01*
X117937651Y-52058867D01*
X117810236Y-51941086D01*
X117786622Y-51919257D01*
X117786620Y-51919255D01*
X117782381Y-51915337D01*
X117650641Y-51832215D01*
X117608434Y-51805584D01*
X117608433Y-51805584D01*
X117603554Y-51802505D01*
X117407160Y-51724152D01*
X117401503Y-51723027D01*
X117401497Y-51723025D01*
X117205442Y-51684028D01*
X117205440Y-51684028D01*
X117199775Y-51682901D01*
X117194000Y-51682825D01*
X117193996Y-51682825D01*
X117087976Y-51681437D01*
X116988346Y-51680133D01*
X116982649Y-51681112D01*
X116982648Y-51681112D01*
X116785650Y-51714962D01*
X116785649Y-51714962D01*
X116779953Y-51715941D01*
X116581575Y-51789127D01*
X116576614Y-51792079D01*
X116576613Y-51792079D01*
X116428673Y-51880094D01*
X116399856Y-51897238D01*
X116240881Y-52036655D01*
X116109976Y-52202708D01*
X116107287Y-52207819D01*
X116107285Y-52207822D01*
X116057400Y-52302638D01*
X116011523Y-52389836D01*
X115948820Y-52591773D01*
X115948141Y-52597510D01*
X115934088Y-52716239D01*
X115906217Y-52781537D01*
X115847469Y-52821401D01*
X115776494Y-52823174D01*
X115715828Y-52786295D01*
X115684730Y-52722471D01*
X115683490Y-52712958D01*
X115679232Y-52666609D01*
X115675081Y-52621440D01*
X115672481Y-52612219D01*
X115619255Y-52423496D01*
X115617686Y-52417931D01*
X115608692Y-52399692D01*
X115526719Y-52233469D01*
X115524165Y-52228290D01*
X115397651Y-52058867D01*
X115270236Y-51941086D01*
X115246622Y-51919257D01*
X115246620Y-51919255D01*
X115242381Y-51915337D01*
X115110641Y-51832215D01*
X115068434Y-51805584D01*
X115068433Y-51805584D01*
X115063554Y-51802505D01*
X114867160Y-51724152D01*
X114861503Y-51723027D01*
X114861497Y-51723025D01*
X114665442Y-51684028D01*
X114665440Y-51684028D01*
X114659775Y-51682901D01*
X114654000Y-51682825D01*
X114653996Y-51682825D01*
X114547976Y-51681437D01*
X114448346Y-51680133D01*
X114442649Y-51681112D01*
X114442648Y-51681112D01*
X114245650Y-51714962D01*
X114245649Y-51714962D01*
X114239953Y-51715941D01*
X114041575Y-51789127D01*
X114036614Y-51792079D01*
X114036613Y-51792079D01*
X113888673Y-51880094D01*
X113859856Y-51897238D01*
X113700881Y-52036655D01*
X113569976Y-52202708D01*
X113567287Y-52207819D01*
X113567285Y-52207822D01*
X113517400Y-52302638D01*
X113471523Y-52389836D01*
X113408820Y-52591773D01*
X113408141Y-52597510D01*
X113394088Y-52716239D01*
X113366217Y-52781537D01*
X113307469Y-52821401D01*
X113236494Y-52823174D01*
X113175828Y-52786295D01*
X113144730Y-52722471D01*
X113143490Y-52712958D01*
X113139232Y-52666609D01*
X113135081Y-52621440D01*
X113132481Y-52612219D01*
X113079255Y-52423496D01*
X113077686Y-52417931D01*
X113068692Y-52399692D01*
X112986719Y-52233469D01*
X112984165Y-52228290D01*
X112857651Y-52058867D01*
X112730236Y-51941086D01*
X112706622Y-51919257D01*
X112706620Y-51919255D01*
X112702381Y-51915337D01*
X112570641Y-51832215D01*
X112528434Y-51805584D01*
X112528433Y-51805584D01*
X112523554Y-51802505D01*
X112327160Y-51724152D01*
X112321503Y-51723027D01*
X112321497Y-51723025D01*
X112125442Y-51684028D01*
X112125440Y-51684028D01*
X112119775Y-51682901D01*
X112114000Y-51682825D01*
X112113996Y-51682825D01*
X112007976Y-51681437D01*
X111908346Y-51680133D01*
X111902649Y-51681112D01*
X111902648Y-51681112D01*
X111705650Y-51714962D01*
X111705649Y-51714962D01*
X111699953Y-51715941D01*
X111501575Y-51789127D01*
X111496614Y-51792079D01*
X111496613Y-51792079D01*
X111348673Y-51880094D01*
X111319856Y-51897238D01*
X111160881Y-52036655D01*
X111029976Y-52202708D01*
X111027287Y-52207819D01*
X111027285Y-52207822D01*
X110977400Y-52302638D01*
X110931523Y-52389836D01*
X110868820Y-52591773D01*
X110868141Y-52597510D01*
X110854088Y-52716239D01*
X110826217Y-52781537D01*
X110767469Y-52821401D01*
X110696494Y-52823174D01*
X110635828Y-52786295D01*
X110604730Y-52722471D01*
X110603490Y-52712958D01*
X110599232Y-52666609D01*
X110595081Y-52621440D01*
X110592481Y-52612219D01*
X110539255Y-52423496D01*
X110537686Y-52417931D01*
X110528692Y-52399692D01*
X110446719Y-52233469D01*
X110444165Y-52228290D01*
X110317651Y-52058867D01*
X110190236Y-51941086D01*
X110166622Y-51919257D01*
X110166620Y-51919255D01*
X110162381Y-51915337D01*
X110030641Y-51832215D01*
X109988434Y-51805584D01*
X109988433Y-51805584D01*
X109983554Y-51802505D01*
X109787160Y-51724152D01*
X109781503Y-51723027D01*
X109781497Y-51723025D01*
X109585442Y-51684028D01*
X109585440Y-51684028D01*
X109579775Y-51682901D01*
X109574000Y-51682825D01*
X109573996Y-51682825D01*
X109467976Y-51681437D01*
X109368346Y-51680133D01*
X109362649Y-51681112D01*
X109362648Y-51681112D01*
X109165650Y-51714962D01*
X109165649Y-51714962D01*
X109159953Y-51715941D01*
X108961575Y-51789127D01*
X108956614Y-51792079D01*
X108956613Y-51792079D01*
X108808673Y-51880094D01*
X108779856Y-51897238D01*
X108620881Y-52036655D01*
X108489976Y-52202708D01*
X108487287Y-52207819D01*
X108487285Y-52207822D01*
X108437400Y-52302638D01*
X108391523Y-52389836D01*
X108328820Y-52591773D01*
X108328141Y-52597510D01*
X108314088Y-52716239D01*
X108286217Y-52781537D01*
X108227469Y-52821401D01*
X108156494Y-52823174D01*
X108095828Y-52786295D01*
X108064730Y-52722471D01*
X108063490Y-52712958D01*
X108059232Y-52666609D01*
X108055081Y-52621440D01*
X108052481Y-52612219D01*
X107999255Y-52423496D01*
X107997686Y-52417931D01*
X107988692Y-52399692D01*
X107906719Y-52233469D01*
X107904165Y-52228290D01*
X107777651Y-52058867D01*
X107650236Y-51941086D01*
X107626622Y-51919257D01*
X107626620Y-51919255D01*
X107622381Y-51915337D01*
X107490641Y-51832215D01*
X107448434Y-51805584D01*
X107448433Y-51805584D01*
X107443554Y-51802505D01*
X107247160Y-51724152D01*
X107241503Y-51723027D01*
X107241497Y-51723025D01*
X107045442Y-51684028D01*
X107045440Y-51684028D01*
X107039775Y-51682901D01*
X107034000Y-51682825D01*
X107033996Y-51682825D01*
X106927976Y-51681437D01*
X106828346Y-51680133D01*
X106822649Y-51681112D01*
X106822648Y-51681112D01*
X106625650Y-51714962D01*
X106625649Y-51714962D01*
X106619953Y-51715941D01*
X106421575Y-51789127D01*
X106416614Y-51792079D01*
X106416613Y-51792079D01*
X106268673Y-51880094D01*
X106239856Y-51897238D01*
X106080881Y-52036655D01*
X105949976Y-52202708D01*
X105947287Y-52207819D01*
X105947285Y-52207822D01*
X105897400Y-52302638D01*
X105851523Y-52389836D01*
X105788820Y-52591773D01*
X105788141Y-52597510D01*
X105774088Y-52716239D01*
X105746217Y-52781537D01*
X105687469Y-52821401D01*
X105616494Y-52823174D01*
X105555828Y-52786295D01*
X105524730Y-52722471D01*
X105523490Y-52712958D01*
X105519232Y-52666609D01*
X105515081Y-52621440D01*
X105512481Y-52612219D01*
X105459255Y-52423496D01*
X105457686Y-52417931D01*
X105448692Y-52399692D01*
X105366719Y-52233469D01*
X105364165Y-52228290D01*
X105237651Y-52058867D01*
X105110236Y-51941086D01*
X105086622Y-51919257D01*
X105086620Y-51919255D01*
X105082381Y-51915337D01*
X104950641Y-51832215D01*
X104908434Y-51805584D01*
X104908433Y-51805584D01*
X104903554Y-51802505D01*
X104707160Y-51724152D01*
X104701503Y-51723027D01*
X104701497Y-51723025D01*
X104505442Y-51684028D01*
X104505440Y-51684028D01*
X104499775Y-51682901D01*
X104494000Y-51682825D01*
X104493996Y-51682825D01*
X104387976Y-51681437D01*
X104288346Y-51680133D01*
X104282649Y-51681112D01*
X104282648Y-51681112D01*
X104085650Y-51714962D01*
X104085649Y-51714962D01*
X104079953Y-51715941D01*
X103881575Y-51789127D01*
X103876614Y-51792079D01*
X103876613Y-51792079D01*
X103728673Y-51880094D01*
X103699856Y-51897238D01*
X103540881Y-52036655D01*
X103409976Y-52202708D01*
X103407287Y-52207819D01*
X103407285Y-52207822D01*
X103357400Y-52302638D01*
X103311523Y-52389836D01*
X103248820Y-52591773D01*
X103248141Y-52597510D01*
X103234088Y-52716239D01*
X103206217Y-52781537D01*
X103147469Y-52821401D01*
X103076494Y-52823174D01*
X103015828Y-52786295D01*
X102984730Y-52722471D01*
X102983490Y-52712958D01*
X102979232Y-52666609D01*
X102975081Y-52621440D01*
X102972481Y-52612219D01*
X102919255Y-52423496D01*
X102917686Y-52417931D01*
X102908692Y-52399692D01*
X102826719Y-52233469D01*
X102824165Y-52228290D01*
X102697651Y-52058867D01*
X102570236Y-51941086D01*
X102546622Y-51919257D01*
X102546620Y-51919255D01*
X102542381Y-51915337D01*
X102410641Y-51832215D01*
X102368434Y-51805584D01*
X102368433Y-51805584D01*
X102363554Y-51802505D01*
X102167160Y-51724152D01*
X102161503Y-51723027D01*
X102161497Y-51723025D01*
X101965442Y-51684028D01*
X101965440Y-51684028D01*
X101959775Y-51682901D01*
X101954000Y-51682825D01*
X101953996Y-51682825D01*
X101847976Y-51681437D01*
X101748346Y-51680133D01*
X101742649Y-51681112D01*
X101742648Y-51681112D01*
X101545650Y-51714962D01*
X101545649Y-51714962D01*
X101539953Y-51715941D01*
X101341575Y-51789127D01*
X101336614Y-51792079D01*
X101336613Y-51792079D01*
X101188673Y-51880094D01*
X101159856Y-51897238D01*
X101000881Y-52036655D01*
X100869976Y-52202708D01*
X100867287Y-52207819D01*
X100867285Y-52207822D01*
X100793155Y-52348720D01*
X100743736Y-52399692D01*
X100674603Y-52415855D01*
X100607707Y-52392076D01*
X100566097Y-52340294D01*
X100501971Y-52192814D01*
X100497105Y-52183739D01*
X100381426Y-52004926D01*
X100375136Y-51996757D01*
X100231806Y-51839240D01*
X100224273Y-51832215D01*
X100057139Y-51700222D01*
X100048552Y-51694517D01*
X99862117Y-51591599D01*
X99852705Y-51587369D01*
X99651959Y-51516280D01*
X99641988Y-51513646D01*
X99570837Y-51500972D01*
X99557540Y-51502432D01*
X99553000Y-51516989D01*
X99553000Y-54150517D01*
X99557064Y-54164359D01*
X99570478Y-54166393D01*
X99577184Y-54165534D01*
X99587262Y-54163392D01*
X99791255Y-54102191D01*
X99800842Y-54098433D01*
X99992095Y-54004739D01*
X100000945Y-53999464D01*
X100174328Y-53875792D01*
X100182200Y-53869139D01*
X100333052Y-53718812D01*
X100339730Y-53710965D01*
X100464003Y-53538020D01*
X100469313Y-53529183D01*
X100563670Y-53338267D01*
X100567019Y-53329809D01*
X100610693Y-53273836D01*
X100677696Y-53250359D01*
X100746755Y-53266835D01*
X100798597Y-53323442D01*
X100807736Y-53343266D01*
X100838369Y-53409714D01*
X100960405Y-53582391D01*
X100964539Y-53586418D01*
X101104727Y-53722983D01*
X101111865Y-53729937D01*
X101116661Y-53733142D01*
X101116664Y-53733144D01*
X101213983Y-53798170D01*
X101287677Y-53847411D01*
X101292985Y-53849692D01*
X101292986Y-53849692D01*
X101312237Y-53857963D01*
X101366930Y-53903230D01*
X101388500Y-53973731D01*
X101388500Y-55119700D01*
X101368498Y-55187821D01*
X101314842Y-55234314D01*
X101262500Y-55245700D01*
X95115420Y-55245700D01*
X95100611Y-55244827D01*
X95076243Y-55241943D01*
X95066890Y-55240836D01*
X95057626Y-55242528D01*
X95057622Y-55242528D01*
X95009189Y-55251373D01*
X95005288Y-55252022D01*
X94956555Y-55259349D01*
X94956547Y-55259351D01*
X94947238Y-55260751D01*
X94940728Y-55263877D01*
X94933627Y-55265174D01*
X94881538Y-55292233D01*
X94878024Y-55293988D01*
X94825121Y-55319391D01*
X94819835Y-55324277D01*
X94819787Y-55324310D01*
X94813412Y-55327621D01*
X94808372Y-55331925D01*
X94771145Y-55369152D01*
X94767580Y-55372581D01*
X94725644Y-55411346D01*
X94721951Y-55417705D01*
X94716434Y-55423863D01*
X93492250Y-56648047D01*
X93481161Y-56657901D01*
X93461891Y-56673093D01*
X93461889Y-56673095D01*
X93454490Y-56678928D01*
X93449135Y-56686675D01*
X93449134Y-56686677D01*
X93421145Y-56727175D01*
X93418850Y-56730387D01*
X93383966Y-56777616D01*
X93381573Y-56784432D01*
X93377469Y-56790369D01*
X93360554Y-56843855D01*
X93359782Y-56846295D01*
X93358529Y-56850050D01*
X93352275Y-56867861D01*
X93339081Y-56905431D01*
X93338799Y-56912619D01*
X93338788Y-56912678D01*
X93336620Y-56919530D01*
X93336100Y-56926137D01*
X93336100Y-56978816D01*
X93336003Y-56983762D01*
X93333762Y-57040794D01*
X93335646Y-57047900D01*
X93336100Y-57056147D01*
X93336100Y-61855380D01*
X93335227Y-61870189D01*
X93331236Y-61903910D01*
X93332928Y-61913174D01*
X93332928Y-61913175D01*
X93341772Y-61961601D01*
X93342422Y-61965504D01*
X93351151Y-62023562D01*
X93354279Y-62030075D01*
X93355575Y-62037173D01*
X93382625Y-62089247D01*
X93384368Y-62092737D01*
X93409791Y-62145679D01*
X93414677Y-62150965D01*
X93414710Y-62151013D01*
X93418021Y-62157388D01*
X93422325Y-62162428D01*
X93459552Y-62199655D01*
X93462981Y-62203220D01*
X93501746Y-62245156D01*
X93508105Y-62248849D01*
X93514263Y-62254366D01*
X94419247Y-63159350D01*
X94429101Y-63170439D01*
X94443433Y-63188618D01*
X94450128Y-63197110D01*
X94457876Y-63202465D01*
X94457878Y-63202467D01*
X94498400Y-63230474D01*
X94501619Y-63232774D01*
X94536885Y-63258821D01*
X94548817Y-63267634D01*
X94555631Y-63270027D01*
X94561569Y-63274131D01*
X94567620Y-63276045D01*
X94618798Y-63322884D01*
X94636941Y-63391523D01*
X94615096Y-63459076D01*
X94560197Y-63504093D01*
X94510988Y-63514100D01*
X93690379Y-63514100D01*
X93673933Y-63513022D01*
X93652589Y-63510212D01*
X93652588Y-63510212D01*
X93644400Y-63509134D01*
X93606680Y-63514100D01*
X93494164Y-63528913D01*
X93436176Y-63552933D01*
X93361799Y-63583740D01*
X93361798Y-63583741D01*
X93354168Y-63586901D01*
X93264132Y-63655988D01*
X93264129Y-63655991D01*
X93233949Y-63679149D01*
X93224178Y-63691883D01*
X93215817Y-63702779D01*
X93204950Y-63715170D01*
X91515095Y-65405025D01*
X91452783Y-65439051D01*
X91381968Y-65433986D01*
X91325132Y-65391439D01*
X91300321Y-65324919D01*
X91300000Y-65315930D01*
X91300000Y-52124288D01*
X92171404Y-52124288D01*
X92171985Y-52129308D01*
X92171985Y-52129312D01*
X92179952Y-52198171D01*
X92200081Y-52372140D01*
X92268017Y-52612219D01*
X92308592Y-52699232D01*
X92365560Y-52821401D01*
X92373462Y-52838348D01*
X92376304Y-52842529D01*
X92376304Y-52842530D01*
X92410901Y-52893437D01*
X92513706Y-53044710D01*
X92685138Y-53225994D01*
X92689164Y-53229072D01*
X92689165Y-53229073D01*
X92784491Y-53301955D01*
X92883349Y-53377538D01*
X93103239Y-53495443D01*
X93339152Y-53576674D01*
X93467099Y-53598774D01*
X93581107Y-53618467D01*
X93581113Y-53618468D01*
X93585017Y-53619142D01*
X93588978Y-53619322D01*
X93588979Y-53619322D01*
X93613503Y-53620436D01*
X93613522Y-53620436D01*
X93614922Y-53620500D01*
X93788691Y-53620500D01*
X93791199Y-53620298D01*
X93791204Y-53620298D01*
X93969661Y-53605940D01*
X93969666Y-53605939D01*
X93974702Y-53605534D01*
X93979610Y-53604329D01*
X93979613Y-53604328D01*
X94212092Y-53547225D01*
X94217006Y-53546018D01*
X94221658Y-53544043D01*
X94221662Y-53544042D01*
X94442022Y-53450505D01*
X94442023Y-53450505D01*
X94446677Y-53448529D01*
X94657808Y-53315573D01*
X94755923Y-53229073D01*
X94841168Y-53153920D01*
X94841171Y-53153917D01*
X94844965Y-53150572D01*
X94886533Y-53099966D01*
X97967257Y-53099966D01*
X97997565Y-53234446D01*
X98000645Y-53244275D01*
X98080770Y-53441603D01*
X98085413Y-53450794D01*
X98196694Y-53632388D01*
X98202777Y-53640699D01*
X98342213Y-53801667D01*
X98349580Y-53808883D01*
X98513434Y-53944916D01*
X98521881Y-53950831D01*
X98705756Y-54058279D01*
X98715042Y-54062729D01*
X98914001Y-54138703D01*
X98923899Y-54141579D01*
X99027250Y-54162606D01*
X99041299Y-54161410D01*
X99045000Y-54151065D01*
X99045000Y-53104115D01*
X99040525Y-53088876D01*
X99039135Y-53087671D01*
X99031452Y-53086000D01*
X97982225Y-53086000D01*
X97968694Y-53089973D01*
X97967257Y-53099966D01*
X94886533Y-53099966D01*
X95003334Y-52957770D01*
X95128840Y-52742128D01*
X95134903Y-52726335D01*
X95196379Y-52566183D01*
X97963389Y-52566183D01*
X97964912Y-52574607D01*
X97977292Y-52578000D01*
X99026885Y-52578000D01*
X99042124Y-52573525D01*
X99043329Y-52572135D01*
X99045000Y-52564452D01*
X99045000Y-51515102D01*
X99041082Y-51501758D01*
X99026806Y-51499771D01*
X98988324Y-51505660D01*
X98978288Y-51508051D01*
X98775868Y-51574212D01*
X98766359Y-51578209D01*
X98577463Y-51676542D01*
X98568738Y-51682036D01*
X98398433Y-51809905D01*
X98390726Y-51816748D01*
X98243590Y-51970717D01*
X98237104Y-51978727D01*
X98117098Y-52154649D01*
X98112000Y-52163623D01*
X98022338Y-52356783D01*
X98018775Y-52366470D01*
X97963389Y-52566183D01*
X95196379Y-52566183D01*
X95216443Y-52513915D01*
X95218255Y-52509195D01*
X95236159Y-52423496D01*
X95268243Y-52269915D01*
X95269278Y-52264961D01*
X95270944Y-52228290D01*
X95279645Y-52036655D01*
X95280596Y-52015712D01*
X95269648Y-51921084D01*
X95252501Y-51772890D01*
X95251919Y-51767860D01*
X95241138Y-51729759D01*
X95185360Y-51532648D01*
X95183983Y-51527781D01*
X95078538Y-51301652D01*
X94938294Y-51095290D01*
X94766862Y-50914006D01*
X94568651Y-50762462D01*
X94348761Y-50644557D01*
X94112848Y-50563326D01*
X93984901Y-50541226D01*
X93870893Y-50521533D01*
X93870887Y-50521532D01*
X93866983Y-50520858D01*
X93863022Y-50520678D01*
X93863021Y-50520678D01*
X93838497Y-50519564D01*
X93838478Y-50519564D01*
X93837078Y-50519500D01*
X93663309Y-50519500D01*
X93660801Y-50519702D01*
X93660796Y-50519702D01*
X93482339Y-50534060D01*
X93482334Y-50534061D01*
X93477298Y-50534466D01*
X93472390Y-50535671D01*
X93472387Y-50535672D01*
X93242392Y-50592165D01*
X93234994Y-50593982D01*
X93230342Y-50595957D01*
X93230338Y-50595958D01*
X93009978Y-50689495D01*
X93005323Y-50691471D01*
X92794192Y-50824427D01*
X92790398Y-50827772D01*
X92610832Y-50986080D01*
X92610829Y-50986083D01*
X92607035Y-50989428D01*
X92448666Y-51182230D01*
X92323160Y-51397872D01*
X92233745Y-51630805D01*
X92232712Y-51635751D01*
X92232710Y-51635757D01*
X92211289Y-51738295D01*
X92182722Y-51875039D01*
X92182493Y-51880088D01*
X92182492Y-51880094D01*
X92179892Y-51937354D01*
X92171404Y-52124288D01*
X91300000Y-52124288D01*
X91300000Y-49426000D01*
X91320002Y-49357879D01*
X91373658Y-49311386D01*
X91426000Y-49300000D01*
X125574000Y-49300000D01*
X125642121Y-49320002D01*
G37*
%TD.AperFunction*%
%TA.AperFunction,Conductor*%
G36*
X94999979Y-71058828D02*
G01*
X95011397Y-71072754D01*
X95023163Y-71089402D01*
X95133405Y-71245391D01*
X95284865Y-71392937D01*
X95289661Y-71396142D01*
X95289664Y-71396144D01*
X95370333Y-71450045D01*
X95460677Y-71510411D01*
X95465980Y-71512690D01*
X95465985Y-71512692D01*
X95482137Y-71519631D01*
X95518768Y-71535369D01*
X95573460Y-71580636D01*
X95594998Y-71648287D01*
X95576541Y-71716842D01*
X95523951Y-71764537D01*
X95508175Y-71770901D01*
X95488868Y-71777212D01*
X95479359Y-71781209D01*
X95290463Y-71879542D01*
X95281738Y-71885036D01*
X95111433Y-72012905D01*
X95103726Y-72019748D01*
X94956590Y-72173717D01*
X94950104Y-72181727D01*
X94830098Y-72357649D01*
X94825000Y-72366623D01*
X94735338Y-72559783D01*
X94731775Y-72569470D01*
X94676389Y-72769183D01*
X94677912Y-72777607D01*
X94690292Y-72781000D01*
X97330344Y-72781000D01*
X97343875Y-72777027D01*
X97345180Y-72767947D01*
X97303214Y-72600875D01*
X97299894Y-72591124D01*
X97214972Y-72395814D01*
X97210105Y-72386739D01*
X97094426Y-72207926D01*
X97088136Y-72199757D01*
X96944806Y-72042240D01*
X96937273Y-72035215D01*
X96770139Y-71903222D01*
X96761552Y-71897517D01*
X96575117Y-71794599D01*
X96565705Y-71790369D01*
X96514178Y-71772122D01*
X96456642Y-71730528D01*
X96430726Y-71664430D01*
X96444660Y-71594814D01*
X96494672Y-71543415D01*
X96509041Y-71535368D01*
X96666442Y-71447219D01*
X96829012Y-71312012D01*
X96964219Y-71149442D01*
X96978171Y-71124529D01*
X97028907Y-71074869D01*
X97098439Y-71060522D01*
X97164689Y-71086044D01*
X97177199Y-71097002D01*
X98129547Y-72049350D01*
X98139401Y-72060439D01*
X98154593Y-72079709D01*
X98160428Y-72087110D01*
X98168175Y-72092465D01*
X98168177Y-72092466D01*
X98208675Y-72120455D01*
X98211887Y-72122750D01*
X98259116Y-72157634D01*
X98265932Y-72160027D01*
X98271869Y-72164131D01*
X98280849Y-72166971D01*
X98280851Y-72166972D01*
X98301017Y-72173350D01*
X98327819Y-72181826D01*
X98331550Y-72183071D01*
X98378037Y-72199396D01*
X98378039Y-72199396D01*
X98386931Y-72202519D01*
X98394119Y-72202801D01*
X98394178Y-72202812D01*
X98401030Y-72204980D01*
X98407637Y-72205500D01*
X98460316Y-72205500D01*
X98465262Y-72205597D01*
X98522294Y-72207838D01*
X98529400Y-72205954D01*
X98537647Y-72205500D01*
X103129757Y-72205500D01*
X103197878Y-72225502D01*
X103244371Y-72279158D01*
X103254475Y-72349432D01*
X103224981Y-72414012D01*
X103218852Y-72420595D01*
X103176551Y-72462896D01*
X103166911Y-72475322D01*
X103090352Y-72604779D01*
X103084107Y-72619210D01*
X103045061Y-72753605D01*
X103045101Y-72767706D01*
X103052370Y-72771000D01*
X104698000Y-72771000D01*
X104766121Y-72791002D01*
X104812614Y-72844658D01*
X104824000Y-72897000D01*
X104824000Y-73153000D01*
X104803998Y-73221121D01*
X104750342Y-73267614D01*
X104698000Y-73279000D01*
X103058122Y-73279000D01*
X103044591Y-73282973D01*
X103043456Y-73290871D01*
X103084107Y-73430790D01*
X103090352Y-73445221D01*
X103166911Y-73574678D01*
X103176551Y-73587104D01*
X103282896Y-73693449D01*
X103301592Y-73707952D01*
X103299873Y-73710168D01*
X103339175Y-73752278D01*
X103351866Y-73822131D01*
X103327923Y-73883676D01*
X103297959Y-73924243D01*
X103297958Y-73924246D01*
X103292366Y-73931816D01*
X103247481Y-74059631D01*
X103244500Y-74091166D01*
X103244500Y-74097730D01*
X103224498Y-74165851D01*
X103207595Y-74186825D01*
X101909470Y-75484950D01*
X101897079Y-75495817D01*
X101873449Y-75513949D01*
X101850291Y-75544129D01*
X101850288Y-75544132D01*
X101803608Y-75604967D01*
X101781202Y-75634167D01*
X101723213Y-75774164D01*
X101708400Y-75886680D01*
X101708400Y-75886686D01*
X101703435Y-75924400D01*
X101704513Y-75932588D01*
X101704513Y-75932589D01*
X101707322Y-75953926D01*
X101708400Y-75970372D01*
X101708400Y-82162428D01*
X101707322Y-82178874D01*
X101703435Y-82208400D01*
X101708400Y-82246114D01*
X101708400Y-82246120D01*
X101723213Y-82358636D01*
X101781202Y-82498633D01*
X101850288Y-82588668D01*
X101850291Y-82588671D01*
X101873449Y-82618851D01*
X101879999Y-82623877D01*
X101897079Y-82636983D01*
X101909470Y-82647850D01*
X105044600Y-85782980D01*
X105078626Y-85845292D01*
X105073561Y-85916107D01*
X105031014Y-85972943D01*
X104964494Y-85997754D01*
X104930924Y-85995654D01*
X104774442Y-85964528D01*
X104774440Y-85964528D01*
X104768775Y-85963401D01*
X104763000Y-85963325D01*
X104762996Y-85963325D01*
X104656976Y-85961937D01*
X104557346Y-85960633D01*
X104551649Y-85961612D01*
X104551648Y-85961612D01*
X104354650Y-85995462D01*
X104354649Y-85995462D01*
X104348953Y-85996441D01*
X104150575Y-86069627D01*
X104145614Y-86072579D01*
X104145613Y-86072579D01*
X104011735Y-86152228D01*
X103968856Y-86177738D01*
X103964514Y-86181546D01*
X103959840Y-86184942D01*
X103958401Y-86182961D01*
X103903522Y-86208387D01*
X103833194Y-86198669D01*
X103779284Y-86152471D01*
X103771324Y-86138312D01*
X103758887Y-86112413D01*
X103758887Y-86112412D01*
X103754809Y-86103921D01*
X103749926Y-86098640D01*
X103749891Y-86098588D01*
X103746580Y-86092212D01*
X103742276Y-86087172D01*
X103705036Y-86049932D01*
X103701606Y-86046366D01*
X103669245Y-86011357D01*
X103669242Y-86011355D01*
X103662854Y-86004444D01*
X103656498Y-86000753D01*
X103650344Y-85995240D01*
X97878753Y-80223650D01*
X97868899Y-80212561D01*
X97853707Y-80193291D01*
X97853705Y-80193289D01*
X97847872Y-80185890D01*
X97840125Y-80180535D01*
X97840123Y-80180534D01*
X97799625Y-80152545D01*
X97796403Y-80150243D01*
X97756758Y-80120960D01*
X97756757Y-80120959D01*
X97749184Y-80115366D01*
X97742368Y-80112973D01*
X97736431Y-80108869D01*
X97727451Y-80106029D01*
X97727449Y-80106028D01*
X97707283Y-80099650D01*
X97680481Y-80091174D01*
X97676750Y-80089929D01*
X97630263Y-80073604D01*
X97630261Y-80073604D01*
X97621369Y-80070481D01*
X97614181Y-80070199D01*
X97614122Y-80070188D01*
X97607270Y-80068020D01*
X97600663Y-80067500D01*
X97547984Y-80067500D01*
X97543037Y-80067403D01*
X97486006Y-80065162D01*
X97478900Y-80067046D01*
X97470653Y-80067500D01*
X97288500Y-80067500D01*
X97220379Y-80047498D01*
X97173886Y-79993842D01*
X97162500Y-79941500D01*
X97162500Y-79623354D01*
X97159382Y-79597154D01*
X97113939Y-79494847D01*
X97034713Y-79415759D01*
X97024076Y-79411056D01*
X97024074Y-79411055D01*
X96955254Y-79380630D01*
X96932327Y-79370494D01*
X96906646Y-79367500D01*
X96796285Y-79367500D01*
X96728164Y-79347498D01*
X96681671Y-79293842D01*
X96671567Y-79223568D01*
X96701061Y-79158988D01*
X96723117Y-79138921D01*
X96887328Y-79021792D01*
X96895200Y-79015139D01*
X97046052Y-78864812D01*
X97052730Y-78856965D01*
X97177003Y-78684020D01*
X97182313Y-78675183D01*
X97276670Y-78484267D01*
X97280469Y-78474672D01*
X97342377Y-78270910D01*
X97344555Y-78260837D01*
X97345986Y-78249962D01*
X97343775Y-78235778D01*
X97330617Y-78232000D01*
X94695225Y-78232000D01*
X94681694Y-78235973D01*
X94680257Y-78245966D01*
X94710565Y-78380446D01*
X94713645Y-78390275D01*
X94793770Y-78587603D01*
X94798413Y-78596794D01*
X94909694Y-78778388D01*
X94915777Y-78786699D01*
X95055213Y-78947667D01*
X95062580Y-78954883D01*
X95226434Y-79090916D01*
X95234876Y-79096828D01*
X95296284Y-79132712D01*
X95345007Y-79184351D01*
X95358078Y-79254134D01*
X95331346Y-79319906D01*
X95273299Y-79360784D01*
X95232713Y-79367500D01*
X95117354Y-79367500D01*
X95113650Y-79367941D01*
X95113647Y-79367941D01*
X95106254Y-79368821D01*
X95091154Y-79370618D01*
X95082514Y-79374456D01*
X95082513Y-79374456D01*
X95000117Y-79411055D01*
X94988847Y-79416061D01*
X94909759Y-79495287D01*
X94864494Y-79597673D01*
X94861500Y-79623354D01*
X94861500Y-81412646D01*
X94864618Y-81438846D01*
X94868456Y-81447486D01*
X94868456Y-81447487D01*
X94872308Y-81456159D01*
X94910061Y-81541153D01*
X94918294Y-81549372D01*
X94918295Y-81549373D01*
X94935732Y-81566779D01*
X94989287Y-81620241D01*
X94999924Y-81624944D01*
X94999926Y-81624945D01*
X95041716Y-81643420D01*
X95091673Y-81665506D01*
X95117354Y-81668500D01*
X96906646Y-81668500D01*
X96910350Y-81668059D01*
X96910353Y-81668059D01*
X96917746Y-81667179D01*
X96932846Y-81665382D01*
X97035153Y-81619939D01*
X97114241Y-81540713D01*
X97119452Y-81528928D01*
X97149734Y-81460430D01*
X97159506Y-81438327D01*
X97162500Y-81412646D01*
X97162500Y-81094500D01*
X97182502Y-81026379D01*
X97236158Y-80979886D01*
X97288500Y-80968500D01*
X97297207Y-80968500D01*
X97365328Y-80988502D01*
X97386302Y-81005405D01*
X102126690Y-85745793D01*
X102160716Y-85808105D01*
X102155651Y-85878920D01*
X102113104Y-85935756D01*
X102046584Y-85960567D01*
X102035955Y-85960877D01*
X102017346Y-85960633D01*
X102011649Y-85961612D01*
X102011648Y-85961612D01*
X101814650Y-85995462D01*
X101814649Y-85995462D01*
X101808953Y-85996441D01*
X101610575Y-86069627D01*
X101605614Y-86072579D01*
X101605613Y-86072579D01*
X101471735Y-86152228D01*
X101428856Y-86177738D01*
X101269881Y-86317155D01*
X101138976Y-86483208D01*
X101136289Y-86488316D01*
X101136285Y-86488322D01*
X101124024Y-86511627D01*
X101040523Y-86670336D01*
X100977820Y-86872273D01*
X100952967Y-87082254D01*
X100966796Y-87293249D01*
X100968217Y-87298845D01*
X100968218Y-87298850D01*
X100990784Y-87387700D01*
X101018845Y-87498190D01*
X101107369Y-87690214D01*
X101229405Y-87862891D01*
X101287592Y-87919574D01*
X101367385Y-87997305D01*
X101380865Y-88010437D01*
X101385661Y-88013642D01*
X101385664Y-88013644D01*
X101484092Y-88079411D01*
X101556677Y-88127911D01*
X101561985Y-88130192D01*
X101561986Y-88130192D01*
X101745650Y-88209100D01*
X101745653Y-88209101D01*
X101750953Y-88211378D01*
X101756582Y-88212652D01*
X101756583Y-88212652D01*
X101935368Y-88253107D01*
X101997395Y-88287650D01*
X102030899Y-88350243D01*
X102025245Y-88421014D01*
X101982226Y-88477494D01*
X101915501Y-88501749D01*
X101907560Y-88502000D01*
X101465228Y-88502000D01*
X101375453Y-88512864D01*
X101367925Y-88515844D01*
X101367923Y-88515845D01*
X101298832Y-88543200D01*
X101235217Y-88568387D01*
X101115078Y-88659578D01*
X101023887Y-88779717D01*
X101017034Y-88797027D01*
X100973102Y-88907987D01*
X100968364Y-88919953D01*
X100967391Y-88927994D01*
X100962775Y-88966138D01*
X100934734Y-89031362D01*
X100875882Y-89071072D01*
X100837688Y-89077000D01*
X99849070Y-89077000D01*
X99780949Y-89056998D01*
X99759975Y-89040095D01*
X92296105Y-81576225D01*
X92262079Y-81513913D01*
X92259200Y-81487130D01*
X92259200Y-77712183D01*
X94676389Y-77712183D01*
X94677912Y-77720607D01*
X94690292Y-77724000D01*
X95739885Y-77724000D01*
X95755124Y-77719525D01*
X95756329Y-77718135D01*
X95758000Y-77710452D01*
X95758000Y-77705885D01*
X96266000Y-77705885D01*
X96270475Y-77721124D01*
X96271865Y-77722329D01*
X96279548Y-77724000D01*
X97330344Y-77724000D01*
X97343875Y-77720027D01*
X97345180Y-77710947D01*
X97303214Y-77543875D01*
X97299894Y-77534124D01*
X97214972Y-77338814D01*
X97210105Y-77329739D01*
X97094426Y-77150926D01*
X97088136Y-77142757D01*
X96944806Y-76985240D01*
X96937273Y-76978215D01*
X96770139Y-76846222D01*
X96761552Y-76840517D01*
X96575117Y-76737599D01*
X96565705Y-76733369D01*
X96364959Y-76662280D01*
X96354988Y-76659646D01*
X96283837Y-76646972D01*
X96270540Y-76648432D01*
X96266000Y-76662989D01*
X96266000Y-77705885D01*
X95758000Y-77705885D01*
X95758000Y-76661102D01*
X95754082Y-76647758D01*
X95739806Y-76645771D01*
X95701324Y-76651660D01*
X95691288Y-76654051D01*
X95488868Y-76720212D01*
X95479359Y-76724209D01*
X95290463Y-76822542D01*
X95281738Y-76828036D01*
X95111433Y-76955905D01*
X95103726Y-76962748D01*
X94956590Y-77116717D01*
X94950104Y-77124727D01*
X94830098Y-77300649D01*
X94825000Y-77309623D01*
X94735338Y-77502783D01*
X94731775Y-77512470D01*
X94676389Y-77712183D01*
X92259200Y-77712183D01*
X92259200Y-73302966D01*
X94680257Y-73302966D01*
X94710565Y-73437446D01*
X94713645Y-73447275D01*
X94793770Y-73644603D01*
X94798413Y-73653794D01*
X94909694Y-73835388D01*
X94915777Y-73843699D01*
X95055213Y-74004667D01*
X95062580Y-74011883D01*
X95226434Y-74147916D01*
X95234881Y-74153831D01*
X95418756Y-74261279D01*
X95428042Y-74265729D01*
X95627001Y-74341703D01*
X95636899Y-74344579D01*
X95740250Y-74365606D01*
X95754299Y-74364410D01*
X95758000Y-74354065D01*
X95758000Y-74353517D01*
X96266000Y-74353517D01*
X96270064Y-74367359D01*
X96283478Y-74369393D01*
X96290184Y-74368534D01*
X96300262Y-74366392D01*
X96504255Y-74305191D01*
X96513842Y-74301433D01*
X96705095Y-74207739D01*
X96713945Y-74202464D01*
X96887328Y-74078792D01*
X96895200Y-74072139D01*
X97046052Y-73921812D01*
X97052730Y-73913965D01*
X97177003Y-73741020D01*
X97182313Y-73732183D01*
X97276670Y-73541267D01*
X97280469Y-73531672D01*
X97342377Y-73327910D01*
X97344555Y-73317837D01*
X97345986Y-73306962D01*
X97343775Y-73292778D01*
X97330617Y-73289000D01*
X96284115Y-73289000D01*
X96268876Y-73293475D01*
X96267671Y-73294865D01*
X96266000Y-73302548D01*
X96266000Y-74353517D01*
X95758000Y-74353517D01*
X95758000Y-73307115D01*
X95753525Y-73291876D01*
X95752135Y-73290671D01*
X95744452Y-73289000D01*
X94695225Y-73289000D01*
X94681694Y-73292973D01*
X94680257Y-73302966D01*
X92259200Y-73302966D01*
X92259200Y-71348500D01*
X92279202Y-71280379D01*
X92332858Y-71233886D01*
X92385200Y-71222500D01*
X92641038Y-71222500D01*
X92653974Y-71221277D01*
X92663881Y-71220341D01*
X92663884Y-71220340D01*
X92671526Y-71219618D01*
X92678772Y-71217074D01*
X92678774Y-71217073D01*
X92720652Y-71202366D01*
X92795085Y-71176227D01*
X92889141Y-71106756D01*
X92955819Y-71082373D01*
X93025095Y-71097910D01*
X93038859Y-71106756D01*
X93132915Y-71176227D01*
X93207348Y-71202366D01*
X93249226Y-71217073D01*
X93249228Y-71217074D01*
X93256474Y-71219618D01*
X93264116Y-71220340D01*
X93264119Y-71220341D01*
X93274026Y-71221277D01*
X93286962Y-71222500D01*
X93661038Y-71222500D01*
X93673974Y-71221277D01*
X93683881Y-71220341D01*
X93683884Y-71220340D01*
X93691526Y-71219618D01*
X93698772Y-71217074D01*
X93698774Y-71217073D01*
X93740652Y-71202366D01*
X93815085Y-71176227D01*
X93920423Y-71098423D01*
X93926018Y-71090848D01*
X93927464Y-71089402D01*
X93989777Y-71055379D01*
X94016557Y-71052500D01*
X94670480Y-71052500D01*
X94685289Y-71053373D01*
X94719010Y-71057364D01*
X94728274Y-71055672D01*
X94728275Y-71055672D01*
X94776701Y-71046828D01*
X94780604Y-71046178D01*
X94829345Y-71038850D01*
X94829346Y-71038850D01*
X94838662Y-71037449D01*
X94845175Y-71034321D01*
X94852273Y-71033025D01*
X94860636Y-71028681D01*
X94867686Y-71026267D01*
X94938613Y-71023125D01*
X94999979Y-71058828D01*
G37*
%TD.AperFunction*%
%TA.AperFunction,Conductor*%
G36*
X106104012Y-60244846D02*
G01*
X106110595Y-60250975D01*
X110369050Y-64509430D01*
X110379917Y-64521821D01*
X110398049Y-64545451D01*
X110428229Y-64568609D01*
X110428232Y-64568612D01*
X110478456Y-64607150D01*
X110518267Y-64637698D01*
X110584421Y-64665100D01*
X110640875Y-64688484D01*
X110658264Y-64695687D01*
X110666452Y-64696765D01*
X110748783Y-64707604D01*
X110770780Y-64710500D01*
X110770781Y-64710500D01*
X110770791Y-64710501D01*
X110800311Y-64714387D01*
X110808500Y-64715465D01*
X110816688Y-64714387D01*
X110816689Y-64714387D01*
X110838026Y-64711578D01*
X110854472Y-64710500D01*
X112592989Y-64710500D01*
X112661110Y-64730502D01*
X112707603Y-64784158D01*
X112717707Y-64854432D01*
X112688213Y-64919012D01*
X112682084Y-64925595D01*
X112680421Y-64927258D01*
X112672850Y-64932850D01*
X112667258Y-64940421D01*
X112597959Y-65034243D01*
X112597958Y-65034246D01*
X112592366Y-65041816D01*
X112547481Y-65169631D01*
X112544500Y-65201166D01*
X112544500Y-65608834D01*
X112547481Y-65640369D01*
X112592366Y-65768184D01*
X112597958Y-65775754D01*
X112597959Y-65775757D01*
X112656859Y-65855500D01*
X112672850Y-65877150D01*
X112680421Y-65882742D01*
X112680424Y-65882745D01*
X112756112Y-65938649D01*
X112799023Y-65995210D01*
X112804543Y-66065992D01*
X112770919Y-66128521D01*
X112756112Y-66141351D01*
X112680424Y-66197255D01*
X112680421Y-66197258D01*
X112672850Y-66202850D01*
X112667258Y-66210421D01*
X112597959Y-66304243D01*
X112597958Y-66304246D01*
X112592366Y-66311816D01*
X112547481Y-66439631D01*
X112544500Y-66471166D01*
X112544500Y-66878834D01*
X112547481Y-66910369D01*
X112592366Y-67038184D01*
X112597958Y-67045754D01*
X112597959Y-67045757D01*
X112656859Y-67125500D01*
X112672850Y-67147150D01*
X112680421Y-67152742D01*
X112680424Y-67152745D01*
X112756112Y-67208649D01*
X112799023Y-67265210D01*
X112804543Y-67335992D01*
X112770919Y-67398521D01*
X112756112Y-67411351D01*
X112680424Y-67467255D01*
X112680421Y-67467258D01*
X112672850Y-67472850D01*
X112667258Y-67480421D01*
X112597959Y-67574243D01*
X112597958Y-67574246D01*
X112592366Y-67581816D01*
X112547481Y-67709631D01*
X112544500Y-67741166D01*
X112544500Y-68148834D01*
X112547481Y-68180369D01*
X112592366Y-68308184D01*
X112597958Y-68315754D01*
X112597959Y-68315757D01*
X112637208Y-68368895D01*
X112672850Y-68417150D01*
X112680421Y-68422742D01*
X112680424Y-68422745D01*
X112756112Y-68478649D01*
X112799023Y-68535210D01*
X112804543Y-68605992D01*
X112770919Y-68668521D01*
X112756112Y-68681351D01*
X112680424Y-68737255D01*
X112680421Y-68737258D01*
X112672850Y-68742850D01*
X112667258Y-68750421D01*
X112597959Y-68844243D01*
X112597958Y-68844246D01*
X112592366Y-68851816D01*
X112547481Y-68979631D01*
X112544500Y-69011166D01*
X112544500Y-69418834D01*
X112547481Y-69450369D01*
X112592366Y-69578184D01*
X112597958Y-69585754D01*
X112597959Y-69585757D01*
X112614044Y-69607534D01*
X112672850Y-69687150D01*
X112680421Y-69692742D01*
X112680424Y-69692745D01*
X112756112Y-69748649D01*
X112799023Y-69805210D01*
X112804543Y-69875992D01*
X112770919Y-69938521D01*
X112756112Y-69951351D01*
X112680424Y-70007255D01*
X112680421Y-70007258D01*
X112672850Y-70012850D01*
X112667258Y-70020421D01*
X112597959Y-70114243D01*
X112597958Y-70114246D01*
X112592366Y-70121816D01*
X112547481Y-70249631D01*
X112544500Y-70281166D01*
X112544500Y-70688834D01*
X112547481Y-70720369D01*
X112592366Y-70848184D01*
X112597958Y-70855754D01*
X112597959Y-70855757D01*
X112652350Y-70929396D01*
X112672850Y-70957150D01*
X112680421Y-70962742D01*
X112680424Y-70962745D01*
X112756112Y-71018649D01*
X112799023Y-71075210D01*
X112804543Y-71145992D01*
X112770919Y-71208521D01*
X112756112Y-71221351D01*
X112680424Y-71277255D01*
X112680421Y-71277258D01*
X112672850Y-71282850D01*
X112667258Y-71290421D01*
X112597959Y-71384243D01*
X112597958Y-71384246D01*
X112592366Y-71391816D01*
X112547481Y-71519631D01*
X112544500Y-71551166D01*
X112544500Y-71958834D01*
X112547481Y-71990369D01*
X112592366Y-72118184D01*
X112597958Y-72125754D01*
X112597959Y-72125757D01*
X112652350Y-72199396D01*
X112672850Y-72227150D01*
X112680421Y-72232742D01*
X112680424Y-72232745D01*
X112756112Y-72288649D01*
X112799023Y-72345210D01*
X112804543Y-72415992D01*
X112770919Y-72478521D01*
X112756112Y-72491351D01*
X112680424Y-72547255D01*
X112680421Y-72547258D01*
X112672850Y-72552850D01*
X112667258Y-72560421D01*
X112597959Y-72654243D01*
X112597958Y-72654246D01*
X112592366Y-72661816D01*
X112547481Y-72789631D01*
X112544500Y-72821166D01*
X112544500Y-73228834D01*
X112547481Y-73260369D01*
X112592366Y-73388184D01*
X112597958Y-73395754D01*
X112597959Y-73395757D01*
X112660335Y-73480206D01*
X112672850Y-73497150D01*
X112680421Y-73502742D01*
X112680424Y-73502745D01*
X112756112Y-73558649D01*
X112799023Y-73615210D01*
X112804543Y-73685992D01*
X112770919Y-73748521D01*
X112756112Y-73761351D01*
X112680424Y-73817255D01*
X112680421Y-73817258D01*
X112672850Y-73822850D01*
X112667258Y-73830421D01*
X112597959Y-73924243D01*
X112597958Y-73924246D01*
X112592366Y-73931816D01*
X112547481Y-74059631D01*
X112544500Y-74091166D01*
X112544500Y-74498834D01*
X112547481Y-74530369D01*
X112592366Y-74658184D01*
X112597958Y-74665754D01*
X112597959Y-74665757D01*
X112660335Y-74750206D01*
X112672850Y-74767150D01*
X112678729Y-74771492D01*
X112712223Y-74832830D01*
X112707158Y-74903645D01*
X112664611Y-74960481D01*
X112599620Y-74984722D01*
X112598200Y-74984535D01*
X112590355Y-74985568D01*
X112590349Y-74985568D01*
X112560491Y-74989499D01*
X112560482Y-74989500D01*
X112560480Y-74989500D01*
X112447964Y-75004313D01*
X112307967Y-75062302D01*
X112217932Y-75131388D01*
X112217929Y-75131391D01*
X112187749Y-75154549D01*
X112182723Y-75161099D01*
X112169617Y-75178179D01*
X112158750Y-75190570D01*
X111893570Y-75455750D01*
X111881179Y-75466617D01*
X111857549Y-75484749D01*
X111834391Y-75514929D01*
X111834388Y-75514932D01*
X111795970Y-75565000D01*
X111765302Y-75604967D01*
X111707313Y-75744964D01*
X111692500Y-75857480D01*
X111692500Y-75857486D01*
X111687535Y-75895200D01*
X111688613Y-75903388D01*
X111688613Y-75903389D01*
X111691422Y-75924726D01*
X111692500Y-75941172D01*
X111692500Y-86044426D01*
X111672498Y-86112547D01*
X111630923Y-86152711D01*
X111588856Y-86177738D01*
X111429881Y-86317155D01*
X111298976Y-86483208D01*
X111296289Y-86488316D01*
X111296285Y-86488322D01*
X111284024Y-86511627D01*
X111200523Y-86670336D01*
X111137820Y-86872273D01*
X111137141Y-86878010D01*
X111123088Y-86996739D01*
X111095217Y-87062037D01*
X111036469Y-87101901D01*
X110965494Y-87103674D01*
X110904828Y-87066795D01*
X110873730Y-87002971D01*
X110872490Y-86993458D01*
X110864610Y-86907697D01*
X110864081Y-86901940D01*
X110857333Y-86878011D01*
X110824503Y-86761606D01*
X110806686Y-86698431D01*
X110802468Y-86689876D01*
X110715719Y-86513969D01*
X110713165Y-86508790D01*
X110586651Y-86339367D01*
X110431381Y-86195837D01*
X110426496Y-86192755D01*
X110257434Y-86086084D01*
X110257433Y-86086084D01*
X110252554Y-86083005D01*
X110056160Y-86004652D01*
X110050503Y-86003527D01*
X110050497Y-86003525D01*
X109854442Y-85964528D01*
X109854440Y-85964528D01*
X109848775Y-85963401D01*
X109843000Y-85963325D01*
X109842996Y-85963325D01*
X109736976Y-85961937D01*
X109637346Y-85960633D01*
X109631649Y-85961612D01*
X109631648Y-85961612D01*
X109621679Y-85963325D01*
X109490579Y-85985852D01*
X109420056Y-85977675D01*
X109380147Y-85950767D01*
X107537047Y-84107667D01*
X107503021Y-84045355D01*
X107508086Y-83974540D01*
X107550633Y-83917704D01*
X107569523Y-83906010D01*
X107577998Y-83901747D01*
X107657213Y-83834090D01*
X107701151Y-83796564D01*
X107701152Y-83796563D01*
X107706923Y-83791634D01*
X107805861Y-83653947D01*
X107841216Y-83566000D01*
X107866266Y-83503687D01*
X107866267Y-83503685D01*
X107869101Y-83496634D01*
X107885934Y-83378356D01*
X107892409Y-83332862D01*
X107892409Y-83332859D01*
X107892990Y-83328778D01*
X107893145Y-83314000D01*
X107872776Y-83145680D01*
X107839295Y-83057075D01*
X107815531Y-82994184D01*
X107815529Y-82994181D01*
X107812845Y-82987077D01*
X107785159Y-82946794D01*
X107763000Y-82875429D01*
X107763000Y-81966608D01*
X107783002Y-81898487D01*
X107836658Y-81851994D01*
X107906932Y-81841890D01*
X107920974Y-81844733D01*
X107959678Y-81854887D01*
X107959682Y-81854888D01*
X107967033Y-81856816D01*
X108053409Y-81858173D01*
X108128961Y-81859360D01*
X108128964Y-81859360D01*
X108136560Y-81859479D01*
X108143965Y-81857783D01*
X108143966Y-81857783D01*
X108213359Y-81841890D01*
X108301829Y-81821628D01*
X108453298Y-81745447D01*
X108543391Y-81668500D01*
X108576451Y-81640264D01*
X108576452Y-81640263D01*
X108582223Y-81635334D01*
X108681161Y-81497647D01*
X108683994Y-81490600D01*
X108741566Y-81347387D01*
X108741567Y-81347385D01*
X108744401Y-81340334D01*
X108766129Y-81187665D01*
X108767709Y-81176562D01*
X108767709Y-81176559D01*
X108768290Y-81172478D01*
X108768445Y-81157700D01*
X108748076Y-80989380D01*
X108695540Y-80850347D01*
X108690831Y-80837884D01*
X108690829Y-80837881D01*
X108688145Y-80830777D01*
X108660459Y-80790494D01*
X108638300Y-80719129D01*
X108638300Y-68241879D01*
X108639378Y-68225433D01*
X108642188Y-68204089D01*
X108642188Y-68204088D01*
X108643266Y-68195900D01*
X108632352Y-68112999D01*
X108623487Y-68045664D01*
X108614003Y-68022766D01*
X108596920Y-67981525D01*
X108568659Y-67913298D01*
X108565499Y-67905668D01*
X108496412Y-67815632D01*
X108496409Y-67815629D01*
X108473251Y-67785449D01*
X108449621Y-67767317D01*
X108437230Y-67756450D01*
X105928992Y-65248212D01*
X105894966Y-65185900D01*
X105894559Y-65183282D01*
X105893242Y-65177278D01*
X105892519Y-65169631D01*
X105847634Y-65041816D01*
X105842042Y-65034246D01*
X105842041Y-65034243D01*
X105772742Y-64940421D01*
X105767150Y-64932850D01*
X105759579Y-64927258D01*
X105759576Y-64927255D01*
X105683888Y-64871351D01*
X105640977Y-64814790D01*
X105635457Y-64744008D01*
X105669081Y-64681479D01*
X105683888Y-64668649D01*
X105759576Y-64612745D01*
X105759579Y-64612742D01*
X105767150Y-64607150D01*
X105793337Y-64571696D01*
X105842041Y-64505757D01*
X105842042Y-64505754D01*
X105847634Y-64498184D01*
X105892519Y-64370369D01*
X105895500Y-64338834D01*
X105895500Y-63931166D01*
X105892519Y-63899631D01*
X105847634Y-63771816D01*
X105842042Y-63764246D01*
X105842041Y-63764243D01*
X105772742Y-63670421D01*
X105767150Y-63662850D01*
X105759579Y-63657258D01*
X105759576Y-63657255D01*
X105683888Y-63601351D01*
X105640977Y-63544790D01*
X105635457Y-63474008D01*
X105669081Y-63411479D01*
X105683888Y-63398649D01*
X105759576Y-63342745D01*
X105759579Y-63342742D01*
X105767150Y-63337150D01*
X105787594Y-63309471D01*
X105842041Y-63235757D01*
X105842042Y-63235754D01*
X105847634Y-63228184D01*
X105892519Y-63100369D01*
X105895500Y-63068834D01*
X105895500Y-62661166D01*
X105892519Y-62629631D01*
X105847634Y-62501816D01*
X105842042Y-62494246D01*
X105842041Y-62494243D01*
X105772742Y-62400421D01*
X105767150Y-62392850D01*
X105759579Y-62387258D01*
X105759576Y-62387255D01*
X105683888Y-62331351D01*
X105640977Y-62274790D01*
X105635457Y-62204008D01*
X105669081Y-62141479D01*
X105683888Y-62128649D01*
X105759576Y-62072745D01*
X105759579Y-62072742D01*
X105767150Y-62067150D01*
X105787483Y-62039622D01*
X105842041Y-61965757D01*
X105842042Y-61965754D01*
X105847634Y-61958184D01*
X105892519Y-61830369D01*
X105895500Y-61798834D01*
X105895500Y-61391166D01*
X105892519Y-61359631D01*
X105847634Y-61231816D01*
X105842042Y-61224246D01*
X105842041Y-61224243D01*
X105772742Y-61130421D01*
X105767150Y-61122850D01*
X105759579Y-61117258D01*
X105759576Y-61117255D01*
X105683888Y-61061351D01*
X105640977Y-61004790D01*
X105635457Y-60934008D01*
X105669081Y-60871479D01*
X105683888Y-60858649D01*
X105759576Y-60802745D01*
X105759579Y-60802742D01*
X105767150Y-60797150D01*
X105825924Y-60717577D01*
X105842041Y-60695757D01*
X105842042Y-60695754D01*
X105847634Y-60688184D01*
X105892519Y-60560369D01*
X105895500Y-60528834D01*
X105895500Y-60340070D01*
X105915502Y-60271949D01*
X105969158Y-60225456D01*
X106039432Y-60215352D01*
X106104012Y-60244846D01*
G37*
%TD.AperFunction*%
%TA.AperFunction,Conductor*%
G36*
X113727351Y-77455502D02*
G01*
X113748325Y-77472405D01*
X114144947Y-77869027D01*
X114178523Y-77929351D01*
X114178766Y-77930385D01*
X114179599Y-77937935D01*
X114237866Y-78097156D01*
X114332430Y-78237883D01*
X114338042Y-78242990D01*
X114338045Y-78242993D01*
X114452212Y-78346877D01*
X114452216Y-78346880D01*
X114457833Y-78351991D01*
X114464506Y-78355614D01*
X114464510Y-78355617D01*
X114600158Y-78429267D01*
X114600160Y-78429268D01*
X114606835Y-78432892D01*
X114614184Y-78434820D01*
X114763483Y-78473988D01*
X114763485Y-78473988D01*
X114770833Y-78475916D01*
X114857209Y-78477273D01*
X114932761Y-78478460D01*
X114932764Y-78478460D01*
X114940360Y-78478579D01*
X115012272Y-78462109D01*
X115083137Y-78466398D01*
X115140435Y-78508320D01*
X115165973Y-78574565D01*
X115166400Y-78584929D01*
X115166400Y-78908777D01*
X115146398Y-78976898D01*
X115123229Y-79003726D01*
X115093304Y-79029831D01*
X114995813Y-79168547D01*
X114934224Y-79326513D01*
X114933232Y-79334046D01*
X114933232Y-79334047D01*
X114913089Y-79487055D01*
X114912094Y-79494611D01*
X114930699Y-79663135D01*
X114951554Y-79720123D01*
X114978718Y-79794351D01*
X114988966Y-79822356D01*
X115083530Y-79963083D01*
X115089142Y-79968190D01*
X115089145Y-79968193D01*
X115203312Y-80072077D01*
X115203316Y-80072080D01*
X115208933Y-80077191D01*
X115215606Y-80080814D01*
X115215610Y-80080817D01*
X115351258Y-80154467D01*
X115351260Y-80154468D01*
X115357935Y-80158092D01*
X115365284Y-80160020D01*
X115514583Y-80199188D01*
X115514585Y-80199188D01*
X115521933Y-80201116D01*
X115608309Y-80202473D01*
X115683861Y-80203660D01*
X115683864Y-80203660D01*
X115691460Y-80203779D01*
X115698865Y-80202083D01*
X115698866Y-80202083D01*
X115762571Y-80187493D01*
X115833438Y-80191783D01*
X115890736Y-80233705D01*
X115916273Y-80299950D01*
X115916700Y-80310313D01*
X115916700Y-81591230D01*
X115896698Y-81659351D01*
X115879795Y-81680325D01*
X114433570Y-83126550D01*
X114421179Y-83137417D01*
X114397549Y-83155549D01*
X114374391Y-83185729D01*
X114374388Y-83185732D01*
X114329959Y-83243633D01*
X114305302Y-83275767D01*
X114247313Y-83415764D01*
X114232500Y-83528280D01*
X114232500Y-83528286D01*
X114227535Y-83566000D01*
X114228613Y-83574188D01*
X114228613Y-83574189D01*
X114231422Y-83595526D01*
X114232500Y-83611972D01*
X114232500Y-86044426D01*
X114212498Y-86112547D01*
X114170923Y-86152711D01*
X114128856Y-86177738D01*
X113969881Y-86317155D01*
X113838976Y-86483208D01*
X113836289Y-86488316D01*
X113836285Y-86488322D01*
X113824024Y-86511627D01*
X113740523Y-86670336D01*
X113677820Y-86872273D01*
X113677141Y-86878010D01*
X113663088Y-86996739D01*
X113635217Y-87062037D01*
X113576469Y-87101901D01*
X113505494Y-87103674D01*
X113444828Y-87066795D01*
X113413730Y-87002971D01*
X113412490Y-86993458D01*
X113404610Y-86907697D01*
X113404081Y-86901940D01*
X113397333Y-86878011D01*
X113364503Y-86761606D01*
X113346686Y-86698431D01*
X113342468Y-86689876D01*
X113255719Y-86513969D01*
X113253165Y-86508790D01*
X113126651Y-86339367D01*
X113019299Y-86240132D01*
X112975621Y-86199756D01*
X112975618Y-86199754D01*
X112971381Y-86195837D01*
X112902265Y-86152228D01*
X112855326Y-86098961D01*
X112843500Y-86045666D01*
X112843500Y-77561500D01*
X112863502Y-77493379D01*
X112917158Y-77446886D01*
X112969500Y-77435500D01*
X113659230Y-77435500D01*
X113727351Y-77455502D01*
G37*
%TD.AperFunction*%
%TA.AperFunction,Conductor*%
G36*
X116351144Y-82940902D02*
G01*
X116407980Y-82983449D01*
X116432486Y-83049152D01*
X116432294Y-83050611D01*
X116450899Y-83219135D01*
X116509166Y-83378356D01*
X116603730Y-83519083D01*
X116609342Y-83524190D01*
X116609345Y-83524193D01*
X116723512Y-83628077D01*
X116723516Y-83628080D01*
X116729133Y-83633191D01*
X116735806Y-83636814D01*
X116735810Y-83636817D01*
X116871458Y-83710467D01*
X116871460Y-83710468D01*
X116878135Y-83714092D01*
X116885484Y-83716020D01*
X117034783Y-83755188D01*
X117034785Y-83755188D01*
X117042133Y-83757116D01*
X117128509Y-83758473D01*
X117204061Y-83759660D01*
X117204064Y-83759660D01*
X117211660Y-83759779D01*
X117219065Y-83758083D01*
X117219066Y-83758083D01*
X117282771Y-83743493D01*
X117353638Y-83747783D01*
X117410936Y-83789705D01*
X117436473Y-83855950D01*
X117436900Y-83866313D01*
X117436900Y-85835324D01*
X117416898Y-85903445D01*
X117363242Y-85949938D01*
X117309251Y-85961313D01*
X117257346Y-85960633D01*
X117251649Y-85961612D01*
X117251648Y-85961612D01*
X117054650Y-85995462D01*
X117054649Y-85995462D01*
X117048953Y-85996441D01*
X116850575Y-86069627D01*
X116845614Y-86072579D01*
X116845613Y-86072579D01*
X116711735Y-86152228D01*
X116668856Y-86177738D01*
X116509881Y-86317155D01*
X116378976Y-86483208D01*
X116376289Y-86488316D01*
X116376285Y-86488322D01*
X116364024Y-86511627D01*
X116280523Y-86670336D01*
X116217820Y-86872273D01*
X116217141Y-86878010D01*
X116203088Y-86996739D01*
X116175217Y-87062037D01*
X116116469Y-87101901D01*
X116045494Y-87103674D01*
X115984828Y-87066795D01*
X115953730Y-87002971D01*
X115952490Y-86993458D01*
X115944610Y-86907697D01*
X115944081Y-86901940D01*
X115937333Y-86878011D01*
X115904503Y-86761606D01*
X115886686Y-86698431D01*
X115882468Y-86689876D01*
X115795719Y-86513969D01*
X115793165Y-86508790D01*
X115666651Y-86339367D01*
X115559299Y-86240132D01*
X115515621Y-86199756D01*
X115515618Y-86199754D01*
X115511381Y-86195837D01*
X115442265Y-86152228D01*
X115395326Y-86098961D01*
X115383500Y-86045666D01*
X115383500Y-83856570D01*
X115403502Y-83788449D01*
X115420405Y-83767475D01*
X116218017Y-82969863D01*
X116280329Y-82935837D01*
X116351144Y-82940902D01*
G37*
%TD.AperFunction*%
%TA.AperFunction,Conductor*%
G36*
X99534328Y-68425502D02*
G01*
X99555302Y-68442405D01*
X101892247Y-70779350D01*
X101902101Y-70790439D01*
X101917293Y-70809709D01*
X101923128Y-70817110D01*
X101930875Y-70822465D01*
X101930877Y-70822466D01*
X101971375Y-70850455D01*
X101974587Y-70852750D01*
X102021816Y-70887634D01*
X102028632Y-70890027D01*
X102034569Y-70894131D01*
X102043549Y-70896971D01*
X102043551Y-70896972D01*
X102063717Y-70903350D01*
X102090519Y-70911826D01*
X102094250Y-70913071D01*
X102140737Y-70929396D01*
X102140739Y-70929396D01*
X102149631Y-70932519D01*
X102156819Y-70932801D01*
X102156878Y-70932812D01*
X102163730Y-70934980D01*
X102170337Y-70935500D01*
X102223016Y-70935500D01*
X102227962Y-70935597D01*
X102284994Y-70937838D01*
X102292100Y-70935954D01*
X102300344Y-70935500D01*
X103302050Y-70935500D01*
X103370171Y-70955502D01*
X103376909Y-70960149D01*
X103456112Y-71018649D01*
X103499023Y-71075210D01*
X103504543Y-71145991D01*
X103470919Y-71208521D01*
X103456112Y-71221351D01*
X103376909Y-71279851D01*
X103310231Y-71304234D01*
X103302050Y-71304500D01*
X98711093Y-71304500D01*
X98642972Y-71284498D01*
X98621998Y-71267595D01*
X97555053Y-70200650D01*
X97545199Y-70189561D01*
X97530007Y-70170291D01*
X97530005Y-70170289D01*
X97524172Y-70162890D01*
X97516425Y-70157535D01*
X97516423Y-70157534D01*
X97478751Y-70131498D01*
X97475915Y-70129538D01*
X97472703Y-70127243D01*
X97463347Y-70120332D01*
X97441448Y-70104157D01*
X97433058Y-70097960D01*
X97433057Y-70097959D01*
X97425484Y-70092366D01*
X97418668Y-70089973D01*
X97412731Y-70085869D01*
X97403751Y-70083029D01*
X97403749Y-70083028D01*
X97383583Y-70076650D01*
X97356781Y-70068174D01*
X97353050Y-70066929D01*
X97306563Y-70050604D01*
X97306561Y-70050604D01*
X97297669Y-70047481D01*
X97290481Y-70047199D01*
X97290422Y-70047188D01*
X97283570Y-70045020D01*
X97276963Y-70044500D01*
X97224284Y-70044500D01*
X97219337Y-70044403D01*
X97162306Y-70042162D01*
X97160671Y-70042595D01*
X97094782Y-70030902D01*
X97042682Y-69982673D01*
X97037853Y-69973797D01*
X96999720Y-69896471D01*
X96997165Y-69891290D01*
X96985742Y-69875992D01*
X96874104Y-69726491D01*
X96874103Y-69726490D01*
X96870651Y-69721867D01*
X96760957Y-69620467D01*
X96719622Y-69582257D01*
X96719620Y-69582255D01*
X96715381Y-69578337D01*
X96589786Y-69499092D01*
X96541434Y-69468584D01*
X96541433Y-69468584D01*
X96536554Y-69465505D01*
X96340160Y-69387152D01*
X96334503Y-69386027D01*
X96334497Y-69386025D01*
X96137234Y-69346788D01*
X96074324Y-69313881D01*
X96039192Y-69252186D01*
X96042992Y-69181291D01*
X96084517Y-69123705D01*
X96143734Y-69098513D01*
X96276015Y-69079333D01*
X96276019Y-69079332D01*
X96281730Y-69078504D01*
X96364540Y-69050394D01*
X96476483Y-69012395D01*
X96476488Y-69012393D01*
X96481955Y-69010537D01*
X96486998Y-69007713D01*
X96661395Y-68910046D01*
X96661399Y-68910043D01*
X96666442Y-68907219D01*
X96829012Y-68772012D01*
X96964219Y-68609442D01*
X97042349Y-68469931D01*
X97093083Y-68420272D01*
X97152281Y-68405500D01*
X99466207Y-68405500D01*
X99534328Y-68425502D01*
G37*
%TD.AperFunction*%
%TA.AperFunction,Conductor*%
G36*
X103420807Y-64685102D02*
G01*
X103467300Y-64738758D01*
X103477404Y-64809032D01*
X103447910Y-64873612D01*
X103427545Y-64892451D01*
X103380424Y-64927255D01*
X103380421Y-64927258D01*
X103372850Y-64932850D01*
X103367258Y-64940421D01*
X103297959Y-65034243D01*
X103297958Y-65034246D01*
X103292366Y-65041816D01*
X103247481Y-65169631D01*
X103244500Y-65201166D01*
X103244500Y-65608834D01*
X103247481Y-65640369D01*
X103292366Y-65768184D01*
X103297958Y-65775754D01*
X103297959Y-65775757D01*
X103356859Y-65855500D01*
X103372850Y-65877150D01*
X103380421Y-65882742D01*
X103380424Y-65882745D01*
X103456112Y-65938649D01*
X103499023Y-65995210D01*
X103504543Y-66065992D01*
X103470919Y-66128521D01*
X103456112Y-66141351D01*
X103380424Y-66197255D01*
X103380421Y-66197258D01*
X103372850Y-66202850D01*
X103367258Y-66210421D01*
X103297959Y-66304243D01*
X103297958Y-66304246D01*
X103292366Y-66311816D01*
X103247481Y-66439631D01*
X103244500Y-66471166D01*
X103244500Y-66878834D01*
X103247481Y-66910369D01*
X103292366Y-67038184D01*
X103297958Y-67045754D01*
X103297959Y-67045757D01*
X103356859Y-67125500D01*
X103372850Y-67147150D01*
X103380421Y-67152742D01*
X103380424Y-67152745D01*
X103456112Y-67208649D01*
X103499023Y-67265210D01*
X103504543Y-67335992D01*
X103470919Y-67398521D01*
X103456112Y-67411351D01*
X103380424Y-67467255D01*
X103380421Y-67467258D01*
X103372850Y-67472850D01*
X103367258Y-67480421D01*
X103297959Y-67574243D01*
X103297958Y-67574246D01*
X103292366Y-67581816D01*
X103247481Y-67709631D01*
X103244500Y-67741166D01*
X103244500Y-68148834D01*
X103247481Y-68180369D01*
X103292366Y-68308184D01*
X103297958Y-68315754D01*
X103297959Y-68315757D01*
X103337208Y-68368895D01*
X103372850Y-68417150D01*
X103380421Y-68422742D01*
X103380424Y-68422745D01*
X103456112Y-68478649D01*
X103499023Y-68535210D01*
X103504543Y-68605992D01*
X103470919Y-68668521D01*
X103456112Y-68681351D01*
X103380424Y-68737255D01*
X103380421Y-68737258D01*
X103372850Y-68742850D01*
X103367258Y-68750421D01*
X103297959Y-68844243D01*
X103297958Y-68844246D01*
X103292366Y-68851816D01*
X103247481Y-68979631D01*
X103244500Y-69011166D01*
X103244500Y-69418834D01*
X103247481Y-69450369D01*
X103292366Y-69578184D01*
X103297958Y-69585754D01*
X103297959Y-69585757D01*
X103314044Y-69607534D01*
X103372850Y-69687150D01*
X103380421Y-69692742D01*
X103380424Y-69692745D01*
X103456112Y-69748649D01*
X103499023Y-69805210D01*
X103504543Y-69875992D01*
X103470919Y-69938521D01*
X103456112Y-69951351D01*
X103376909Y-70009851D01*
X103310231Y-70034234D01*
X103302050Y-70034500D01*
X102473793Y-70034500D01*
X102405672Y-70014498D01*
X102384698Y-69997595D01*
X100047753Y-67660650D01*
X100037899Y-67649561D01*
X100022707Y-67630291D01*
X100022705Y-67630289D01*
X100016872Y-67622890D01*
X100009125Y-67617535D01*
X100009123Y-67617534D01*
X99983614Y-67599904D01*
X99968615Y-67589538D01*
X99965403Y-67587243D01*
X99959865Y-67583152D01*
X99934148Y-67564157D01*
X99925758Y-67557960D01*
X99925757Y-67557959D01*
X99918184Y-67552366D01*
X99911368Y-67549973D01*
X99905431Y-67545869D01*
X99896451Y-67543029D01*
X99896449Y-67543028D01*
X99869951Y-67534648D01*
X99849481Y-67528174D01*
X99845750Y-67526929D01*
X99799263Y-67510604D01*
X99799261Y-67510604D01*
X99790369Y-67507481D01*
X99783181Y-67507199D01*
X99783122Y-67507188D01*
X99776270Y-67505020D01*
X99769663Y-67504500D01*
X99716984Y-67504500D01*
X99712037Y-67504403D01*
X99655006Y-67502162D01*
X99647900Y-67504046D01*
X99639653Y-67504500D01*
X97151072Y-67504500D01*
X97082951Y-67484498D01*
X97038066Y-67434229D01*
X97021123Y-67399872D01*
X96997165Y-67351290D01*
X96985742Y-67335992D01*
X96874104Y-67186491D01*
X96874103Y-67186490D01*
X96870651Y-67181867D01*
X96757450Y-67077225D01*
X96719622Y-67042257D01*
X96719620Y-67042255D01*
X96715381Y-67038337D01*
X96652431Y-66998618D01*
X96541434Y-66928584D01*
X96541433Y-66928584D01*
X96536554Y-66925505D01*
X96340160Y-66847152D01*
X96334503Y-66846027D01*
X96334497Y-66846025D01*
X96178916Y-66815079D01*
X96116006Y-66782172D01*
X96080874Y-66720477D01*
X96084674Y-66649582D01*
X96126199Y-66591996D01*
X96192266Y-66566002D01*
X96203497Y-66565500D01*
X96906646Y-66565500D01*
X96910350Y-66565059D01*
X96910353Y-66565059D01*
X96917746Y-66564179D01*
X96932846Y-66562382D01*
X96988477Y-66537672D01*
X97024518Y-66521663D01*
X97035153Y-66516939D01*
X97114241Y-66437713D01*
X97159506Y-66335327D01*
X97162500Y-66309646D01*
X97162500Y-64791100D01*
X97182502Y-64722979D01*
X97236158Y-64676486D01*
X97288500Y-64665100D01*
X103352686Y-64665100D01*
X103420807Y-64685102D01*
G37*
%TD.AperFunction*%
%TA.AperFunction,Conductor*%
G36*
X119923300Y-61887502D02*
G01*
X119955541Y-61917320D01*
X120012445Y-61992287D01*
X120037699Y-62058640D01*
X120023071Y-62128113D01*
X119978386Y-62175612D01*
X119945480Y-62195975D01*
X119934085Y-62205006D01*
X119824702Y-62314580D01*
X119815690Y-62325991D01*
X119734447Y-62457791D01*
X119728303Y-62470968D01*
X119679421Y-62618343D01*
X119676555Y-62631710D01*
X119667386Y-62721200D01*
X119671475Y-62735124D01*
X119672865Y-62736329D01*
X119680548Y-62738000D01*
X120778000Y-62738000D01*
X120846121Y-62758002D01*
X120892614Y-62811658D01*
X120904000Y-62864000D01*
X120904000Y-63120000D01*
X120883998Y-63188121D01*
X120830342Y-63234614D01*
X120778000Y-63246000D01*
X119685115Y-63246000D01*
X119669876Y-63250475D01*
X119668671Y-63251865D01*
X119667158Y-63258821D01*
X119667337Y-63262282D01*
X119676804Y-63353521D01*
X119679697Y-63366917D01*
X119728830Y-63514187D01*
X119735004Y-63527366D01*
X119816470Y-63659014D01*
X119825506Y-63670415D01*
X119935080Y-63779798D01*
X119946491Y-63788810D01*
X120078291Y-63870053D01*
X120091471Y-63876198D01*
X120139013Y-63891967D01*
X120197373Y-63932397D01*
X120224611Y-63997961D01*
X120212078Y-64067842D01*
X120188442Y-64100655D01*
X119371502Y-64917595D01*
X119309190Y-64951621D01*
X119282407Y-64954500D01*
X118614569Y-64954500D01*
X118546448Y-64934498D01*
X118499955Y-64880842D01*
X118489851Y-64810568D01*
X118519345Y-64745988D01*
X118550431Y-64720046D01*
X118587496Y-64698126D01*
X118599926Y-64688484D01*
X118704484Y-64583926D01*
X118714124Y-64571499D01*
X118789396Y-64444220D01*
X118795643Y-64429784D01*
X118837312Y-64286359D01*
X118838768Y-64278391D01*
X118835948Y-64264969D01*
X118824487Y-64262000D01*
X117926000Y-64262000D01*
X117857879Y-64241998D01*
X117811386Y-64188342D01*
X117800000Y-64136000D01*
X117800000Y-63610115D01*
X117795526Y-63594876D01*
X117787488Y-63587912D01*
X117749104Y-63528186D01*
X117744000Y-63492687D01*
X117744000Y-63131885D01*
X118252000Y-63131885D01*
X118256474Y-63147124D01*
X118264512Y-63154088D01*
X118302896Y-63213814D01*
X118308000Y-63249313D01*
X118308000Y-63735885D01*
X118312475Y-63751124D01*
X118313865Y-63752329D01*
X118321548Y-63754000D01*
X118822424Y-63754000D01*
X118837219Y-63749656D01*
X118839063Y-63739225D01*
X118837312Y-63729641D01*
X118795643Y-63586216D01*
X118789396Y-63571780D01*
X118714124Y-63444501D01*
X118704484Y-63432074D01*
X118694451Y-63422041D01*
X118660425Y-63359729D01*
X118665490Y-63288914D01*
X118675092Y-63268807D01*
X118733396Y-63170220D01*
X118739643Y-63155784D01*
X118781312Y-63012359D01*
X118782768Y-63004391D01*
X118779948Y-62990969D01*
X118768487Y-62988000D01*
X118270115Y-62988000D01*
X118254876Y-62992475D01*
X118253671Y-62993865D01*
X118252000Y-63001548D01*
X118252000Y-63131885D01*
X117744000Y-63131885D01*
X117744000Y-62606000D01*
X117764002Y-62537879D01*
X117817658Y-62491386D01*
X117870000Y-62480000D01*
X118766424Y-62480000D01*
X118781219Y-62475656D01*
X118783063Y-62465225D01*
X118781312Y-62455641D01*
X118739643Y-62312216D01*
X118733396Y-62297780D01*
X118658124Y-62170501D01*
X118648484Y-62158074D01*
X118573005Y-62082595D01*
X118538979Y-62020283D01*
X118544044Y-61949468D01*
X118586591Y-61892632D01*
X118653111Y-61867821D01*
X118662100Y-61867500D01*
X119855179Y-61867500D01*
X119923300Y-61887502D01*
G37*
%TD.AperFunction*%
%TA.AperFunction,Conductor*%
G36*
X108224429Y-52850087D02*
G01*
X108284109Y-52888542D01*
X108313525Y-52953158D01*
X108314515Y-52962695D01*
X108317796Y-53012749D01*
X108319217Y-53018345D01*
X108319218Y-53018350D01*
X108341000Y-53104115D01*
X108369845Y-53217690D01*
X108372262Y-53222933D01*
X108416212Y-53318269D01*
X108458369Y-53409714D01*
X108580405Y-53582391D01*
X108584539Y-53586418D01*
X108724727Y-53722983D01*
X108731865Y-53729937D01*
X108736661Y-53733142D01*
X108736664Y-53733144D01*
X108833983Y-53798170D01*
X108907677Y-53847411D01*
X108912985Y-53849692D01*
X108912986Y-53849692D01*
X109096650Y-53928600D01*
X109096653Y-53928601D01*
X109101953Y-53930878D01*
X109107582Y-53932152D01*
X109107583Y-53932152D01*
X109302550Y-53976269D01*
X109302553Y-53976269D01*
X109308186Y-53977544D01*
X109313957Y-53977771D01*
X109313959Y-53977771D01*
X109375989Y-53980208D01*
X109519470Y-53985846D01*
X109525179Y-53985018D01*
X109525183Y-53985018D01*
X109648543Y-53967131D01*
X109728730Y-53955504D01*
X109734191Y-53953650D01*
X109734196Y-53953649D01*
X109791368Y-53934241D01*
X109827497Y-53921977D01*
X109898430Y-53919020D01*
X109957092Y-53952195D01*
X113382595Y-57377698D01*
X113416621Y-57440010D01*
X113419500Y-57466793D01*
X113419500Y-59598500D01*
X113399498Y-59666621D01*
X113345842Y-59713114D01*
X113293500Y-59724500D01*
X112941166Y-59724500D01*
X112923248Y-59726194D01*
X112917278Y-59726758D01*
X112917277Y-59726758D01*
X112909631Y-59727481D01*
X112781816Y-59772366D01*
X112774246Y-59777958D01*
X112774243Y-59777959D01*
X112689794Y-59840335D01*
X112672850Y-59852850D01*
X112667258Y-59860421D01*
X112597959Y-59954243D01*
X112597958Y-59954246D01*
X112592366Y-59961816D01*
X112547481Y-60089631D01*
X112544500Y-60121166D01*
X112544500Y-60528834D01*
X112547481Y-60560369D01*
X112592366Y-60688184D01*
X112597958Y-60695754D01*
X112597959Y-60695757D01*
X112614076Y-60717577D01*
X112672850Y-60797150D01*
X112680421Y-60802742D01*
X112680424Y-60802745D01*
X112756112Y-60858649D01*
X112799023Y-60915210D01*
X112804543Y-60985992D01*
X112770919Y-61048521D01*
X112756112Y-61061351D01*
X112680424Y-61117255D01*
X112680421Y-61117258D01*
X112672850Y-61122850D01*
X112667258Y-61130421D01*
X112597959Y-61224243D01*
X112597958Y-61224246D01*
X112592366Y-61231816D01*
X112547481Y-61359631D01*
X112544500Y-61391166D01*
X112544500Y-61798834D01*
X112547481Y-61830369D01*
X112592366Y-61958184D01*
X112597958Y-61965754D01*
X112597959Y-61965757D01*
X112652517Y-62039622D01*
X112672850Y-62067150D01*
X112680421Y-62072742D01*
X112680424Y-62072745D01*
X112756112Y-62128649D01*
X112799023Y-62185210D01*
X112804543Y-62255992D01*
X112770919Y-62318521D01*
X112756112Y-62331351D01*
X112680424Y-62387255D01*
X112680421Y-62387258D01*
X112672850Y-62392850D01*
X112667258Y-62400421D01*
X112597959Y-62494243D01*
X112597958Y-62494246D01*
X112592366Y-62501816D01*
X112547481Y-62629631D01*
X112544500Y-62661166D01*
X112544500Y-63068834D01*
X112547481Y-63100369D01*
X112592366Y-63228184D01*
X112597958Y-63235754D01*
X112597959Y-63235757D01*
X112652406Y-63309471D01*
X112672850Y-63337150D01*
X112680421Y-63342742D01*
X112682084Y-63344405D01*
X112716110Y-63406717D01*
X112711045Y-63477532D01*
X112668498Y-63534368D01*
X112601978Y-63559179D01*
X112592989Y-63559500D01*
X111099070Y-63559500D01*
X111030949Y-63539498D01*
X111009975Y-63522595D01*
X106653950Y-59166570D01*
X106643083Y-59154179D01*
X106629977Y-59137099D01*
X106624951Y-59130549D01*
X106594771Y-59107391D01*
X106594768Y-59107388D01*
X106504733Y-59038302D01*
X106504731Y-59038301D01*
X106364736Y-58980313D01*
X106252220Y-58965500D01*
X106252218Y-58965500D01*
X106252209Y-58965499D01*
X106222690Y-58961613D01*
X106222688Y-58961613D01*
X106214500Y-58960535D01*
X106206312Y-58961613D01*
X106206311Y-58961613D01*
X106184974Y-58964422D01*
X106168528Y-58965500D01*
X98294279Y-58965500D01*
X98277833Y-58964422D01*
X98256489Y-58961612D01*
X98256488Y-58961612D01*
X98248300Y-58960534D01*
X98210580Y-58965500D01*
X98098064Y-58980313D01*
X98040076Y-59004333D01*
X97965699Y-59035140D01*
X97965698Y-59035141D01*
X97958068Y-59038301D01*
X97868032Y-59107388D01*
X97868029Y-59107391D01*
X97837849Y-59130549D01*
X97832823Y-59137099D01*
X97819717Y-59154179D01*
X97808850Y-59166570D01*
X97372832Y-59602588D01*
X97310520Y-59636614D01*
X97239705Y-59631549D01*
X97182869Y-59589002D01*
X97162243Y-59546886D01*
X97160499Y-59540542D01*
X97159382Y-59531154D01*
X97113939Y-59428847D01*
X97034713Y-59349759D01*
X97024076Y-59345056D01*
X97024074Y-59345055D01*
X96940992Y-59308325D01*
X96940993Y-59308325D01*
X96932327Y-59304494D01*
X96906646Y-59301500D01*
X96796285Y-59301500D01*
X96728164Y-59281498D01*
X96681671Y-59227842D01*
X96671567Y-59157568D01*
X96701061Y-59092988D01*
X96723117Y-59072921D01*
X96887328Y-58955792D01*
X96895200Y-58949139D01*
X97046052Y-58798812D01*
X97052730Y-58790965D01*
X97177003Y-58618020D01*
X97182313Y-58609183D01*
X97276670Y-58418267D01*
X97280469Y-58408672D01*
X97342377Y-58204910D01*
X97344555Y-58194837D01*
X97345986Y-58183962D01*
X97343775Y-58169778D01*
X97330617Y-58166000D01*
X95884000Y-58166000D01*
X95815879Y-58145998D01*
X95769386Y-58092342D01*
X95758000Y-58040000D01*
X95758000Y-57784000D01*
X95778002Y-57715879D01*
X95831658Y-57669386D01*
X95884000Y-57658000D01*
X97330344Y-57658000D01*
X97343875Y-57654027D01*
X97345180Y-57644947D01*
X97303214Y-57477875D01*
X97299894Y-57468124D01*
X97237029Y-57323542D01*
X97228210Y-57253095D01*
X97258876Y-57189064D01*
X97319293Y-57151776D01*
X97352579Y-57147300D01*
X102882580Y-57147300D01*
X102897389Y-57148173D01*
X102931110Y-57152164D01*
X102940374Y-57150472D01*
X102940375Y-57150472D01*
X102988801Y-57141628D01*
X102992704Y-57140978D01*
X103041445Y-57133650D01*
X103041446Y-57133650D01*
X103050762Y-57132249D01*
X103057275Y-57129121D01*
X103064373Y-57127825D01*
X103116447Y-57100775D01*
X103119937Y-57099032D01*
X103172879Y-57073609D01*
X103178165Y-57068723D01*
X103178213Y-57068690D01*
X103184588Y-57065379D01*
X103189628Y-57061075D01*
X103226855Y-57023848D01*
X103230421Y-57020418D01*
X103265441Y-56988046D01*
X103272356Y-56981654D01*
X103276049Y-56975295D01*
X103281566Y-56969137D01*
X106332210Y-53918493D01*
X106394522Y-53884467D01*
X106471042Y-53891820D01*
X106556650Y-53928600D01*
X106556653Y-53928601D01*
X106561953Y-53930878D01*
X106567582Y-53932152D01*
X106567583Y-53932152D01*
X106762550Y-53976269D01*
X106762553Y-53976269D01*
X106768186Y-53977544D01*
X106773957Y-53977771D01*
X106773959Y-53977771D01*
X106835989Y-53980208D01*
X106979470Y-53985846D01*
X106985179Y-53985018D01*
X106985183Y-53985018D01*
X107183015Y-53956333D01*
X107183019Y-53956332D01*
X107188730Y-53955504D01*
X107275579Y-53926023D01*
X107383483Y-53889395D01*
X107383488Y-53889393D01*
X107388955Y-53887537D01*
X107394437Y-53884467D01*
X107568395Y-53787046D01*
X107568399Y-53787043D01*
X107573442Y-53784219D01*
X107736012Y-53649012D01*
X107871219Y-53486442D01*
X107874043Y-53481399D01*
X107874046Y-53481395D01*
X107971713Y-53306998D01*
X107971714Y-53306996D01*
X107974537Y-53301955D01*
X107976393Y-53296488D01*
X107976395Y-53296483D01*
X108040647Y-53107200D01*
X108040648Y-53107197D01*
X108042504Y-53101730D01*
X108050772Y-53044710D01*
X108064090Y-52952860D01*
X108093660Y-52888315D01*
X108153432Y-52850003D01*
X108224429Y-52850087D01*
G37*
%TD.AperFunction*%
%TA.AperFunction,Conductor*%
G36*
X115844429Y-52850087D02*
G01*
X115904109Y-52888542D01*
X115933525Y-52953158D01*
X115934515Y-52962695D01*
X115937796Y-53012749D01*
X115939217Y-53018345D01*
X115939218Y-53018350D01*
X115961000Y-53104115D01*
X115989845Y-53217690D01*
X115992262Y-53222933D01*
X116036212Y-53318269D01*
X116078369Y-53409714D01*
X116200405Y-53582391D01*
X116204539Y-53586418D01*
X116344727Y-53722983D01*
X116351865Y-53729937D01*
X116356661Y-53733142D01*
X116356664Y-53733144D01*
X116453983Y-53798170D01*
X116527677Y-53847411D01*
X116532985Y-53849692D01*
X116532986Y-53849692D01*
X116552237Y-53857963D01*
X116606930Y-53903230D01*
X116628500Y-53973731D01*
X116628500Y-53998080D01*
X116627627Y-54012889D01*
X116623636Y-54046610D01*
X116625328Y-54055874D01*
X116625328Y-54055875D01*
X116634172Y-54104301D01*
X116634822Y-54108204D01*
X116639408Y-54138703D01*
X116643551Y-54166262D01*
X116646679Y-54172775D01*
X116647975Y-54179873D01*
X116675025Y-54231947D01*
X116676768Y-54235437D01*
X116702191Y-54288379D01*
X116707077Y-54293665D01*
X116707110Y-54293713D01*
X116710421Y-54300088D01*
X116714725Y-54305128D01*
X116751952Y-54342355D01*
X116755381Y-54345920D01*
X116794146Y-54387856D01*
X116800505Y-54391549D01*
X116806663Y-54397066D01*
X121012995Y-58603398D01*
X121047021Y-58665710D01*
X121049900Y-58692493D01*
X121049900Y-60553000D01*
X121029898Y-60621121D01*
X120976242Y-60667614D01*
X120923900Y-60679000D01*
X120353406Y-60679000D01*
X120307450Y-60684561D01*
X120276766Y-60688274D01*
X120276764Y-60688274D01*
X120268727Y-60689247D01*
X120136452Y-60741619D01*
X120023133Y-60827633D01*
X120017945Y-60834468D01*
X120017940Y-60834473D01*
X119955541Y-60916680D01*
X119898423Y-60958847D01*
X119855179Y-60966500D01*
X118773946Y-60966500D01*
X118705825Y-60946498D01*
X118659332Y-60892842D01*
X118655064Y-60882249D01*
X118637349Y-60831804D01*
X118637348Y-60831802D01*
X118634227Y-60822915D01*
X118613980Y-60795502D01*
X118562018Y-60725152D01*
X118556423Y-60717577D01*
X118516628Y-60688184D01*
X118458663Y-60645370D01*
X118458662Y-60645369D01*
X118451085Y-60639773D01*
X118372341Y-60612120D01*
X118334774Y-60598927D01*
X118334772Y-60598926D01*
X118327526Y-60596382D01*
X118319884Y-60595660D01*
X118319881Y-60595659D01*
X118309974Y-60594723D01*
X118297038Y-60593500D01*
X117922962Y-60593500D01*
X117910026Y-60594723D01*
X117900119Y-60595659D01*
X117900116Y-60595660D01*
X117892474Y-60596382D01*
X117885228Y-60598926D01*
X117885226Y-60598927D01*
X117847659Y-60612120D01*
X117768915Y-60639773D01*
X117761338Y-60645369D01*
X117761337Y-60645370D01*
X117674859Y-60709244D01*
X117608181Y-60733627D01*
X117538905Y-60718090D01*
X117525141Y-60709244D01*
X117438663Y-60645370D01*
X117438662Y-60645369D01*
X117431085Y-60639773D01*
X117352341Y-60612120D01*
X117314774Y-60598927D01*
X117314772Y-60598926D01*
X117307526Y-60596382D01*
X117299884Y-60595660D01*
X117299881Y-60595659D01*
X117289974Y-60594723D01*
X117277038Y-60593500D01*
X116902962Y-60593500D01*
X116890026Y-60594723D01*
X116880119Y-60595659D01*
X116880116Y-60595660D01*
X116872474Y-60596382D01*
X116865228Y-60598926D01*
X116865226Y-60598927D01*
X116827659Y-60612120D01*
X116748915Y-60639773D01*
X116741338Y-60645369D01*
X116741337Y-60645370D01*
X116683372Y-60688184D01*
X116643577Y-60717577D01*
X116637982Y-60725152D01*
X116586021Y-60795502D01*
X116565773Y-60822915D01*
X116546557Y-60877634D01*
X116526760Y-60934008D01*
X116522382Y-60946474D01*
X116521660Y-60954116D01*
X116521659Y-60954119D01*
X116521212Y-60958847D01*
X116519500Y-60976962D01*
X116519500Y-60988853D01*
X116509909Y-61037070D01*
X116507782Y-61042207D01*
X116487809Y-61090425D01*
X116443261Y-61145706D01*
X116375897Y-61168127D01*
X116307106Y-61150569D01*
X116258728Y-61098607D01*
X116245400Y-61042207D01*
X116245400Y-57002720D01*
X116246273Y-56987911D01*
X116249157Y-56963543D01*
X116250264Y-56954190D01*
X116248572Y-56944926D01*
X116248572Y-56944922D01*
X116239727Y-56896489D01*
X116239078Y-56892588D01*
X116231751Y-56843855D01*
X116231749Y-56843847D01*
X116230349Y-56834538D01*
X116227223Y-56828028D01*
X116225926Y-56820927D01*
X116218294Y-56806235D01*
X116198882Y-56768863D01*
X116197114Y-56765325D01*
X116175786Y-56720911D01*
X116171709Y-56712421D01*
X116166822Y-56707135D01*
X116166795Y-56707095D01*
X116163480Y-56700712D01*
X116159175Y-56695672D01*
X116121948Y-56658445D01*
X116118518Y-56654879D01*
X116086146Y-56619859D01*
X116079754Y-56612944D01*
X116073395Y-56609251D01*
X116067237Y-56603734D01*
X115026405Y-55562902D01*
X114992379Y-55500590D01*
X114989500Y-55473807D01*
X114989500Y-53972281D01*
X115009502Y-53904160D01*
X115053930Y-53862350D01*
X115193442Y-53784219D01*
X115356012Y-53649012D01*
X115491219Y-53486442D01*
X115494043Y-53481399D01*
X115494046Y-53481395D01*
X115591713Y-53306998D01*
X115591714Y-53306996D01*
X115594537Y-53301955D01*
X115596393Y-53296488D01*
X115596395Y-53296483D01*
X115660647Y-53107200D01*
X115660648Y-53107197D01*
X115662504Y-53101730D01*
X115670772Y-53044710D01*
X115684090Y-52952860D01*
X115713660Y-52888315D01*
X115773432Y-52850003D01*
X115844429Y-52850087D01*
G37*
%TD.AperFunction*%
M02*
