%TF.GenerationSoftware,KiCad,Pcbnew,(6.0.0)*%
%TF.CreationDate,2022-01-19T10:56:36+01:00*%
%TF.ProjectId,CH423_ev_routed,43483432-335f-4657-965f-726f75746564,rev?*%
%TF.SameCoordinates,Original*%
%TF.FileFunction,Legend,Bot*%
%TF.FilePolarity,Positive*%
%FSLAX46Y46*%
G04 Gerber Fmt 4.6, Leading zero omitted, Abs format (unit mm)*
G04 Created by KiCad (PCBNEW (6.0.0)) date 2022-01-19 10:56:36*
%MOMM*%
%LPD*%
G01*
G04 APERTURE LIST*
G04 APERTURE END LIST*
G36*
X112037812Y-71893113D02*
G01*
X111813975Y-72193150D01*
X111747300Y-72483663D01*
X111844931Y-72759888D01*
X112123537Y-72869425D01*
X112375950Y-72781319D01*
X112633125Y-72557481D01*
X112769452Y-72416988D01*
X112911731Y-72266969D01*
X113062941Y-72116950D01*
X113226056Y-71976456D01*
X113402864Y-71852631D01*
X113595150Y-71752619D01*
X113804700Y-71686539D01*
X114033300Y-71664513D01*
X114133313Y-71662131D01*
X114252375Y-71674038D01*
X114252375Y-73598088D01*
X113766600Y-73598088D01*
X113766600Y-72331263D01*
X113609438Y-72381269D01*
X113440369Y-72502713D01*
X113278444Y-72655113D01*
X113142713Y-72797988D01*
X112904588Y-73040875D01*
X112647412Y-73255188D01*
X112373569Y-73407588D01*
X112080675Y-73464738D01*
X111711581Y-73388538D01*
X111447262Y-73183750D01*
X111290100Y-72888475D01*
X111237712Y-72540813D01*
X111261525Y-72292567D01*
X111332962Y-72043131D01*
X111454406Y-71807983D01*
X111628237Y-71602600D01*
X112037812Y-71893113D01*
G37*
G36*
X111507389Y-70245288D02*
G01*
X111735394Y-70054787D01*
X111977686Y-69869050D01*
X112223550Y-69692837D01*
X112468223Y-69528531D01*
X112706944Y-69378512D01*
X112930186Y-69248734D01*
X113128425Y-69145150D01*
X113557050Y-69145150D01*
X113557050Y-70373875D01*
X114252375Y-70373875D01*
X114252375Y-70959663D01*
X113557050Y-70959663D01*
X113557050Y-71278750D01*
X113076038Y-71278750D01*
X113076038Y-70959663D01*
X111304387Y-70959663D01*
X111304387Y-70435788D01*
X111370363Y-70373875D01*
X112037812Y-70373875D01*
X113076038Y-70373875D01*
X113076038Y-69707125D01*
X112804575Y-69850000D01*
X112530731Y-70019069D01*
X112271175Y-70197663D01*
X112037812Y-70373875D01*
X111370363Y-70373875D01*
X111507389Y-70245288D01*
G37*
G36*
X114252375Y-67435412D02*
G01*
X112952213Y-67435412D01*
X112952213Y-68216462D01*
X114252375Y-68216462D01*
X114252375Y-68802250D01*
X111304387Y-68802250D01*
X111304387Y-68216462D01*
X112466437Y-68216462D01*
X112466437Y-67435412D01*
X111304387Y-67435412D01*
X111304387Y-66849625D01*
X114252375Y-66849625D01*
X114252375Y-67435412D01*
G37*
G36*
X114204750Y-74121963D02*
G01*
X114257138Y-74329131D01*
X114297619Y-74562494D01*
X114314288Y-74793475D01*
X114297023Y-75068509D01*
X114245231Y-75303063D01*
X114161888Y-75498325D01*
X114049969Y-75655488D01*
X113752313Y-75860275D01*
X113376075Y-75926950D01*
X113136759Y-75895398D01*
X112933163Y-75800744D01*
X112770047Y-75648939D01*
X112652175Y-75445938D01*
X112404525Y-75712638D01*
X112066387Y-75812650D01*
X111737775Y-75755500D01*
X111473456Y-75579288D01*
X111299625Y-75276869D01*
X111253191Y-75077439D01*
X111237712Y-74845863D01*
X111259739Y-74592855D01*
X111325819Y-74367231D01*
X111499650Y-74026713D01*
X111928275Y-74236263D01*
X111792544Y-74519631D01*
X111737775Y-74850625D01*
X111830644Y-75119706D01*
X112085437Y-75217338D01*
X112266412Y-75172094D01*
X112380712Y-75055413D01*
X112442625Y-74893488D01*
X112461675Y-74712513D01*
X112461675Y-74493438D01*
X112947450Y-74493438D01*
X112947450Y-74674413D01*
X112970667Y-74935159D01*
X113040319Y-75145900D01*
X113168311Y-75285203D01*
X113366550Y-75331638D01*
X113685638Y-75210194D01*
X113782078Y-75044102D01*
X113814225Y-74788713D01*
X113801128Y-74563089D01*
X113761838Y-74371994D01*
X113661825Y-74088625D01*
X114152363Y-73974325D01*
X114204750Y-74121963D01*
G37*
G36*
X113123960Y-64403188D02*
G01*
X113429653Y-64464803D01*
X113693079Y-64567495D01*
X113914238Y-64711262D01*
X114136488Y-64963146D01*
X114269838Y-65280646D01*
X114314288Y-65663762D01*
X114298214Y-65923914D01*
X114249994Y-66151919D01*
X114109500Y-66487675D01*
X113647538Y-66340037D01*
X113752313Y-66099531D01*
X113804700Y-65720912D01*
X113737430Y-65380989D01*
X113535619Y-65151794D01*
X113330038Y-65055221D01*
X113072069Y-64997277D01*
X112761712Y-64977962D01*
X112495012Y-64994036D01*
X112275938Y-65042256D01*
X111963994Y-65208944D01*
X111797306Y-65442306D01*
X111747300Y-65711387D01*
X111797306Y-66066194D01*
X111918750Y-66330512D01*
X111452025Y-66482912D01*
X111394875Y-66385281D01*
X111323437Y-66225737D01*
X111263906Y-66004281D01*
X111237712Y-65720912D01*
X111263311Y-65441711D01*
X111340106Y-65185131D01*
X111466312Y-64956531D01*
X111640144Y-64761269D01*
X111859814Y-64602320D01*
X112123537Y-64482662D01*
X112429528Y-64407653D01*
X112776000Y-64382650D01*
X113123960Y-64403188D01*
G37*
G36*
X102176089Y-70775952D02*
G01*
X102658069Y-71322016D01*
X102299662Y-71586440D01*
X102234365Y-71634245D01*
X102014762Y-71788614D01*
X101910832Y-71850865D01*
X101857103Y-71797731D01*
X101695857Y-71602866D01*
X101470539Y-71314075D01*
X101060670Y-70777286D01*
X101377389Y-70503588D01*
X101694109Y-70229889D01*
X102176089Y-70775952D01*
G37*
G36*
X103630619Y-74557583D02*
G01*
X103844941Y-74651691D01*
X104193743Y-74813885D01*
X104627906Y-75021559D01*
X105616543Y-75500087D01*
X105370741Y-75845284D01*
X105291481Y-75949627D01*
X105089467Y-76116833D01*
X104872658Y-76114501D01*
X104802614Y-76088244D01*
X104533853Y-75964416D01*
X104171884Y-75782861D01*
X103792813Y-75583245D01*
X103472750Y-75405234D01*
X103287801Y-75288495D01*
X103280842Y-75265450D01*
X103318236Y-75097619D01*
X103408431Y-74855393D01*
X103511629Y-74637591D01*
X103588032Y-74543031D01*
X103630619Y-74557583D01*
G37*
G36*
X106294211Y-71434683D02*
G01*
X106426077Y-71632679D01*
X106486449Y-71792252D01*
X106529955Y-71988973D01*
X106484082Y-72128694D01*
X106319946Y-72225158D01*
X106008659Y-72292107D01*
X105521336Y-72343283D01*
X104829091Y-72392429D01*
X104568145Y-72409345D01*
X104126473Y-72432906D01*
X103852875Y-72430096D01*
X103701945Y-72393489D01*
X103628277Y-72315657D01*
X103586464Y-72189173D01*
X103555770Y-72070059D01*
X103527836Y-71868366D01*
X103586427Y-71739760D01*
X103768371Y-71663215D01*
X104110499Y-71617705D01*
X104649639Y-71582204D01*
X104933602Y-71563879D01*
X105429523Y-71522493D01*
X105824905Y-71477607D01*
X106053082Y-71436157D01*
X106088546Y-71426032D01*
X106294211Y-71434683D01*
G37*
G36*
X104561851Y-77051774D02*
G01*
X104552810Y-77258833D01*
X104486351Y-77390636D01*
X104304010Y-77459982D01*
X103947335Y-77510502D01*
X103748076Y-77532161D01*
X103279934Y-77569925D01*
X102893879Y-77585331D01*
X102850008Y-77585320D01*
X102584577Y-77564236D01*
X102475861Y-77467344D01*
X102454938Y-77240501D01*
X102461881Y-77099886D01*
X102510401Y-76974646D01*
X102638994Y-76888183D01*
X102886020Y-76826653D01*
X103289839Y-76776212D01*
X103888809Y-76723017D01*
X104561851Y-76666858D01*
X104561851Y-77051774D01*
G37*
G36*
X105290065Y-72814006D02*
G01*
X107539939Y-72845796D01*
X107687879Y-73138423D01*
X107766470Y-73389837D01*
X107821458Y-73817349D01*
X107832118Y-74294159D01*
X107797113Y-74727481D01*
X107715103Y-75024532D01*
X107707200Y-75038879D01*
X107525147Y-75240245D01*
X107209463Y-75395450D01*
X106709934Y-75529734D01*
X106467772Y-75561263D01*
X106303449Y-75481607D01*
X106153436Y-75233019D01*
X106126470Y-75178028D01*
X106022072Y-74939182D01*
X105995214Y-74827177D01*
X106003337Y-74822121D01*
X106157647Y-74769444D01*
X106434662Y-74693049D01*
X106508006Y-74673567D01*
X106734970Y-74579559D01*
X106838730Y-74414664D01*
X106880332Y-74097275D01*
X106916325Y-73606625D01*
X103040192Y-73606625D01*
X103040192Y-72782216D01*
X105290065Y-72814006D01*
G37*
G36*
X104386955Y-79329894D02*
G01*
X105030054Y-79342109D01*
X106317611Y-79342109D01*
X106317611Y-82736579D01*
X102689040Y-82736579D01*
X102689040Y-81039344D01*
X103508395Y-81039344D01*
X103509470Y-81347685D01*
X103522841Y-81670826D01*
X103564931Y-81840588D01*
X103652179Y-81906284D01*
X103801021Y-81917224D01*
X103903802Y-81913997D01*
X104011515Y-81873886D01*
X104068103Y-81747614D01*
X104090001Y-81485871D01*
X104093648Y-81039344D01*
X104913003Y-81039344D01*
X104914079Y-81347685D01*
X104927449Y-81670826D01*
X104969540Y-81840588D01*
X105056788Y-81906284D01*
X105205630Y-81917224D01*
X105308410Y-81913997D01*
X105416124Y-81873886D01*
X105472711Y-81747614D01*
X105494610Y-81485871D01*
X105498256Y-81039344D01*
X105497181Y-80731003D01*
X105483810Y-80407863D01*
X105441720Y-80238100D01*
X105354472Y-80172405D01*
X105205630Y-80161464D01*
X105102849Y-80164691D01*
X104995136Y-80204802D01*
X104938548Y-80331074D01*
X104916650Y-80592818D01*
X104913003Y-81039344D01*
X104093648Y-81039344D01*
X104092572Y-80731003D01*
X104079202Y-80407863D01*
X104037112Y-80238100D01*
X103949864Y-80172405D01*
X103801021Y-80161464D01*
X103698241Y-80164691D01*
X103590528Y-80204802D01*
X103533940Y-80331074D01*
X103512042Y-80592818D01*
X103508395Y-81039344D01*
X102689040Y-81039344D01*
X102689227Y-80664199D01*
X102692753Y-80112240D01*
X102705071Y-79739939D01*
X102731688Y-79511641D01*
X102778111Y-79391687D01*
X102849847Y-79344421D01*
X102952404Y-79334187D01*
X103111398Y-79325293D01*
X103120730Y-79289660D01*
X102923141Y-79194135D01*
X102715378Y-79098211D01*
X102591768Y-79036506D01*
X102597268Y-78963800D01*
X102683675Y-78766881D01*
X102725698Y-78681987D01*
X102732823Y-78592038D01*
X102630717Y-78544531D01*
X102377759Y-78525945D01*
X101932329Y-78522754D01*
X101050330Y-78522754D01*
X101050330Y-77703400D01*
X107839270Y-77703400D01*
X107839270Y-78522754D01*
X105586044Y-78531995D01*
X105233979Y-78533980D01*
X104521130Y-78543193D01*
X104021561Y-78559311D01*
X103720488Y-78583305D01*
X103603131Y-78616144D01*
X103654708Y-78658800D01*
X103856997Y-78754301D01*
X103971797Y-78903155D01*
X103859547Y-79049482D01*
X103759955Y-79127633D01*
X103761419Y-79225034D01*
X103801021Y-79237853D01*
X103967248Y-79291661D01*
X104386955Y-79329894D01*
G37*
G36*
X102250100Y-73387538D02*
G01*
X102371007Y-73521869D01*
X102653264Y-73846705D01*
X102849551Y-74089345D01*
X102923141Y-74205172D01*
X102923077Y-74206802D01*
X102831426Y-74320052D01*
X102618041Y-74481915D01*
X102469835Y-74572976D01*
X102318884Y-74608099D01*
X102156749Y-74520926D01*
X101905556Y-74290538D01*
X101803341Y-74189521D01*
X101497545Y-73860281D01*
X101260920Y-73569834D01*
X101023668Y-73240417D01*
X101577058Y-72646737D01*
X102250100Y-73387538D01*
G37*
G36*
X107166229Y-78756889D02*
G01*
X107546644Y-78756923D01*
X107546644Y-83321873D01*
X106785814Y-83321833D01*
X106785814Y-78756856D01*
X107166229Y-78756889D01*
G37*
G36*
X104767123Y-58858238D02*
G01*
X103977463Y-58448561D01*
X103976597Y-57362125D01*
X104736994Y-56968937D01*
X104787112Y-56942833D01*
X105146924Y-56743067D01*
X105401265Y-56580420D01*
X105497824Y-56487962D01*
X105497343Y-56486113D01*
X105372501Y-56458959D01*
X105051835Y-56435369D01*
X104571285Y-56416762D01*
X103966791Y-56404557D01*
X103274293Y-56400174D01*
X101050330Y-56400174D01*
X101050330Y-55463768D01*
X107839270Y-55463768D01*
X107839270Y-56479403D01*
X106434662Y-57151389D01*
X106311753Y-57210524D01*
X105809613Y-57459589D01*
X105402571Y-57673361D01*
X105129695Y-57830726D01*
X105030054Y-57910565D01*
X105035031Y-57920238D01*
X105176255Y-58017493D01*
X105482814Y-58186086D01*
X105915389Y-58405205D01*
X106434662Y-58654039D01*
X107839270Y-59310323D01*
X107839270Y-60379897D01*
X106519790Y-60379897D01*
X106845774Y-60701787D01*
X107010765Y-60882856D01*
X107415294Y-61538487D01*
X107689037Y-62349127D01*
X107817697Y-63276902D01*
X107868627Y-64242570D01*
X104913003Y-64242570D01*
X104913003Y-67168837D01*
X107839270Y-67168837D01*
X107839270Y-68222294D01*
X101050330Y-68222294D01*
X101050330Y-67168837D01*
X103976597Y-67168837D01*
X103976597Y-64242570D01*
X101021695Y-64242570D01*
X101068739Y-63306165D01*
X101968135Y-63306165D01*
X104376975Y-63306165D01*
X104889808Y-63306478D01*
X105621805Y-63303786D01*
X106155317Y-63287001D01*
X106513036Y-63244490D01*
X106717653Y-63164622D01*
X106791859Y-63035766D01*
X106758345Y-62846290D01*
X106639802Y-62584562D01*
X106458922Y-62238951D01*
X106110326Y-61708545D01*
X105576287Y-61203051D01*
X104960121Y-60877049D01*
X104297638Y-60748287D01*
X103624652Y-60834509D01*
X103581817Y-60848161D01*
X103083101Y-61130464D01*
X102640581Y-61600682D01*
X102285462Y-62217156D01*
X102048949Y-62938223D01*
X101968135Y-63306165D01*
X101068739Y-63306165D01*
X101073149Y-63218376D01*
X101114784Y-62711651D01*
X101270563Y-61939225D01*
X101545399Y-61305294D01*
X101957109Y-60760312D01*
X102314761Y-60379897D01*
X101050330Y-60379897D01*
X101050330Y-59331496D01*
X104297638Y-59285681D01*
X105556782Y-59267916D01*
X104767123Y-58858238D01*
G37*
G36*
X103553371Y-69751513D02*
G01*
X103723222Y-69873380D01*
X103985941Y-70142054D01*
X104177042Y-70345816D01*
X104367130Y-70552441D01*
X104441874Y-70639534D01*
X104433317Y-70648724D01*
X104296850Y-70740152D01*
X104046260Y-70892379D01*
X103647720Y-71127524D01*
X103285430Y-70676703D01*
X103163588Y-70519421D01*
X102990942Y-70269663D01*
X102923141Y-70129079D01*
X103012500Y-70006557D01*
X103228038Y-69847275D01*
X103229898Y-69846147D01*
X103410794Y-69750939D01*
X103553371Y-69751513D01*
G37*
G36*
X107417440Y-69960581D02*
G01*
X107461974Y-70005948D01*
X107647116Y-70217033D01*
X107722220Y-70343099D01*
X107719499Y-70353969D01*
X107574654Y-70459400D01*
X107217386Y-70623037D01*
X106658831Y-70840191D01*
X105910123Y-71106174D01*
X105092958Y-71387132D01*
X104888532Y-71121533D01*
X104744806Y-70908588D01*
X104710790Y-70717415D01*
X104867053Y-70583027D01*
X105234892Y-70465056D01*
X105502687Y-70383497D01*
X105987508Y-70199710D01*
X106451772Y-69989175D01*
X107112661Y-69655802D01*
X107417440Y-69960581D01*
G37*
G36*
X102220837Y-83204782D02*
G01*
X101401482Y-83204782D01*
X101401482Y-78990957D01*
X102220837Y-78990957D01*
X102220837Y-83204782D01*
G37*
G36*
X119953088Y-80570388D02*
G01*
X118845012Y-80570388D01*
X118814850Y-80732313D01*
X118806912Y-80894238D01*
X118810087Y-80979963D01*
X118821200Y-81084738D01*
X118838662Y-81191100D01*
X118857712Y-81281588D01*
X118495762Y-81351438D01*
X118465600Y-81229200D01*
X118446550Y-81094263D01*
X118435437Y-80968850D01*
X118432262Y-80878363D01*
X118440994Y-80673178D01*
X118467187Y-80495775D01*
X118507669Y-80334247D01*
X118559262Y-80176688D01*
X119953088Y-80176688D01*
X119953088Y-80570388D01*
G37*
G36*
X118884700Y-78166913D02*
G01*
X118750556Y-78105397D01*
X118637050Y-78022450D01*
X118545769Y-77920056D01*
X118478300Y-77800200D01*
X118436628Y-77664866D01*
X118422737Y-77516038D01*
X118762462Y-77516038D01*
X118793022Y-77652959D01*
X118884700Y-77746225D01*
X119026384Y-77799803D01*
X119206963Y-77817663D01*
X119387938Y-77798216D01*
X119530813Y-77739875D01*
X119623681Y-77643434D01*
X119654638Y-77509688D01*
X119623681Y-77372766D01*
X119530813Y-77279500D01*
X119387938Y-77225922D01*
X119206963Y-77208063D01*
X119026384Y-77227509D01*
X118884700Y-77285850D01*
X118793022Y-77382291D01*
X118762462Y-77516038D01*
X118422737Y-77516038D01*
X118436628Y-77369194D01*
X118478300Y-77233463D01*
X118545769Y-77112416D01*
X118637050Y-77009625D01*
X118750556Y-76926281D01*
X118884700Y-76863575D01*
X119036703Y-76824284D01*
X119203788Y-76811188D01*
X119373253Y-76823888D01*
X119526050Y-76861988D01*
X119660591Y-76923503D01*
X119775288Y-77006450D01*
X119868156Y-77108844D01*
X119937213Y-77228700D01*
X119980075Y-77364828D01*
X119994363Y-77516038D01*
X119980075Y-77667247D01*
X119937213Y-77803375D01*
X119868156Y-77922834D01*
X119775288Y-78024038D01*
X119660591Y-78105794D01*
X119526050Y-78166913D01*
X119373253Y-78205013D01*
X119203788Y-78217713D01*
X119036703Y-78205013D01*
X118884700Y-78166913D01*
G37*
G36*
X118092537Y-62958662D02*
G01*
X119359363Y-62958662D01*
X119630428Y-62989619D01*
X119827675Y-63082487D01*
X119947928Y-63242825D01*
X119988013Y-63476187D01*
X119975313Y-63652400D01*
X119945150Y-63784162D01*
X119911813Y-63871475D01*
X119889588Y-63914337D01*
X119575263Y-63863537D01*
X119616538Y-63758762D01*
X119648288Y-63561912D01*
X119594313Y-63409512D01*
X119387938Y-63349187D01*
X117768687Y-63349187D01*
X117768687Y-62545912D01*
X118092537Y-62545912D01*
X118092537Y-62958662D01*
G37*
G36*
X118784687Y-69308662D02*
G01*
X119333963Y-69308662D01*
X119480806Y-69315012D01*
X119610188Y-69334062D01*
X119814975Y-69421375D01*
X119943563Y-69586475D01*
X119976900Y-69701966D01*
X119988013Y-69842062D01*
X119967375Y-70037325D01*
X119889588Y-70264337D01*
X119575263Y-70213537D01*
X119634000Y-70042087D01*
X119648288Y-69911912D01*
X119583200Y-69748400D01*
X119384763Y-69699187D01*
X118460837Y-69699187D01*
X118460837Y-68895912D01*
X118784687Y-68895912D01*
X118784687Y-69308662D01*
G37*
G36*
X118784687Y-67648137D02*
G01*
X119397463Y-67648137D01*
X119566928Y-67657662D01*
X119700675Y-67686237D01*
X119880063Y-67797362D01*
X119965788Y-67975162D01*
X119988013Y-68216462D01*
X119968963Y-68459350D01*
X119905463Y-68692712D01*
X119568913Y-68638737D01*
X119610188Y-68538725D01*
X119634000Y-68449825D01*
X119645113Y-68360925D01*
X119648288Y-68260912D01*
X119638763Y-68168837D01*
X119600663Y-68098987D01*
X119521288Y-68054537D01*
X119387938Y-68038662D01*
X118784687Y-68038662D01*
X118784687Y-68664137D01*
X118460837Y-68664137D01*
X118460837Y-68038662D01*
X118022687Y-68038662D01*
X118086187Y-67648137D01*
X118460837Y-67648137D01*
X118460837Y-67308412D01*
X118784687Y-67308412D01*
X118784687Y-67648137D01*
G37*
G36*
X119953088Y-59129612D02*
G01*
X119629238Y-59129612D01*
X119629238Y-58259662D01*
X119076788Y-58259662D01*
X119076788Y-58954987D01*
X118752937Y-58954987D01*
X118752937Y-58259662D01*
X118311612Y-58259662D01*
X118311612Y-59059762D01*
X117987762Y-59059762D01*
X117987762Y-57869137D01*
X119953088Y-57869137D01*
X119953088Y-59129612D01*
G37*
G36*
X119133938Y-78633638D02*
G01*
X119276813Y-78497112D01*
X119495888Y-78446313D01*
X119726075Y-78490763D01*
X119878475Y-78617763D01*
X119962613Y-78816200D01*
X119988013Y-79074963D01*
X119981663Y-79274194D01*
X119962613Y-79452788D01*
X119918163Y-79706788D01*
X119029163Y-79706788D01*
X118776750Y-79675038D01*
X118586250Y-79570263D01*
X118465600Y-79375000D01*
X118433453Y-79237284D01*
X118422737Y-79068613D01*
X118427897Y-78928119D01*
X118443375Y-78792388D01*
X118489412Y-78586013D01*
X118803737Y-78639988D01*
X118765637Y-78806675D01*
X118749762Y-79020988D01*
X118768416Y-79167038D01*
X118824375Y-79262288D01*
X119010113Y-79332138D01*
X119057738Y-79332138D01*
X119038688Y-79205931D01*
X119035846Y-79141638D01*
X119305388Y-79141638D01*
X119310150Y-79240063D01*
X119321263Y-79332138D01*
X119664163Y-79332138D01*
X119672100Y-79227363D01*
X119673688Y-79103538D01*
X119630825Y-78906688D01*
X119486363Y-78830488D01*
X119394288Y-78855888D01*
X119340313Y-78924150D01*
X119313325Y-79024163D01*
X119305388Y-79141638D01*
X119035846Y-79141638D01*
X119032338Y-79062263D01*
X119056150Y-78830488D01*
X119133938Y-78633638D01*
G37*
G36*
X117816312Y-82456338D02*
G01*
X118495762Y-82456338D01*
X118446550Y-82322988D01*
X118436571Y-82234088D01*
X118765637Y-82234088D01*
X118783100Y-82354738D01*
X118825962Y-82456338D01*
X119638763Y-82456338D01*
X119648288Y-82370613D01*
X119651463Y-82281713D01*
X119619713Y-82139234D01*
X119524463Y-82042000D01*
X119379206Y-81986041D01*
X119197438Y-81967388D01*
X119012494Y-81983263D01*
X118876763Y-82030888D01*
X118793419Y-82113438D01*
X118765637Y-82234088D01*
X118436571Y-82234088D01*
X118429087Y-82167413D01*
X118452547Y-81986614D01*
X118522926Y-81837918D01*
X118640225Y-81721325D01*
X118798093Y-81637540D01*
X118990181Y-81587269D01*
X119216488Y-81570513D01*
X119438738Y-81590444D01*
X119627121Y-81650240D01*
X119781638Y-81749900D01*
X119896290Y-81888365D01*
X119965082Y-82064578D01*
X119988013Y-82278538D01*
X119982456Y-82429350D01*
X119965788Y-82583338D01*
X119940388Y-82727006D01*
X119908638Y-82846863D01*
X117749637Y-82846863D01*
X117816312Y-82456338D01*
G37*
G36*
X118681798Y-59368630D02*
G01*
X118893828Y-59437984D01*
X119096929Y-59509124D01*
X119291100Y-59582050D01*
X119533282Y-59679946D01*
X119753944Y-59776783D01*
X119953088Y-59872562D01*
X119953088Y-60199587D01*
X119753944Y-60296954D01*
X119533282Y-60398554D01*
X119291100Y-60504387D01*
X119096929Y-60583564D01*
X118893828Y-60659169D01*
X118681798Y-60731202D01*
X118460837Y-60799662D01*
X118460837Y-60402787D01*
X118585456Y-60369847D01*
X118718012Y-60328175D01*
X118854934Y-60281344D01*
X118992650Y-60232925D01*
X119128778Y-60183316D01*
X119260938Y-60132912D01*
X119499063Y-60040837D01*
X119260938Y-59953525D01*
X119128778Y-59907884D01*
X118992650Y-59863037D01*
X118854934Y-59819778D01*
X118718012Y-59778900D01*
X118585456Y-59741991D01*
X118460837Y-59710637D01*
X118460837Y-59301062D01*
X118681798Y-59368630D01*
G37*
G36*
X119133938Y-61171137D02*
G01*
X119276813Y-61034612D01*
X119495888Y-60983812D01*
X119726075Y-61028262D01*
X119878475Y-61155262D01*
X119962613Y-61353700D01*
X119988013Y-61612462D01*
X119981663Y-61811694D01*
X119962613Y-61990287D01*
X119918163Y-62244287D01*
X119029163Y-62244287D01*
X118776750Y-62212537D01*
X118586250Y-62107762D01*
X118465600Y-61912500D01*
X118433453Y-61774784D01*
X118422737Y-61606112D01*
X118427897Y-61465619D01*
X118443375Y-61329887D01*
X118489412Y-61123512D01*
X118803737Y-61177487D01*
X118765637Y-61344175D01*
X118749762Y-61558487D01*
X118768416Y-61704537D01*
X118824375Y-61799787D01*
X119010113Y-61869637D01*
X119057738Y-61869637D01*
X119038688Y-61743431D01*
X119035846Y-61679137D01*
X119305388Y-61679137D01*
X119310150Y-61777562D01*
X119321263Y-61869637D01*
X119664163Y-61869637D01*
X119672100Y-61764862D01*
X119673688Y-61641037D01*
X119630825Y-61444187D01*
X119486363Y-61367987D01*
X119394288Y-61393387D01*
X119340313Y-61461650D01*
X119313325Y-61561662D01*
X119305388Y-61679137D01*
X119035846Y-61679137D01*
X119032338Y-61599762D01*
X119056150Y-61367987D01*
X119133938Y-61171137D01*
G37*
G36*
X119438738Y-64212787D02*
G01*
X119572088Y-64231837D01*
X119792750Y-64325500D01*
X119937213Y-64511237D01*
X119975313Y-64645381D01*
X119988013Y-64812862D01*
X119980869Y-64987091D01*
X119959438Y-65147825D01*
X119930863Y-65290303D01*
X119902288Y-65409762D01*
X118460837Y-65409762D01*
X118460837Y-65016062D01*
X119632413Y-65016062D01*
X119648288Y-64838262D01*
X119548275Y-64646175D01*
X119421672Y-64609266D01*
X119241888Y-64596962D01*
X118460837Y-64596962D01*
X118460837Y-64206437D01*
X119292688Y-64206437D01*
X119438738Y-64212787D01*
G37*
G36*
X118884700Y-71816913D02*
G01*
X118750556Y-71755397D01*
X118637050Y-71672450D01*
X118545769Y-71570056D01*
X118478300Y-71450200D01*
X118436628Y-71314866D01*
X118422737Y-71166038D01*
X118762462Y-71166038D01*
X118793022Y-71302959D01*
X118884700Y-71396225D01*
X119026384Y-71449803D01*
X119206963Y-71467663D01*
X119387938Y-71448216D01*
X119530813Y-71389875D01*
X119623681Y-71293434D01*
X119654638Y-71159688D01*
X119623681Y-71022766D01*
X119530813Y-70929500D01*
X119387938Y-70875922D01*
X119206963Y-70858062D01*
X119026384Y-70877509D01*
X118884700Y-70935850D01*
X118793022Y-71032291D01*
X118762462Y-71166038D01*
X118422737Y-71166038D01*
X118436628Y-71019194D01*
X118478300Y-70883463D01*
X118545769Y-70762416D01*
X118637050Y-70659625D01*
X118750556Y-70576281D01*
X118884700Y-70513575D01*
X119036703Y-70474284D01*
X119203788Y-70461188D01*
X119373253Y-70473888D01*
X119526050Y-70511988D01*
X119660591Y-70573503D01*
X119775288Y-70656450D01*
X119868156Y-70758844D01*
X119937213Y-70878700D01*
X119980075Y-71014828D01*
X119994363Y-71166038D01*
X119980075Y-71317247D01*
X119937213Y-71453375D01*
X119868156Y-71572834D01*
X119775288Y-71674038D01*
X119660591Y-71755794D01*
X119526050Y-71816913D01*
X119373253Y-71855013D01*
X119203788Y-71867713D01*
X119036703Y-71855013D01*
X118884700Y-71816913D01*
G37*
G36*
X119953088Y-72547163D02*
G01*
X118781512Y-72547163D01*
X118771987Y-72637650D01*
X118768812Y-72724963D01*
X118860887Y-72918638D01*
X118982331Y-72954356D01*
X119162513Y-72966263D01*
X119953088Y-72966263D01*
X119953088Y-73356788D01*
X119111713Y-73356788D01*
X118966059Y-73349644D01*
X118833900Y-73328213D01*
X118618000Y-73231375D01*
X118478300Y-73045638D01*
X118441391Y-72913081D01*
X118429087Y-72750363D01*
X118435437Y-72576134D01*
X118454487Y-72415400D01*
X118480681Y-72273716D01*
X118508462Y-72156638D01*
X119953088Y-72156638D01*
X119953088Y-72547163D01*
G37*
G36*
X119099013Y-76549250D02*
G01*
X118987888Y-76445666D01*
X118902163Y-76277788D01*
X118730712Y-76460350D01*
X118614825Y-76511547D01*
X118483062Y-76528613D01*
X118298912Y-76500038D01*
X118132225Y-76392088D01*
X118011575Y-76173013D01*
X117977047Y-76012675D01*
X117968981Y-75871388D01*
X118305262Y-75871388D01*
X118313200Y-75976163D01*
X118344950Y-76065063D01*
X118411625Y-76125388D01*
X118524337Y-76147613D01*
X118703725Y-76071413D01*
X118752311Y-75903138D01*
X119092663Y-75903138D01*
X119154575Y-76146025D01*
X119359363Y-76236513D01*
X119500650Y-76204763D01*
X119586375Y-76123800D01*
X119627650Y-76011088D01*
X119638763Y-75880913D01*
X119635588Y-75784075D01*
X119626063Y-75693588D01*
X119092663Y-75693588D01*
X119092663Y-75903138D01*
X118752311Y-75903138D01*
X118768812Y-75845988D01*
X118768812Y-75693588D01*
X118317962Y-75693588D01*
X118308437Y-75779313D01*
X118305262Y-75871388D01*
X117968981Y-75871388D01*
X117965537Y-75811063D01*
X117979825Y-75547538D01*
X118013162Y-75303063D01*
X119921338Y-75303063D01*
X119946341Y-75440381D01*
X119964200Y-75579288D01*
X119974916Y-75716606D01*
X119978488Y-75849163D01*
X119970947Y-76005928D01*
X119948325Y-76152375D01*
X119907844Y-76284138D01*
X119846725Y-76396850D01*
X119656225Y-76560363D01*
X119522478Y-76605606D01*
X119359363Y-76620688D01*
X119226013Y-76602828D01*
X119099013Y-76549250D01*
G37*
G36*
X118213187Y-69262625D02*
G01*
X118279862Y-69435662D01*
X118213187Y-69610287D01*
X118032212Y-69683312D01*
X117848062Y-69610287D01*
X117781387Y-69435662D01*
X117848062Y-69262625D01*
X118032212Y-69191187D01*
X118213187Y-69262625D01*
G37*
G36*
X119133938Y-65933637D02*
G01*
X119276813Y-65797112D01*
X119495888Y-65746312D01*
X119726075Y-65790762D01*
X119878475Y-65917762D01*
X119962613Y-66116200D01*
X119988013Y-66374962D01*
X119981663Y-66574194D01*
X119962613Y-66752787D01*
X119918163Y-67006787D01*
X119029163Y-67006787D01*
X118776750Y-66975037D01*
X118586250Y-66870262D01*
X118465600Y-66675000D01*
X118433453Y-66537284D01*
X118422737Y-66368612D01*
X118427897Y-66228119D01*
X118443375Y-66092387D01*
X118489412Y-65886012D01*
X118803737Y-65939987D01*
X118765637Y-66106675D01*
X118749762Y-66320987D01*
X118768416Y-66467037D01*
X118824375Y-66562287D01*
X119010113Y-66632137D01*
X119057738Y-66632137D01*
X119038688Y-66505931D01*
X119035846Y-66441637D01*
X119305388Y-66441637D01*
X119310150Y-66540062D01*
X119321263Y-66632137D01*
X119664163Y-66632137D01*
X119672100Y-66527362D01*
X119673688Y-66403537D01*
X119630825Y-66206687D01*
X119486363Y-66130487D01*
X119394288Y-66155887D01*
X119340313Y-66224150D01*
X119313325Y-66324163D01*
X119305388Y-66441637D01*
X119035846Y-66441637D01*
X119032338Y-66362262D01*
X119056150Y-66130487D01*
X119133938Y-65933637D01*
G37*
M02*
