%TF.GenerationSoftware,KiCad,Pcbnew,(6.0.0)*%
%TF.CreationDate,2022-01-19T10:56:35+01:00*%
%TF.ProjectId,CH423_ev_routed,43483432-335f-4657-965f-726f75746564,rev?*%
%TF.SameCoordinates,Original*%
%TF.FileFunction,Copper,L2,Bot*%
%TF.FilePolarity,Positive*%
%FSLAX46Y46*%
G04 Gerber Fmt 4.6, Leading zero omitted, Abs format (unit mm)*
G04 Created by KiCad (PCBNEW (6.0.0)) date 2022-01-19 10:56:35*
%MOMM*%
%LPD*%
G01*
G04 APERTURE LIST*
G04 Aperture macros list*
%AMRoundRect*
0 Rectangle with rounded corners*
0 $1 Rounding radius*
0 $2 $3 $4 $5 $6 $7 $8 $9 X,Y pos of 4 corners*
0 Add a 4 corners polygon primitive as box body*
4,1,4,$2,$3,$4,$5,$6,$7,$8,$9,$2,$3,0*
0 Add four circle primitives for the rounded corners*
1,1,$1+$1,$2,$3*
1,1,$1+$1,$4,$5*
1,1,$1+$1,$6,$7*
1,1,$1+$1,$8,$9*
0 Add four rect primitives between the rounded corners*
20,1,$1+$1,$2,$3,$4,$5,0*
20,1,$1+$1,$4,$5,$6,$7,0*
20,1,$1+$1,$6,$7,$8,$9,0*
20,1,$1+$1,$8,$9,$2,$3,0*%
G04 Aperture macros list end*
%TA.AperFunction,ComponentPad*%
%ADD10R,1.700000X1.700000*%
%TD*%
%TA.AperFunction,ComponentPad*%
%ADD11O,1.700000X1.700000*%
%TD*%
%TA.AperFunction,ComponentPad*%
%ADD12RoundRect,0.250000X0.600000X-0.600000X0.600000X0.600000X-0.600000X0.600000X-0.600000X-0.600000X0*%
%TD*%
%TA.AperFunction,ComponentPad*%
%ADD13C,1.700000*%
%TD*%
%TA.AperFunction,ViaPad*%
%ADD14C,0.800000*%
%TD*%
%TA.AperFunction,ViaPad*%
%ADD15C,0.600000*%
%TD*%
%TA.AperFunction,Conductor*%
%ADD16C,1.000000*%
%TD*%
%TA.AperFunction,Conductor*%
%ADD17C,0.550000*%
%TD*%
G04 APERTURE END LIST*
D10*
X96012000Y-65415000D03*
D11*
X96012000Y-67955000D03*
X96012000Y-70495000D03*
X96012000Y-73035000D03*
D10*
X96012000Y-80518000D03*
D11*
X96012000Y-77978000D03*
D10*
X96012000Y-60452000D03*
D11*
X96012000Y-57912000D03*
D12*
X102108000Y-89652500D03*
D13*
X102108000Y-87112500D03*
X104648000Y-89652500D03*
X104648000Y-87112500D03*
X107188000Y-89652500D03*
X107188000Y-87112500D03*
X109728000Y-89652500D03*
X109728000Y-87112500D03*
X112268000Y-89652500D03*
X112268000Y-87112500D03*
X114808000Y-89652500D03*
X114808000Y-87112500D03*
X117348000Y-89652500D03*
X117348000Y-87112500D03*
X119888000Y-89652500D03*
X119888000Y-87112500D03*
D10*
X119619000Y-52832000D03*
D11*
X117079000Y-52832000D03*
X114539000Y-52832000D03*
X111999000Y-52832000D03*
X109459000Y-52832000D03*
X106919000Y-52832000D03*
X104379000Y-52832000D03*
X101839000Y-52832000D03*
X99299000Y-52832000D03*
D14*
X108062800Y-81157700D03*
X106215300Y-67610300D03*
X107187500Y-83314000D03*
X105268200Y-80510400D03*
D15*
X116332000Y-84582000D03*
X110236000Y-67564000D03*
X120650000Y-62992000D03*
X101092000Y-70612000D03*
D14*
X118917700Y-62604600D03*
D15*
X118872000Y-59182000D03*
X110236000Y-74422000D03*
X119380000Y-64008000D03*
X101092000Y-67564000D03*
X107442000Y-57150000D03*
X113538000Y-78994000D03*
D14*
X103164500Y-80865000D03*
X114866600Y-77776800D03*
X115617700Y-79502000D03*
X117137900Y-83058000D03*
X119069100Y-85617200D03*
D16*
X96012000Y-65415000D02*
X96012000Y-60452000D01*
D17*
X102108000Y-87112500D02*
X108062800Y-81157700D01*
X106215300Y-80801200D02*
X106215300Y-67610300D01*
X100749800Y-86266700D02*
X106215300Y-80801200D01*
X101199700Y-90984400D02*
X100749800Y-90534500D01*
X104648000Y-89652500D02*
X103316100Y-90984400D01*
X103316100Y-90984400D02*
X101199700Y-90984400D01*
X100749800Y-90534500D02*
X100749800Y-86266700D01*
X104648000Y-87112500D02*
X104648000Y-85902800D01*
X107187500Y-83363300D02*
X107187500Y-83314000D01*
X104648000Y-85902800D02*
X107187500Y-83363300D01*
X99984200Y-85794400D02*
X105268200Y-80510400D01*
X100835300Y-91740900D02*
X99984200Y-90889800D01*
X107188000Y-89652500D02*
X105099600Y-91740900D01*
X105099600Y-91740900D02*
X100835300Y-91740900D01*
X99984200Y-90889800D02*
X99984200Y-85794400D01*
X96012000Y-73035000D02*
X96012000Y-77978000D01*
X118917700Y-62604600D02*
X99314000Y-62604600D01*
X99299000Y-69748000D02*
X96012000Y-73035000D01*
X98912100Y-57912000D02*
X96012000Y-57912000D01*
X99299000Y-52832000D02*
X99299000Y-69748000D01*
X103164500Y-80865000D02*
X99233800Y-84795700D01*
X99233800Y-84795700D02*
X99233800Y-91236000D01*
X99233800Y-91236000D02*
X100522700Y-92524900D01*
X100522700Y-92524900D02*
X106855600Y-92524900D01*
X106855600Y-92524900D02*
X109728000Y-89652500D01*
X115107300Y-92491800D02*
X112268000Y-89652500D01*
X121203500Y-92491800D02*
X115107300Y-92491800D01*
X115985400Y-77776800D02*
X123512800Y-85304200D01*
X114866600Y-77776800D02*
X115985400Y-77776800D01*
X123512800Y-85304200D02*
X123512800Y-90182500D01*
X123512800Y-90182500D02*
X121203500Y-92491800D01*
X120858500Y-91734100D02*
X116889600Y-91734100D01*
X116889600Y-91734100D02*
X114808000Y-89652500D01*
X122719000Y-89873600D02*
X120858500Y-91734100D01*
X115617700Y-79502000D02*
X116649300Y-79502000D01*
X116649300Y-79502000D02*
X122719000Y-85571700D01*
X122719000Y-85571700D02*
X122719000Y-89873600D01*
X118679200Y-90983700D02*
X117348000Y-89652500D01*
X121968600Y-86089800D02*
X121968600Y-89562700D01*
X120547600Y-90983700D02*
X118679200Y-90983700D01*
X117137900Y-83058000D02*
X118936800Y-83058000D01*
X118936800Y-83058000D02*
X121968600Y-86089800D01*
X121968600Y-89562700D02*
X120547600Y-90983700D01*
X120293000Y-85617200D02*
X119069100Y-85617200D01*
X121218200Y-88322300D02*
X121218200Y-86542400D01*
X121218200Y-86542400D02*
X120293000Y-85617200D01*
X119888000Y-89652500D02*
X121218200Y-88322300D01*
%TA.AperFunction,Conductor*%
G36*
X125642121Y-49320002D02*
G01*
X125688614Y-49373658D01*
X125700000Y-49426000D01*
X125700000Y-93574000D01*
X125679998Y-93642121D01*
X125626342Y-93688614D01*
X125574000Y-93700000D01*
X91426000Y-93700000D01*
X91357879Y-93679998D01*
X91311386Y-93626342D01*
X91300000Y-93574000D01*
X91300000Y-90986288D01*
X92171404Y-90986288D01*
X92171985Y-90991308D01*
X92171985Y-90991312D01*
X92192128Y-91165400D01*
X92200081Y-91234140D01*
X92268017Y-91474219D01*
X92295326Y-91532784D01*
X92356785Y-91664583D01*
X92373462Y-91700348D01*
X92513706Y-91906710D01*
X92685138Y-92087994D01*
X92883349Y-92239538D01*
X93103239Y-92357443D01*
X93339152Y-92438674D01*
X93467099Y-92460774D01*
X93581107Y-92480467D01*
X93581113Y-92480468D01*
X93585017Y-92481142D01*
X93588978Y-92481322D01*
X93588979Y-92481322D01*
X93613503Y-92482436D01*
X93613522Y-92482436D01*
X93614922Y-92482500D01*
X93788691Y-92482500D01*
X93791199Y-92482298D01*
X93791204Y-92482298D01*
X93969661Y-92467940D01*
X93969666Y-92467939D01*
X93974702Y-92467534D01*
X93979610Y-92466329D01*
X93979613Y-92466328D01*
X94212092Y-92409225D01*
X94217006Y-92408018D01*
X94221658Y-92406043D01*
X94221662Y-92406042D01*
X94442022Y-92312505D01*
X94442023Y-92312505D01*
X94446677Y-92310529D01*
X94657808Y-92177573D01*
X94755923Y-92091073D01*
X94841168Y-92015920D01*
X94841171Y-92015917D01*
X94844965Y-92012572D01*
X95003334Y-91819770D01*
X95128840Y-91604128D01*
X95218255Y-91371195D01*
X95246499Y-91236000D01*
X98653335Y-91236000D01*
X98658300Y-91273714D01*
X98658300Y-91273720D01*
X98673113Y-91386236D01*
X98676273Y-91393866D01*
X98676274Y-91393868D01*
X98707919Y-91470265D01*
X98707920Y-91470266D01*
X98731102Y-91526233D01*
X98800188Y-91616268D01*
X98800191Y-91616271D01*
X98823349Y-91646451D01*
X98829899Y-91651477D01*
X98846979Y-91664583D01*
X98859370Y-91675450D01*
X100083250Y-92899330D01*
X100094117Y-92911721D01*
X100112249Y-92935351D01*
X100118799Y-92940377D01*
X100142429Y-92958509D01*
X100142432Y-92958512D01*
X100193448Y-92997658D01*
X100232467Y-93027599D01*
X100295155Y-93053565D01*
X100331460Y-93068603D01*
X100364834Y-93082427D01*
X100364837Y-93082428D01*
X100372464Y-93085587D01*
X100484980Y-93100400D01*
X100484981Y-93100400D01*
X100484991Y-93100401D01*
X100514510Y-93104287D01*
X100514512Y-93104287D01*
X100522700Y-93105365D01*
X100552228Y-93101478D01*
X100568671Y-93100400D01*
X106809628Y-93100400D01*
X106826074Y-93101478D01*
X106847411Y-93104287D01*
X106847412Y-93104287D01*
X106855600Y-93105365D01*
X106863788Y-93104287D01*
X106863790Y-93104287D01*
X106893309Y-93100401D01*
X106893319Y-93100400D01*
X106893320Y-93100400D01*
X107005836Y-93085587D01*
X107145833Y-93027598D01*
X107235868Y-92958512D01*
X107235871Y-92958509D01*
X107266051Y-92935351D01*
X107284183Y-92911721D01*
X107295050Y-92899330D01*
X109380574Y-90813806D01*
X109442886Y-90779780D01*
X109497476Y-90780008D01*
X109567480Y-90795848D01*
X109577186Y-90798044D01*
X109582957Y-90798271D01*
X109582959Y-90798271D01*
X109644989Y-90800708D01*
X109788470Y-90806346D01*
X109794179Y-90805518D01*
X109794183Y-90805518D01*
X109992015Y-90776833D01*
X109992019Y-90776832D01*
X109997730Y-90776004D01*
X110127112Y-90732085D01*
X110192483Y-90709895D01*
X110192488Y-90709893D01*
X110197955Y-90708037D01*
X110202998Y-90705213D01*
X110377395Y-90607546D01*
X110377399Y-90607543D01*
X110382442Y-90604719D01*
X110545012Y-90469512D01*
X110680219Y-90306942D01*
X110683043Y-90301899D01*
X110683046Y-90301895D01*
X110780713Y-90127498D01*
X110780714Y-90127496D01*
X110783537Y-90122455D01*
X110785393Y-90116988D01*
X110785395Y-90116983D01*
X110841520Y-89951642D01*
X110851504Y-89922230D01*
X110857527Y-89880693D01*
X110873090Y-89773360D01*
X110902660Y-89708815D01*
X110962432Y-89670503D01*
X111033429Y-89670587D01*
X111093109Y-89709042D01*
X111122525Y-89773658D01*
X111123515Y-89783195D01*
X111126796Y-89833249D01*
X111128217Y-89838845D01*
X111128218Y-89838850D01*
X111156482Y-89950138D01*
X111178845Y-90038190D01*
X111181262Y-90043433D01*
X111195378Y-90074052D01*
X111267369Y-90230214D01*
X111389405Y-90402891D01*
X111393539Y-90406918D01*
X111486788Y-90497757D01*
X111540865Y-90550437D01*
X111545661Y-90553642D01*
X111545664Y-90553644D01*
X111652435Y-90624986D01*
X111716677Y-90667911D01*
X111721985Y-90670192D01*
X111721986Y-90670192D01*
X111905650Y-90749100D01*
X111905653Y-90749101D01*
X111910953Y-90751378D01*
X111916582Y-90752652D01*
X111916583Y-90752652D01*
X112111550Y-90796769D01*
X112111553Y-90796769D01*
X112117186Y-90798044D01*
X112122957Y-90798271D01*
X112122959Y-90798271D01*
X112184989Y-90800708D01*
X112328470Y-90806346D01*
X112440955Y-90790036D01*
X112510062Y-90780016D01*
X112580348Y-90790036D01*
X112617237Y-90815617D01*
X114667850Y-92866230D01*
X114678717Y-92878621D01*
X114696849Y-92902251D01*
X114727029Y-92925409D01*
X114727032Y-92925412D01*
X114817068Y-92994499D01*
X114896977Y-93027598D01*
X114957064Y-93052487D01*
X115069580Y-93067300D01*
X115107300Y-93072266D01*
X115115488Y-93071188D01*
X115115489Y-93071188D01*
X115136833Y-93068378D01*
X115153279Y-93067300D01*
X121157528Y-93067300D01*
X121173974Y-93068378D01*
X121195311Y-93071187D01*
X121195312Y-93071187D01*
X121203500Y-93072265D01*
X121211688Y-93071187D01*
X121211690Y-93071187D01*
X121241209Y-93067301D01*
X121241219Y-93067300D01*
X121241220Y-93067300D01*
X121353736Y-93052487D01*
X121493733Y-92994498D01*
X121540631Y-92958512D01*
X121583768Y-92925412D01*
X121583771Y-92925409D01*
X121613951Y-92902251D01*
X121632083Y-92878621D01*
X121642950Y-92866230D01*
X123887230Y-90621950D01*
X123899621Y-90611083D01*
X123916701Y-90597977D01*
X123923251Y-90592951D01*
X123946409Y-90562771D01*
X123946412Y-90562768D01*
X124015498Y-90472733D01*
X124073487Y-90332736D01*
X124083042Y-90260156D01*
X124088300Y-90220220D01*
X124088300Y-90220215D01*
X124093265Y-90182500D01*
X124089378Y-90152974D01*
X124088300Y-90136528D01*
X124088300Y-85350172D01*
X124089378Y-85333726D01*
X124092187Y-85312389D01*
X124092187Y-85312388D01*
X124093265Y-85304200D01*
X124088300Y-85266485D01*
X124088300Y-85266480D01*
X124073487Y-85153964D01*
X124067718Y-85140037D01*
X124018658Y-85021595D01*
X124018657Y-85021593D01*
X124015498Y-85013967D01*
X123998054Y-84991234D01*
X123946412Y-84923932D01*
X123946409Y-84923929D01*
X123941184Y-84917119D01*
X123928277Y-84900299D01*
X123923251Y-84893749D01*
X123899621Y-84875617D01*
X123887230Y-84864750D01*
X116424850Y-77402370D01*
X116413983Y-77389979D01*
X116400877Y-77372899D01*
X116395851Y-77366349D01*
X116365671Y-77343191D01*
X116365668Y-77343188D01*
X116275633Y-77274102D01*
X116221813Y-77251809D01*
X116135636Y-77216113D01*
X116023120Y-77201300D01*
X116023118Y-77201300D01*
X116023109Y-77201299D01*
X115993590Y-77197413D01*
X115993588Y-77197413D01*
X115985400Y-77196335D01*
X115977212Y-77197413D01*
X115977211Y-77197413D01*
X115955874Y-77200222D01*
X115939428Y-77201300D01*
X115308062Y-77201300D01*
X115249103Y-77186655D01*
X115181622Y-77150926D01*
X115119481Y-77118024D01*
X114955041Y-77076719D01*
X114947443Y-77076679D01*
X114947441Y-77076679D01*
X114870268Y-77076275D01*
X114785495Y-77075831D01*
X114778108Y-77077605D01*
X114778104Y-77077605D01*
X114634762Y-77112020D01*
X114620632Y-77115412D01*
X114613888Y-77118893D01*
X114613885Y-77118894D01*
X114482601Y-77186655D01*
X114469969Y-77193175D01*
X114464247Y-77198167D01*
X114464245Y-77198168D01*
X114440052Y-77219273D01*
X114342204Y-77304631D01*
X114337837Y-77310845D01*
X114282221Y-77389979D01*
X114244713Y-77443347D01*
X114183124Y-77601313D01*
X114182132Y-77608846D01*
X114182132Y-77608847D01*
X114168691Y-77710947D01*
X114160994Y-77769411D01*
X114179599Y-77937935D01*
X114237866Y-78097156D01*
X114332430Y-78237883D01*
X114338042Y-78242990D01*
X114338045Y-78242993D01*
X114452212Y-78346877D01*
X114452216Y-78346880D01*
X114457833Y-78351991D01*
X114464506Y-78355614D01*
X114464510Y-78355617D01*
X114600158Y-78429267D01*
X114600160Y-78429268D01*
X114606835Y-78432892D01*
X114614184Y-78434820D01*
X114763483Y-78473988D01*
X114763485Y-78473988D01*
X114770833Y-78475916D01*
X114857209Y-78477273D01*
X114932761Y-78478460D01*
X114932764Y-78478460D01*
X114940360Y-78478579D01*
X114947765Y-78476883D01*
X114947766Y-78476883D01*
X115008186Y-78463045D01*
X115105629Y-78440728D01*
X115254736Y-78365735D01*
X115311350Y-78352300D01*
X115694830Y-78352300D01*
X115762951Y-78372302D01*
X115783925Y-78389205D01*
X116058715Y-78663995D01*
X116092741Y-78726307D01*
X116087676Y-78797122D01*
X116045129Y-78853958D01*
X115978609Y-78878769D01*
X115910661Y-78864445D01*
X115877290Y-78846776D01*
X115877288Y-78846775D01*
X115870581Y-78843224D01*
X115706141Y-78801919D01*
X115698543Y-78801879D01*
X115698541Y-78801879D01*
X115621368Y-78801475D01*
X115536595Y-78801031D01*
X115529208Y-78802805D01*
X115529204Y-78802805D01*
X115385862Y-78837220D01*
X115371732Y-78840612D01*
X115364988Y-78844093D01*
X115364985Y-78844094D01*
X115325556Y-78864445D01*
X115221069Y-78918375D01*
X115093304Y-79029831D01*
X114995813Y-79168547D01*
X114934224Y-79326513D01*
X114933232Y-79334046D01*
X114933232Y-79334047D01*
X114913089Y-79487055D01*
X114912094Y-79494611D01*
X114930699Y-79663135D01*
X114933309Y-79670266D01*
X114984251Y-79809471D01*
X114988966Y-79822356D01*
X115083530Y-79963083D01*
X115089142Y-79968190D01*
X115089145Y-79968193D01*
X115203312Y-80072077D01*
X115203316Y-80072080D01*
X115208933Y-80077191D01*
X115215606Y-80080814D01*
X115215610Y-80080817D01*
X115351258Y-80154467D01*
X115351260Y-80154468D01*
X115357935Y-80158092D01*
X115365284Y-80160020D01*
X115514583Y-80199188D01*
X115514585Y-80199188D01*
X115521933Y-80201116D01*
X115608309Y-80202473D01*
X115683861Y-80203660D01*
X115683864Y-80203660D01*
X115691460Y-80203779D01*
X115698865Y-80202083D01*
X115698866Y-80202083D01*
X115777703Y-80184027D01*
X115856729Y-80165928D01*
X116005836Y-80090935D01*
X116062450Y-80077500D01*
X116358730Y-80077500D01*
X116426851Y-80097502D01*
X116447825Y-80114405D01*
X118600825Y-82267405D01*
X118634851Y-82329717D01*
X118629786Y-82400532D01*
X118587239Y-82457368D01*
X118520719Y-82482179D01*
X118511730Y-82482500D01*
X117579362Y-82482500D01*
X117520403Y-82467855D01*
X117480574Y-82446767D01*
X117390781Y-82399224D01*
X117226341Y-82357919D01*
X117218743Y-82357879D01*
X117218741Y-82357879D01*
X117141568Y-82357475D01*
X117056795Y-82357031D01*
X117049408Y-82358805D01*
X117049404Y-82358805D01*
X116906062Y-82393220D01*
X116891932Y-82396612D01*
X116885188Y-82400093D01*
X116885185Y-82400094D01*
X116879989Y-82402776D01*
X116741269Y-82474375D01*
X116613504Y-82585831D01*
X116609137Y-82592045D01*
X116523530Y-82713852D01*
X116516013Y-82724547D01*
X116454424Y-82882513D01*
X116432294Y-83050611D01*
X116450899Y-83219135D01*
X116509166Y-83378356D01*
X116603730Y-83519083D01*
X116609342Y-83524190D01*
X116609345Y-83524193D01*
X116723512Y-83628077D01*
X116723516Y-83628080D01*
X116729133Y-83633191D01*
X116735806Y-83636814D01*
X116735810Y-83636817D01*
X116871458Y-83710467D01*
X116871460Y-83710468D01*
X116878135Y-83714092D01*
X116885484Y-83716020D01*
X117034783Y-83755188D01*
X117034785Y-83755188D01*
X117042133Y-83757116D01*
X117128509Y-83758473D01*
X117204061Y-83759660D01*
X117204064Y-83759660D01*
X117211660Y-83759779D01*
X117219065Y-83758083D01*
X117219066Y-83758083D01*
X117279486Y-83744245D01*
X117376929Y-83721928D01*
X117526036Y-83646935D01*
X117582650Y-83633500D01*
X118646230Y-83633500D01*
X118714351Y-83653502D01*
X118735325Y-83670405D01*
X119891525Y-84826605D01*
X119925551Y-84888917D01*
X119920486Y-84959732D01*
X119877939Y-85016568D01*
X119811419Y-85041379D01*
X119802430Y-85041700D01*
X119510562Y-85041700D01*
X119451603Y-85027055D01*
X119383948Y-84991234D01*
X119321981Y-84958424D01*
X119157541Y-84917119D01*
X119149943Y-84917079D01*
X119149941Y-84917079D01*
X119072768Y-84916675D01*
X118987995Y-84916231D01*
X118980608Y-84918005D01*
X118980604Y-84918005D01*
X118837262Y-84952420D01*
X118823132Y-84955812D01*
X118816388Y-84959293D01*
X118816385Y-84959294D01*
X118705419Y-85016568D01*
X118672469Y-85033575D01*
X118544704Y-85145031D01*
X118447213Y-85283747D01*
X118385624Y-85441713D01*
X118363494Y-85609811D01*
X118382099Y-85778335D01*
X118440366Y-85937556D01*
X118534930Y-86078283D01*
X118540542Y-86083390D01*
X118540545Y-86083393D01*
X118654712Y-86187277D01*
X118654716Y-86187280D01*
X118660333Y-86192391D01*
X118667006Y-86196014D01*
X118667010Y-86196017D01*
X118802658Y-86269667D01*
X118802660Y-86269668D01*
X118809335Y-86273292D01*
X118816684Y-86275220D01*
X118851356Y-86284316D01*
X118912172Y-86320950D01*
X118943527Y-86384647D01*
X118935468Y-86455185D01*
X118925056Y-86474815D01*
X118922548Y-86478677D01*
X118918976Y-86483208D01*
X118916291Y-86488312D01*
X118916288Y-86488316D01*
X118858732Y-86597714D01*
X118820523Y-86670336D01*
X118757820Y-86872273D01*
X118757141Y-86878010D01*
X118743088Y-86996739D01*
X118715217Y-87062037D01*
X118656469Y-87101901D01*
X118585494Y-87103674D01*
X118524828Y-87066795D01*
X118493730Y-87002971D01*
X118492490Y-86993458D01*
X118484610Y-86907697D01*
X118484081Y-86901940D01*
X118426686Y-86698431D01*
X118415553Y-86675854D01*
X118335719Y-86513969D01*
X118333165Y-86508790D01*
X118206651Y-86339367D01*
X118051381Y-86195837D01*
X118046498Y-86192756D01*
X117877434Y-86086084D01*
X117877433Y-86086084D01*
X117872554Y-86083005D01*
X117676160Y-86004652D01*
X117670503Y-86003527D01*
X117670497Y-86003525D01*
X117474442Y-85964528D01*
X117474440Y-85964528D01*
X117468775Y-85963401D01*
X117463000Y-85963325D01*
X117462996Y-85963325D01*
X117356976Y-85961937D01*
X117257346Y-85960633D01*
X117251649Y-85961612D01*
X117251648Y-85961612D01*
X117054650Y-85995462D01*
X117054649Y-85995462D01*
X117048953Y-85996441D01*
X116850575Y-86069627D01*
X116845614Y-86072579D01*
X116845613Y-86072579D01*
X116828089Y-86083005D01*
X116668856Y-86177738D01*
X116509881Y-86317155D01*
X116378976Y-86483208D01*
X116376289Y-86488316D01*
X116376285Y-86488322D01*
X116362792Y-86513969D01*
X116280523Y-86670336D01*
X116217820Y-86872273D01*
X116217141Y-86878010D01*
X116203088Y-86996739D01*
X116175217Y-87062037D01*
X116116469Y-87101901D01*
X116045494Y-87103674D01*
X115984828Y-87066795D01*
X115953730Y-87002971D01*
X115952490Y-86993458D01*
X115944610Y-86907697D01*
X115944081Y-86901940D01*
X115886686Y-86698431D01*
X115875553Y-86675854D01*
X115795719Y-86513969D01*
X115793165Y-86508790D01*
X115666651Y-86339367D01*
X115511381Y-86195837D01*
X115506498Y-86192756D01*
X115337434Y-86086084D01*
X115337433Y-86086084D01*
X115332554Y-86083005D01*
X115136160Y-86004652D01*
X115130503Y-86003527D01*
X115130497Y-86003525D01*
X114934442Y-85964528D01*
X114934440Y-85964528D01*
X114928775Y-85963401D01*
X114923000Y-85963325D01*
X114922996Y-85963325D01*
X114816976Y-85961937D01*
X114717346Y-85960633D01*
X114711649Y-85961612D01*
X114711648Y-85961612D01*
X114514650Y-85995462D01*
X114514649Y-85995462D01*
X114508953Y-85996441D01*
X114310575Y-86069627D01*
X114305614Y-86072579D01*
X114305613Y-86072579D01*
X114288089Y-86083005D01*
X114128856Y-86177738D01*
X113969881Y-86317155D01*
X113838976Y-86483208D01*
X113836289Y-86488316D01*
X113836285Y-86488322D01*
X113822792Y-86513969D01*
X113740523Y-86670336D01*
X113677820Y-86872273D01*
X113677141Y-86878010D01*
X113663088Y-86996739D01*
X113635217Y-87062037D01*
X113576469Y-87101901D01*
X113505494Y-87103674D01*
X113444828Y-87066795D01*
X113413730Y-87002971D01*
X113412490Y-86993458D01*
X113404610Y-86907697D01*
X113404081Y-86901940D01*
X113346686Y-86698431D01*
X113335553Y-86675854D01*
X113255719Y-86513969D01*
X113253165Y-86508790D01*
X113126651Y-86339367D01*
X112971381Y-86195837D01*
X112966498Y-86192756D01*
X112797434Y-86086084D01*
X112797433Y-86086084D01*
X112792554Y-86083005D01*
X112596160Y-86004652D01*
X112590503Y-86003527D01*
X112590497Y-86003525D01*
X112394442Y-85964528D01*
X112394440Y-85964528D01*
X112388775Y-85963401D01*
X112383000Y-85963325D01*
X112382996Y-85963325D01*
X112276976Y-85961937D01*
X112177346Y-85960633D01*
X112171649Y-85961612D01*
X112171648Y-85961612D01*
X111974650Y-85995462D01*
X111974649Y-85995462D01*
X111968953Y-85996441D01*
X111770575Y-86069627D01*
X111765614Y-86072579D01*
X111765613Y-86072579D01*
X111748089Y-86083005D01*
X111588856Y-86177738D01*
X111429881Y-86317155D01*
X111298976Y-86483208D01*
X111296289Y-86488316D01*
X111296285Y-86488322D01*
X111282792Y-86513969D01*
X111200523Y-86670336D01*
X111137820Y-86872273D01*
X111137141Y-86878010D01*
X111123088Y-86996739D01*
X111095217Y-87062037D01*
X111036469Y-87101901D01*
X110965494Y-87103674D01*
X110904828Y-87066795D01*
X110873730Y-87002971D01*
X110872490Y-86993458D01*
X110864610Y-86907697D01*
X110864081Y-86901940D01*
X110806686Y-86698431D01*
X110795553Y-86675854D01*
X110715719Y-86513969D01*
X110713165Y-86508790D01*
X110586651Y-86339367D01*
X110431381Y-86195837D01*
X110426498Y-86192756D01*
X110257434Y-86086084D01*
X110257433Y-86086084D01*
X110252554Y-86083005D01*
X110056160Y-86004652D01*
X110050503Y-86003527D01*
X110050497Y-86003525D01*
X109854442Y-85964528D01*
X109854440Y-85964528D01*
X109848775Y-85963401D01*
X109843000Y-85963325D01*
X109842996Y-85963325D01*
X109736976Y-85961937D01*
X109637346Y-85960633D01*
X109631649Y-85961612D01*
X109631648Y-85961612D01*
X109434650Y-85995462D01*
X109434649Y-85995462D01*
X109428953Y-85996441D01*
X109230575Y-86069627D01*
X109225614Y-86072579D01*
X109225613Y-86072579D01*
X109208089Y-86083005D01*
X109048856Y-86177738D01*
X108889881Y-86317155D01*
X108758976Y-86483208D01*
X108756289Y-86488316D01*
X108756285Y-86488322D01*
X108742792Y-86513969D01*
X108660523Y-86670336D01*
X108597820Y-86872273D01*
X108597141Y-86878010D01*
X108583088Y-86996739D01*
X108555217Y-87062037D01*
X108496469Y-87101901D01*
X108425494Y-87103674D01*
X108364828Y-87066795D01*
X108333730Y-87002971D01*
X108332490Y-86993458D01*
X108324610Y-86907697D01*
X108324081Y-86901940D01*
X108266686Y-86698431D01*
X108255553Y-86675854D01*
X108175719Y-86513969D01*
X108173165Y-86508790D01*
X108046651Y-86339367D01*
X107891381Y-86195837D01*
X107886498Y-86192756D01*
X107717434Y-86086084D01*
X107717433Y-86086084D01*
X107712554Y-86083005D01*
X107516160Y-86004652D01*
X107510503Y-86003527D01*
X107510497Y-86003525D01*
X107314442Y-85964528D01*
X107314440Y-85964528D01*
X107308775Y-85963401D01*
X107303000Y-85963325D01*
X107302996Y-85963325D01*
X107196976Y-85961937D01*
X107097346Y-85960633D01*
X107091649Y-85961612D01*
X107091648Y-85961612D01*
X106894650Y-85995462D01*
X106894649Y-85995462D01*
X106888953Y-85996441D01*
X106690575Y-86069627D01*
X106685614Y-86072579D01*
X106685613Y-86072579D01*
X106668089Y-86083005D01*
X106508856Y-86177738D01*
X106349881Y-86317155D01*
X106218976Y-86483208D01*
X106216289Y-86488316D01*
X106216285Y-86488322D01*
X106202792Y-86513969D01*
X106120523Y-86670336D01*
X106057820Y-86872273D01*
X106057141Y-86878010D01*
X106043088Y-86996739D01*
X106015217Y-87062037D01*
X105956469Y-87101901D01*
X105885494Y-87103674D01*
X105824828Y-87066795D01*
X105793730Y-87002971D01*
X105792490Y-86993458D01*
X105784610Y-86907697D01*
X105784081Y-86901940D01*
X105726686Y-86698431D01*
X105715553Y-86675854D01*
X105635719Y-86513969D01*
X105633165Y-86508790D01*
X105506651Y-86339367D01*
X105352757Y-86197109D01*
X105316312Y-86136180D01*
X105318593Y-86065220D01*
X105349191Y-86015489D01*
X107349303Y-84015377D01*
X107410269Y-83981652D01*
X107412569Y-83981125D01*
X107426529Y-83977928D01*
X107577998Y-83901747D01*
X107706923Y-83791634D01*
X107805861Y-83653947D01*
X107808694Y-83646900D01*
X107866266Y-83503687D01*
X107866267Y-83503685D01*
X107869101Y-83496634D01*
X107885934Y-83378356D01*
X107892409Y-83332862D01*
X107892409Y-83332859D01*
X107892990Y-83328778D01*
X107893145Y-83314000D01*
X107872776Y-83145680D01*
X107812845Y-82987077D01*
X107740980Y-82882513D01*
X107721114Y-82853608D01*
X107721113Y-82853607D01*
X107716812Y-82847349D01*
X107711141Y-82842296D01*
X107595892Y-82739612D01*
X107595888Y-82739610D01*
X107590221Y-82734560D01*
X107583512Y-82731008D01*
X107583508Y-82731005D01*
X107551112Y-82713852D01*
X107500269Y-82664299D01*
X107484288Y-82595124D01*
X107508242Y-82528291D01*
X107520977Y-82513403D01*
X108160658Y-81873722D01*
X108221624Y-81839997D01*
X108245065Y-81834628D01*
X108301829Y-81821628D01*
X108453298Y-81745447D01*
X108543391Y-81668500D01*
X108576451Y-81640264D01*
X108576452Y-81640263D01*
X108582223Y-81635334D01*
X108681161Y-81497647D01*
X108683994Y-81490600D01*
X108741566Y-81347387D01*
X108741567Y-81347385D01*
X108744401Y-81340334D01*
X108759419Y-81234809D01*
X108767709Y-81176562D01*
X108767709Y-81176559D01*
X108768290Y-81172478D01*
X108768445Y-81157700D01*
X108748076Y-80989380D01*
X108688145Y-80830777D01*
X108647525Y-80771675D01*
X108596414Y-80697308D01*
X108596413Y-80697307D01*
X108592112Y-80691049D01*
X108580314Y-80680537D01*
X108471192Y-80583312D01*
X108471188Y-80583310D01*
X108465521Y-80578260D01*
X108315681Y-80498924D01*
X108151241Y-80457619D01*
X108143643Y-80457579D01*
X108143641Y-80457579D01*
X108066468Y-80457175D01*
X107981695Y-80456731D01*
X107974308Y-80458505D01*
X107974304Y-80458505D01*
X107830962Y-80492920D01*
X107816832Y-80496312D01*
X107810088Y-80499793D01*
X107810085Y-80499794D01*
X107734848Y-80538627D01*
X107666169Y-80574075D01*
X107538404Y-80685531D01*
X107530314Y-80697042D01*
X107457111Y-80801200D01*
X107440913Y-80824247D01*
X107379324Y-80982213D01*
X107378072Y-80991723D01*
X107377483Y-80993056D01*
X107376444Y-80997101D01*
X107375770Y-80996928D01*
X107349353Y-81056649D01*
X107342245Y-81064375D01*
X102455264Y-85951356D01*
X102392952Y-85985382D01*
X102341589Y-85985840D01*
X102257528Y-85969120D01*
X102228775Y-85963401D01*
X102223000Y-85963325D01*
X102222996Y-85963325D01*
X102170274Y-85962635D01*
X102102421Y-85941743D01*
X102056635Y-85887483D01*
X102047452Y-85817083D01*
X102077788Y-85752894D01*
X102082829Y-85747551D01*
X106589730Y-81240650D01*
X106602121Y-81229783D01*
X106619201Y-81216677D01*
X106625751Y-81211651D01*
X106648909Y-81181471D01*
X106648912Y-81181468D01*
X106717998Y-81091433D01*
X106775987Y-80951436D01*
X106783987Y-80890668D01*
X106790800Y-80838921D01*
X106790800Y-80838915D01*
X106794687Y-80809389D01*
X106795765Y-80801200D01*
X106791878Y-80771674D01*
X106790800Y-80755228D01*
X106790800Y-68126288D01*
X121381404Y-68126288D01*
X121381985Y-68131308D01*
X121381985Y-68131312D01*
X121392133Y-68219015D01*
X121410081Y-68374140D01*
X121478017Y-68614219D01*
X121480154Y-68618801D01*
X121551597Y-68772012D01*
X121583462Y-68840348D01*
X121586304Y-68844529D01*
X121586304Y-68844530D01*
X121594197Y-68856144D01*
X121723706Y-69046710D01*
X121895138Y-69227994D01*
X121899164Y-69231072D01*
X121899165Y-69231073D01*
X122089323Y-69376460D01*
X122093349Y-69379538D01*
X122313239Y-69497443D01*
X122549152Y-69578674D01*
X122677099Y-69600774D01*
X122791107Y-69620467D01*
X122791113Y-69620468D01*
X122795017Y-69621142D01*
X122798978Y-69621322D01*
X122798979Y-69621322D01*
X122823503Y-69622436D01*
X122823522Y-69622436D01*
X122824922Y-69622500D01*
X122998691Y-69622500D01*
X123001199Y-69622298D01*
X123001204Y-69622298D01*
X123179661Y-69607940D01*
X123179666Y-69607939D01*
X123184702Y-69607534D01*
X123189610Y-69606329D01*
X123189613Y-69606328D01*
X123422092Y-69549225D01*
X123427006Y-69548018D01*
X123431658Y-69546043D01*
X123431662Y-69546042D01*
X123652022Y-69452505D01*
X123652023Y-69452505D01*
X123656677Y-69450529D01*
X123867808Y-69317573D01*
X123965923Y-69231073D01*
X124051168Y-69155920D01*
X124051171Y-69155917D01*
X124054965Y-69152572D01*
X124213334Y-68959770D01*
X124338840Y-68744128D01*
X124428255Y-68511195D01*
X124446272Y-68424955D01*
X124478243Y-68271915D01*
X124479278Y-68266961D01*
X124480948Y-68230200D01*
X124485895Y-68121234D01*
X124490596Y-68017712D01*
X124489692Y-68009894D01*
X124462501Y-67774890D01*
X124461919Y-67769860D01*
X124453152Y-67738876D01*
X124421800Y-67628085D01*
X124393983Y-67529781D01*
X124308594Y-67346662D01*
X124290675Y-67308234D01*
X124290673Y-67308230D01*
X124288538Y-67303652D01*
X124148294Y-67097290D01*
X124013809Y-66955076D01*
X123980344Y-66919688D01*
X123980343Y-66919687D01*
X123976862Y-66916006D01*
X123971789Y-66912127D01*
X123782677Y-66767540D01*
X123782676Y-66767539D01*
X123778651Y-66764462D01*
X123558761Y-66646557D01*
X123322848Y-66565326D01*
X123194901Y-66543226D01*
X123080893Y-66523533D01*
X123080887Y-66523532D01*
X123076983Y-66522858D01*
X123073022Y-66522678D01*
X123073021Y-66522678D01*
X123048497Y-66521564D01*
X123048478Y-66521564D01*
X123047078Y-66521500D01*
X122873309Y-66521500D01*
X122870801Y-66521702D01*
X122870796Y-66521702D01*
X122692339Y-66536060D01*
X122692334Y-66536061D01*
X122687298Y-66536466D01*
X122682390Y-66537671D01*
X122682387Y-66537672D01*
X122461222Y-66591996D01*
X122444994Y-66595982D01*
X122440342Y-66597957D01*
X122440338Y-66597958D01*
X122219978Y-66691495D01*
X122215323Y-66693471D01*
X122004192Y-66826427D01*
X121980684Y-66847152D01*
X121820832Y-66988080D01*
X121820829Y-66988083D01*
X121817035Y-66991428D01*
X121658666Y-67184230D01*
X121533160Y-67399872D01*
X121443745Y-67632805D01*
X121442712Y-67637751D01*
X121442710Y-67637757D01*
X121416361Y-67763886D01*
X121392722Y-67877039D01*
X121392493Y-67882088D01*
X121392492Y-67882094D01*
X121389014Y-67958704D01*
X121381404Y-68126288D01*
X106790800Y-68126288D01*
X106790800Y-68050470D01*
X106814477Y-67976944D01*
X106829227Y-67956417D01*
X106833661Y-67950247D01*
X106841592Y-67930520D01*
X106894066Y-67799987D01*
X106894067Y-67799985D01*
X106896901Y-67792934D01*
X106918986Y-67637757D01*
X106920209Y-67629162D01*
X106920209Y-67629159D01*
X106920790Y-67625078D01*
X106920945Y-67610300D01*
X106919140Y-67595380D01*
X106911201Y-67529781D01*
X106900576Y-67441980D01*
X106840645Y-67283377D01*
X106744612Y-67143649D01*
X106697284Y-67101481D01*
X106623692Y-67035912D01*
X106623688Y-67035910D01*
X106618021Y-67030860D01*
X106605156Y-67024048D01*
X106537223Y-66988080D01*
X106468181Y-66951524D01*
X106303741Y-66910219D01*
X106296143Y-66910179D01*
X106296141Y-66910179D01*
X106218968Y-66909775D01*
X106134195Y-66909331D01*
X106126808Y-66911105D01*
X106126804Y-66911105D01*
X105983462Y-66945520D01*
X105969332Y-66948912D01*
X105962588Y-66952393D01*
X105962585Y-66952394D01*
X105831140Y-67020238D01*
X105818669Y-67026675D01*
X105812947Y-67031667D01*
X105812945Y-67031668D01*
X105800807Y-67042257D01*
X105690904Y-67138131D01*
X105593413Y-67276847D01*
X105531824Y-67434813D01*
X105530832Y-67442346D01*
X105530832Y-67442347D01*
X105517854Y-67540931D01*
X105509694Y-67602911D01*
X105528299Y-67771435D01*
X105586566Y-67930656D01*
X105590801Y-67936959D01*
X105590805Y-67936966D01*
X105618381Y-67978003D01*
X105639800Y-68048279D01*
X105639800Y-79719881D01*
X105619798Y-79788002D01*
X105566142Y-79834495D01*
X105495868Y-79844599D01*
X105483109Y-79842086D01*
X105356641Y-79810319D01*
X105349043Y-79810279D01*
X105349041Y-79810279D01*
X105271868Y-79809875D01*
X105187095Y-79809431D01*
X105179708Y-79811205D01*
X105179704Y-79811205D01*
X105082698Y-79834495D01*
X105022232Y-79849012D01*
X105015488Y-79852493D01*
X105015485Y-79852494D01*
X104895386Y-79914482D01*
X104871569Y-79926775D01*
X104743804Y-80038231D01*
X104739437Y-80044445D01*
X104654144Y-80165805D01*
X104646313Y-80176947D01*
X104584724Y-80334913D01*
X104583472Y-80344423D01*
X104582883Y-80345756D01*
X104581844Y-80349801D01*
X104581170Y-80349628D01*
X104554753Y-80409349D01*
X104547645Y-80417075D01*
X104078005Y-80886715D01*
X104015693Y-80920741D01*
X103944878Y-80915676D01*
X103888042Y-80873129D01*
X103863823Y-80812757D01*
X103850688Y-80704220D01*
X103849776Y-80696680D01*
X103789845Y-80538077D01*
X103735820Y-80459470D01*
X103698114Y-80404608D01*
X103698113Y-80404607D01*
X103693812Y-80398349D01*
X103680885Y-80386831D01*
X103572892Y-80290612D01*
X103572888Y-80290610D01*
X103567221Y-80285560D01*
X103417381Y-80206224D01*
X103252941Y-80164919D01*
X103245343Y-80164879D01*
X103245341Y-80164879D01*
X103168168Y-80164475D01*
X103083395Y-80164031D01*
X103076008Y-80165805D01*
X103076004Y-80165805D01*
X102936959Y-80199188D01*
X102918532Y-80203612D01*
X102911788Y-80207093D01*
X102911785Y-80207094D01*
X102906589Y-80209776D01*
X102767869Y-80281375D01*
X102640104Y-80392831D01*
X102635737Y-80399045D01*
X102567377Y-80496312D01*
X102542613Y-80531547D01*
X102481024Y-80689513D01*
X102479772Y-80699023D01*
X102479183Y-80700356D01*
X102478144Y-80704401D01*
X102477470Y-80704228D01*
X102451053Y-80763949D01*
X102443945Y-80771675D01*
X98859370Y-84356250D01*
X98846979Y-84367117D01*
X98823349Y-84385249D01*
X98800191Y-84415429D01*
X98800188Y-84415432D01*
X98731102Y-84505467D01*
X98673113Y-84645464D01*
X98658300Y-84757980D01*
X98658300Y-84757986D01*
X98653335Y-84795700D01*
X98654413Y-84803888D01*
X98654413Y-84803889D01*
X98657222Y-84825226D01*
X98658300Y-84841672D01*
X98658300Y-91190028D01*
X98657222Y-91206474D01*
X98653335Y-91236000D01*
X95246499Y-91236000D01*
X95248210Y-91227811D01*
X95268243Y-91131915D01*
X95269278Y-91126961D01*
X95269518Y-91121695D01*
X95277089Y-90954934D01*
X95280596Y-90877712D01*
X95277090Y-90847405D01*
X95252501Y-90634890D01*
X95251919Y-90629860D01*
X95232932Y-90562760D01*
X95187693Y-90402891D01*
X95183983Y-90389781D01*
X95108600Y-90228120D01*
X95080675Y-90168234D01*
X95080673Y-90168230D01*
X95078538Y-90163652D01*
X95060105Y-90136528D01*
X94996837Y-90043433D01*
X94938294Y-89957290D01*
X94766862Y-89776006D01*
X94684415Y-89712970D01*
X94572677Y-89627540D01*
X94572676Y-89627539D01*
X94568651Y-89624462D01*
X94348761Y-89506557D01*
X94112848Y-89425326D01*
X93984901Y-89403226D01*
X93870893Y-89383533D01*
X93870887Y-89383532D01*
X93866983Y-89382858D01*
X93863022Y-89382678D01*
X93863021Y-89382678D01*
X93838497Y-89381564D01*
X93838478Y-89381564D01*
X93837078Y-89381500D01*
X93663309Y-89381500D01*
X93660801Y-89381702D01*
X93660796Y-89381702D01*
X93482339Y-89396060D01*
X93482334Y-89396061D01*
X93477298Y-89396466D01*
X93472390Y-89397671D01*
X93472387Y-89397672D01*
X93292162Y-89441940D01*
X93234994Y-89455982D01*
X93230342Y-89457957D01*
X93230338Y-89457958D01*
X93021058Y-89546792D01*
X93005323Y-89553471D01*
X92794192Y-89686427D01*
X92790398Y-89689772D01*
X92610832Y-89848080D01*
X92610829Y-89848083D01*
X92607035Y-89851428D01*
X92603825Y-89855336D01*
X92603824Y-89855337D01*
X92578180Y-89886556D01*
X92448666Y-90044230D01*
X92323160Y-90259872D01*
X92233745Y-90492805D01*
X92232712Y-90497751D01*
X92232710Y-90497757D01*
X92196687Y-90670192D01*
X92182722Y-90737039D01*
X92182493Y-90742088D01*
X92182492Y-90742094D01*
X92177710Y-90847405D01*
X92171404Y-90986288D01*
X91300000Y-90986288D01*
X91300000Y-78245966D01*
X94680257Y-78245966D01*
X94710565Y-78380446D01*
X94713645Y-78390275D01*
X94793770Y-78587603D01*
X94798413Y-78596794D01*
X94909694Y-78778388D01*
X94915777Y-78786699D01*
X95055213Y-78947667D01*
X95062580Y-78954883D01*
X95226434Y-79090916D01*
X95234876Y-79096828D01*
X95296284Y-79132712D01*
X95345007Y-79184351D01*
X95358078Y-79254134D01*
X95331346Y-79319906D01*
X95273299Y-79360784D01*
X95232713Y-79367500D01*
X95117354Y-79367500D01*
X95113650Y-79367941D01*
X95113647Y-79367941D01*
X95106254Y-79368821D01*
X95091154Y-79370618D01*
X94988847Y-79416061D01*
X94909759Y-79495287D01*
X94864494Y-79597673D01*
X94861500Y-79623354D01*
X94861500Y-81412646D01*
X94864618Y-81438846D01*
X94910061Y-81541153D01*
X94989287Y-81620241D01*
X94999924Y-81624944D01*
X94999926Y-81624945D01*
X95059462Y-81651265D01*
X95091673Y-81665506D01*
X95117354Y-81668500D01*
X96906646Y-81668500D01*
X96910350Y-81668059D01*
X96910353Y-81668059D01*
X96917746Y-81667179D01*
X96932846Y-81665382D01*
X97035153Y-81619939D01*
X97114241Y-81540713D01*
X97119452Y-81528928D01*
X97155675Y-81446992D01*
X97159506Y-81438327D01*
X97162500Y-81412646D01*
X97162500Y-79623354D01*
X97159382Y-79597154D01*
X97113939Y-79494847D01*
X97034713Y-79415759D01*
X97024076Y-79411056D01*
X97024074Y-79411055D01*
X96964538Y-79384735D01*
X96932327Y-79370494D01*
X96906646Y-79367500D01*
X96796285Y-79367500D01*
X96728164Y-79347498D01*
X96681671Y-79293842D01*
X96671567Y-79223568D01*
X96701061Y-79158988D01*
X96723117Y-79138921D01*
X96887328Y-79021792D01*
X96895200Y-79015139D01*
X97046052Y-78864812D01*
X97052730Y-78856965D01*
X97177003Y-78684020D01*
X97182313Y-78675183D01*
X97276670Y-78484267D01*
X97280469Y-78474672D01*
X97342377Y-78270910D01*
X97344555Y-78260837D01*
X97345986Y-78249962D01*
X97343775Y-78235778D01*
X97330617Y-78232000D01*
X94695225Y-78232000D01*
X94681694Y-78235973D01*
X94680257Y-78245966D01*
X91300000Y-78245966D01*
X91300000Y-77712183D01*
X94676389Y-77712183D01*
X94677912Y-77720607D01*
X94690292Y-77724000D01*
X95739885Y-77724000D01*
X95755124Y-77719525D01*
X95756329Y-77718135D01*
X95758000Y-77710452D01*
X95758000Y-77705885D01*
X96266000Y-77705885D01*
X96270475Y-77721124D01*
X96271865Y-77722329D01*
X96279548Y-77724000D01*
X97330344Y-77724000D01*
X97343875Y-77720027D01*
X97345180Y-77710947D01*
X97303214Y-77543875D01*
X97299894Y-77534124D01*
X97214972Y-77338814D01*
X97210105Y-77329739D01*
X97094426Y-77150926D01*
X97088136Y-77142757D01*
X96944806Y-76985240D01*
X96937273Y-76978215D01*
X96770139Y-76846222D01*
X96761552Y-76840517D01*
X96575117Y-76737599D01*
X96565705Y-76733369D01*
X96364959Y-76662280D01*
X96354988Y-76659646D01*
X96283837Y-76646972D01*
X96270540Y-76648432D01*
X96266000Y-76662989D01*
X96266000Y-77705885D01*
X95758000Y-77705885D01*
X95758000Y-76661102D01*
X95754082Y-76647758D01*
X95739806Y-76645771D01*
X95701324Y-76651660D01*
X95691288Y-76654051D01*
X95488868Y-76720212D01*
X95479359Y-76724209D01*
X95290463Y-76822542D01*
X95281738Y-76828036D01*
X95111433Y-76955905D01*
X95103726Y-76962748D01*
X94956590Y-77116717D01*
X94950104Y-77124727D01*
X94830098Y-77300649D01*
X94825000Y-77309623D01*
X94735338Y-77502783D01*
X94731775Y-77512470D01*
X94676389Y-77712183D01*
X91300000Y-77712183D01*
X91300000Y-73302966D01*
X94680257Y-73302966D01*
X94710565Y-73437446D01*
X94713645Y-73447275D01*
X94793770Y-73644603D01*
X94798413Y-73653794D01*
X94909694Y-73835388D01*
X94915777Y-73843699D01*
X95055213Y-74004667D01*
X95062580Y-74011883D01*
X95226434Y-74147916D01*
X95234881Y-74153831D01*
X95418756Y-74261279D01*
X95428042Y-74265729D01*
X95627001Y-74341703D01*
X95636899Y-74344579D01*
X95740250Y-74365606D01*
X95754299Y-74364410D01*
X95758000Y-74354065D01*
X95758000Y-74353517D01*
X96266000Y-74353517D01*
X96270064Y-74367359D01*
X96283478Y-74369393D01*
X96290184Y-74368534D01*
X96300262Y-74366392D01*
X96504255Y-74305191D01*
X96513842Y-74301433D01*
X96705095Y-74207739D01*
X96713945Y-74202464D01*
X96887328Y-74078792D01*
X96895200Y-74072139D01*
X97046052Y-73921812D01*
X97052730Y-73913965D01*
X97177003Y-73741020D01*
X97182313Y-73732183D01*
X97276670Y-73541267D01*
X97280469Y-73531672D01*
X97342377Y-73327910D01*
X97344555Y-73317837D01*
X97345986Y-73306962D01*
X97343775Y-73292778D01*
X97330617Y-73289000D01*
X96284115Y-73289000D01*
X96268876Y-73293475D01*
X96267671Y-73294865D01*
X96266000Y-73302548D01*
X96266000Y-74353517D01*
X95758000Y-74353517D01*
X95758000Y-73307115D01*
X95753525Y-73291876D01*
X95752135Y-73290671D01*
X95744452Y-73289000D01*
X94695225Y-73289000D01*
X94681694Y-73292973D01*
X94680257Y-73302966D01*
X91300000Y-73302966D01*
X91300000Y-72769183D01*
X94676389Y-72769183D01*
X94677912Y-72777607D01*
X94690292Y-72781000D01*
X97330344Y-72781000D01*
X97343875Y-72777027D01*
X97345180Y-72767947D01*
X97303214Y-72600875D01*
X97299894Y-72591124D01*
X97214972Y-72395814D01*
X97210105Y-72386739D01*
X97094426Y-72207926D01*
X97088136Y-72199757D01*
X96944806Y-72042240D01*
X96937273Y-72035215D01*
X96770139Y-71903222D01*
X96761552Y-71897517D01*
X96575117Y-71794599D01*
X96565705Y-71790369D01*
X96514178Y-71772122D01*
X96456642Y-71730528D01*
X96430726Y-71664430D01*
X96444660Y-71594814D01*
X96494672Y-71543415D01*
X96509041Y-71535368D01*
X96666442Y-71447219D01*
X96829012Y-71312012D01*
X96964219Y-71149442D01*
X96967043Y-71144399D01*
X96967046Y-71144395D01*
X97064713Y-70969998D01*
X97064714Y-70969996D01*
X97067537Y-70964955D01*
X97069393Y-70959488D01*
X97069395Y-70959483D01*
X97133647Y-70770200D01*
X97135504Y-70764730D01*
X97165846Y-70555470D01*
X97167429Y-70495000D01*
X97148081Y-70284440D01*
X97090686Y-70080931D01*
X97079553Y-70058354D01*
X96999719Y-69896469D01*
X96997165Y-69891290D01*
X96870651Y-69721867D01*
X96760957Y-69620467D01*
X96719622Y-69582257D01*
X96719620Y-69582255D01*
X96715381Y-69578337D01*
X96589786Y-69499092D01*
X96541434Y-69468584D01*
X96541433Y-69468584D01*
X96536554Y-69465505D01*
X96340160Y-69387152D01*
X96334503Y-69386027D01*
X96334497Y-69386025D01*
X96137234Y-69346788D01*
X96074324Y-69313881D01*
X96039192Y-69252186D01*
X96042992Y-69181291D01*
X96084517Y-69123705D01*
X96143734Y-69098513D01*
X96276015Y-69079333D01*
X96276019Y-69079332D01*
X96281730Y-69078504D01*
X96364540Y-69050394D01*
X96476483Y-69012395D01*
X96476488Y-69012393D01*
X96481955Y-69010537D01*
X96486998Y-69007713D01*
X96661395Y-68910046D01*
X96661399Y-68910043D01*
X96666442Y-68907219D01*
X96829012Y-68772012D01*
X96964219Y-68609442D01*
X96967043Y-68604399D01*
X96967046Y-68604395D01*
X97064713Y-68429998D01*
X97064714Y-68429996D01*
X97067537Y-68424955D01*
X97069393Y-68419488D01*
X97069395Y-68419483D01*
X97133647Y-68230200D01*
X97135504Y-68224730D01*
X97149050Y-68131312D01*
X97165314Y-68019140D01*
X97165314Y-68019138D01*
X97165846Y-68015470D01*
X97167429Y-67955000D01*
X97148081Y-67744440D01*
X97090686Y-67540931D01*
X97085188Y-67529781D01*
X96999719Y-67356469D01*
X96997165Y-67351290D01*
X96870651Y-67181867D01*
X96715381Y-67038337D01*
X96682014Y-67017284D01*
X96541434Y-66928584D01*
X96541433Y-66928584D01*
X96536554Y-66925505D01*
X96340160Y-66847152D01*
X96334503Y-66846027D01*
X96334497Y-66846025D01*
X96178916Y-66815079D01*
X96116006Y-66782172D01*
X96080874Y-66720477D01*
X96084674Y-66649582D01*
X96126199Y-66591996D01*
X96192266Y-66566002D01*
X96203497Y-66565500D01*
X96906646Y-66565500D01*
X96910350Y-66565059D01*
X96910353Y-66565059D01*
X96917746Y-66564179D01*
X96932846Y-66562382D01*
X96988477Y-66537672D01*
X97024518Y-66521663D01*
X97035153Y-66516939D01*
X97114241Y-66437713D01*
X97159506Y-66335327D01*
X97162500Y-66309646D01*
X97162500Y-64520354D01*
X97159382Y-64494154D01*
X97113939Y-64391847D01*
X97034713Y-64312759D01*
X97024076Y-64308056D01*
X97024074Y-64308055D01*
X96964538Y-64281735D01*
X96932327Y-64267494D01*
X96922916Y-64266397D01*
X96913776Y-64263905D01*
X96914191Y-64262384D01*
X96858568Y-64238761D01*
X96818598Y-64180085D01*
X96812500Y-64141361D01*
X96812500Y-61725598D01*
X96832502Y-61657477D01*
X96886158Y-61610984D01*
X96914361Y-61603075D01*
X96914342Y-61603005D01*
X96923459Y-61600499D01*
X96932846Y-61599382D01*
X97035153Y-61553939D01*
X97114241Y-61474713D01*
X97159506Y-61372327D01*
X97162500Y-61346646D01*
X97162500Y-59557354D01*
X97159382Y-59531154D01*
X97113939Y-59428847D01*
X97034713Y-59349759D01*
X97024076Y-59345056D01*
X97024074Y-59345055D01*
X96964538Y-59318735D01*
X96932327Y-59304494D01*
X96906646Y-59301500D01*
X96796285Y-59301500D01*
X96728164Y-59281498D01*
X96681671Y-59227842D01*
X96671567Y-59157568D01*
X96701061Y-59092988D01*
X96723117Y-59072921D01*
X96887328Y-58955792D01*
X96895200Y-58949139D01*
X97046052Y-58798812D01*
X97052730Y-58790965D01*
X97177003Y-58618020D01*
X97182313Y-58609183D01*
X97276670Y-58418267D01*
X97280469Y-58408672D01*
X97342377Y-58204910D01*
X97344555Y-58194837D01*
X97345986Y-58183962D01*
X97343775Y-58169778D01*
X97330617Y-58166000D01*
X94695225Y-58166000D01*
X94681694Y-58169973D01*
X94680257Y-58179966D01*
X94710565Y-58314446D01*
X94713645Y-58324275D01*
X94793770Y-58521603D01*
X94798413Y-58530794D01*
X94909694Y-58712388D01*
X94915777Y-58720699D01*
X95055213Y-58881667D01*
X95062580Y-58888883D01*
X95226434Y-59024916D01*
X95234876Y-59030828D01*
X95296284Y-59066712D01*
X95345007Y-59118351D01*
X95358078Y-59188134D01*
X95331346Y-59253906D01*
X95273299Y-59294784D01*
X95232713Y-59301500D01*
X95117354Y-59301500D01*
X95113650Y-59301941D01*
X95113647Y-59301941D01*
X95106254Y-59302821D01*
X95091154Y-59304618D01*
X94988847Y-59350061D01*
X94909759Y-59429287D01*
X94864494Y-59531673D01*
X94861500Y-59557354D01*
X94861500Y-61346646D01*
X94864618Y-61372846D01*
X94910061Y-61475153D01*
X94989287Y-61554241D01*
X94999924Y-61558944D01*
X94999926Y-61558945D01*
X95059462Y-61585265D01*
X95091673Y-61599506D01*
X95101084Y-61600603D01*
X95110224Y-61603095D01*
X95109809Y-61604616D01*
X95165432Y-61628239D01*
X95205402Y-61686915D01*
X95211500Y-61725639D01*
X95211500Y-64141402D01*
X95191498Y-64209523D01*
X95137842Y-64256016D01*
X95109639Y-64263925D01*
X95109658Y-64263995D01*
X95100541Y-64266501D01*
X95091154Y-64267618D01*
X94988847Y-64313061D01*
X94909759Y-64392287D01*
X94864494Y-64494673D01*
X94861500Y-64520354D01*
X94861500Y-66309646D01*
X94864618Y-66335846D01*
X94910061Y-66438153D01*
X94989287Y-66517241D01*
X94999924Y-66521944D01*
X94999926Y-66521945D01*
X95031854Y-66536060D01*
X95091673Y-66562506D01*
X95117354Y-66565500D01*
X95826988Y-66565500D01*
X95895109Y-66585502D01*
X95941602Y-66639158D01*
X95951706Y-66709432D01*
X95922212Y-66774012D01*
X95862486Y-66812396D01*
X95848326Y-66815680D01*
X95718650Y-66837962D01*
X95718649Y-66837962D01*
X95712953Y-66838941D01*
X95514575Y-66912127D01*
X95509614Y-66915079D01*
X95509613Y-66915079D01*
X95492089Y-66925505D01*
X95332856Y-67020238D01*
X95173881Y-67159655D01*
X95042976Y-67325708D01*
X95040287Y-67330819D01*
X95040285Y-67330822D01*
X95026792Y-67356469D01*
X94944523Y-67512836D01*
X94881820Y-67714773D01*
X94856967Y-67924754D01*
X94870796Y-68135749D01*
X94872217Y-68141345D01*
X94872218Y-68141350D01*
X94894784Y-68230200D01*
X94922845Y-68340690D01*
X95011369Y-68532714D01*
X95133405Y-68705391D01*
X95284865Y-68852937D01*
X95289661Y-68856142D01*
X95289664Y-68856144D01*
X95432936Y-68951875D01*
X95460677Y-68970411D01*
X95465985Y-68972692D01*
X95465986Y-68972692D01*
X95649650Y-69051600D01*
X95649653Y-69051601D01*
X95654953Y-69053878D01*
X95660582Y-69055152D01*
X95660583Y-69055152D01*
X95855550Y-69099269D01*
X95855553Y-69099269D01*
X95861186Y-69100544D01*
X95866958Y-69100771D01*
X95872687Y-69101525D01*
X95872327Y-69104257D01*
X95928604Y-69123216D01*
X95972950Y-69178659D01*
X95980282Y-69249276D01*
X95948271Y-69312647D01*
X95887081Y-69348651D01*
X95877704Y-69350632D01*
X95718650Y-69377962D01*
X95718649Y-69377962D01*
X95712953Y-69378941D01*
X95514575Y-69452127D01*
X95509614Y-69455079D01*
X95509613Y-69455079D01*
X95435634Y-69499092D01*
X95332856Y-69560238D01*
X95173881Y-69699655D01*
X95042976Y-69865708D01*
X95040287Y-69870819D01*
X95040285Y-69870822D01*
X95026792Y-69896469D01*
X94944523Y-70052836D01*
X94881820Y-70254773D01*
X94856967Y-70464754D01*
X94870796Y-70675749D01*
X94872217Y-70681345D01*
X94872218Y-70681350D01*
X94894784Y-70770200D01*
X94922845Y-70880690D01*
X95011369Y-71072714D01*
X95133405Y-71245391D01*
X95284865Y-71392937D01*
X95289661Y-71396142D01*
X95289664Y-71396144D01*
X95370333Y-71450045D01*
X95460677Y-71510411D01*
X95465980Y-71512690D01*
X95465985Y-71512692D01*
X95500818Y-71527657D01*
X95518768Y-71535369D01*
X95573460Y-71580636D01*
X95594998Y-71648287D01*
X95576541Y-71716842D01*
X95523951Y-71764537D01*
X95508175Y-71770901D01*
X95488868Y-71777212D01*
X95479359Y-71781209D01*
X95290463Y-71879542D01*
X95281738Y-71885036D01*
X95111433Y-72012905D01*
X95103726Y-72019748D01*
X94956590Y-72173717D01*
X94950104Y-72181727D01*
X94830098Y-72357649D01*
X94825000Y-72366623D01*
X94735338Y-72559783D01*
X94731775Y-72569470D01*
X94676389Y-72769183D01*
X91300000Y-72769183D01*
X91300000Y-57646183D01*
X94676389Y-57646183D01*
X94677912Y-57654607D01*
X94690292Y-57658000D01*
X95739885Y-57658000D01*
X95755124Y-57653525D01*
X95756329Y-57652135D01*
X95758000Y-57644452D01*
X95758000Y-57639885D01*
X96266000Y-57639885D01*
X96270475Y-57655124D01*
X96271865Y-57656329D01*
X96279548Y-57658000D01*
X97330344Y-57658000D01*
X97343875Y-57654027D01*
X97345180Y-57644947D01*
X97303214Y-57477875D01*
X97299894Y-57468124D01*
X97214972Y-57272814D01*
X97210105Y-57263739D01*
X97094426Y-57084926D01*
X97088136Y-57076757D01*
X96944806Y-56919240D01*
X96937273Y-56912215D01*
X96770139Y-56780222D01*
X96761552Y-56774517D01*
X96575117Y-56671599D01*
X96565705Y-56667369D01*
X96364959Y-56596280D01*
X96354988Y-56593646D01*
X96283837Y-56580972D01*
X96270540Y-56582432D01*
X96266000Y-56596989D01*
X96266000Y-57639885D01*
X95758000Y-57639885D01*
X95758000Y-56595102D01*
X95754082Y-56581758D01*
X95739806Y-56579771D01*
X95701324Y-56585660D01*
X95691288Y-56588051D01*
X95488868Y-56654212D01*
X95479359Y-56658209D01*
X95290463Y-56756542D01*
X95281738Y-56762036D01*
X95111433Y-56889905D01*
X95103726Y-56896748D01*
X94956590Y-57050717D01*
X94950104Y-57058727D01*
X94830098Y-57234649D01*
X94825000Y-57243623D01*
X94735338Y-57436783D01*
X94731775Y-57446470D01*
X94676389Y-57646183D01*
X91300000Y-57646183D01*
X91300000Y-52124288D01*
X92171404Y-52124288D01*
X92171985Y-52129308D01*
X92171985Y-52129312D01*
X92179952Y-52198171D01*
X92200081Y-52372140D01*
X92268017Y-52612219D01*
X92308592Y-52699232D01*
X92365560Y-52821401D01*
X92373462Y-52838348D01*
X92376304Y-52842529D01*
X92376304Y-52842530D01*
X92410901Y-52893437D01*
X92513706Y-53044710D01*
X92685138Y-53225994D01*
X92689164Y-53229072D01*
X92689165Y-53229073D01*
X92784491Y-53301955D01*
X92883349Y-53377538D01*
X93103239Y-53495443D01*
X93339152Y-53576674D01*
X93467099Y-53598774D01*
X93581107Y-53618467D01*
X93581113Y-53618468D01*
X93585017Y-53619142D01*
X93588978Y-53619322D01*
X93588979Y-53619322D01*
X93613503Y-53620436D01*
X93613522Y-53620436D01*
X93614922Y-53620500D01*
X93788691Y-53620500D01*
X93791199Y-53620298D01*
X93791204Y-53620298D01*
X93969661Y-53605940D01*
X93969666Y-53605939D01*
X93974702Y-53605534D01*
X93979610Y-53604329D01*
X93979613Y-53604328D01*
X94212092Y-53547225D01*
X94217006Y-53546018D01*
X94221658Y-53544043D01*
X94221662Y-53544042D01*
X94442022Y-53450505D01*
X94442023Y-53450505D01*
X94446677Y-53448529D01*
X94657808Y-53315573D01*
X94755923Y-53229073D01*
X94841168Y-53153920D01*
X94841171Y-53153917D01*
X94844965Y-53150572D01*
X94886533Y-53099966D01*
X97967257Y-53099966D01*
X97997565Y-53234446D01*
X98000645Y-53244275D01*
X98080770Y-53441603D01*
X98085413Y-53450794D01*
X98196694Y-53632388D01*
X98202777Y-53640699D01*
X98342213Y-53801667D01*
X98349580Y-53808883D01*
X98513434Y-53944916D01*
X98521881Y-53950831D01*
X98705756Y-54058279D01*
X98715042Y-54062729D01*
X98914001Y-54138703D01*
X98923899Y-54141579D01*
X99027250Y-54162606D01*
X99041299Y-54161410D01*
X99045000Y-54151065D01*
X99045000Y-54150517D01*
X99553000Y-54150517D01*
X99557064Y-54164359D01*
X99570478Y-54166393D01*
X99577184Y-54165534D01*
X99587262Y-54163392D01*
X99791255Y-54102191D01*
X99800842Y-54098433D01*
X99992095Y-54004739D01*
X100000945Y-53999464D01*
X100174328Y-53875792D01*
X100182200Y-53869139D01*
X100333052Y-53718812D01*
X100339730Y-53710965D01*
X100464003Y-53538020D01*
X100469313Y-53529183D01*
X100563670Y-53338267D01*
X100567019Y-53329809D01*
X100610693Y-53273836D01*
X100677696Y-53250359D01*
X100746755Y-53266835D01*
X100798597Y-53323442D01*
X100822117Y-53374460D01*
X100838369Y-53409714D01*
X100960405Y-53582391D01*
X100964539Y-53586418D01*
X101104727Y-53722983D01*
X101111865Y-53729937D01*
X101116661Y-53733142D01*
X101116664Y-53733144D01*
X101219216Y-53801667D01*
X101287677Y-53847411D01*
X101292985Y-53849692D01*
X101292986Y-53849692D01*
X101476650Y-53928600D01*
X101476653Y-53928601D01*
X101481953Y-53930878D01*
X101487582Y-53932152D01*
X101487583Y-53932152D01*
X101682550Y-53976269D01*
X101682553Y-53976269D01*
X101688186Y-53977544D01*
X101693957Y-53977771D01*
X101693959Y-53977771D01*
X101755989Y-53980208D01*
X101899470Y-53985846D01*
X101905179Y-53985018D01*
X101905183Y-53985018D01*
X102103015Y-53956333D01*
X102103019Y-53956332D01*
X102108730Y-53955504D01*
X102195579Y-53926023D01*
X102303483Y-53889395D01*
X102303488Y-53889393D01*
X102308955Y-53887537D01*
X102313998Y-53884713D01*
X102488395Y-53787046D01*
X102488399Y-53787043D01*
X102493442Y-53784219D01*
X102656012Y-53649012D01*
X102791219Y-53486442D01*
X102794043Y-53481399D01*
X102794046Y-53481395D01*
X102891713Y-53306998D01*
X102891714Y-53306996D01*
X102894537Y-53301955D01*
X102896393Y-53296488D01*
X102896395Y-53296483D01*
X102960647Y-53107200D01*
X102962504Y-53101730D01*
X102970772Y-53044710D01*
X102984090Y-52952860D01*
X103013660Y-52888315D01*
X103073432Y-52850003D01*
X103144429Y-52850087D01*
X103204109Y-52888542D01*
X103233525Y-52953158D01*
X103234515Y-52962695D01*
X103237796Y-53012749D01*
X103239217Y-53018345D01*
X103239218Y-53018350D01*
X103261000Y-53104115D01*
X103289845Y-53217690D01*
X103378369Y-53409714D01*
X103500405Y-53582391D01*
X103504539Y-53586418D01*
X103644727Y-53722983D01*
X103651865Y-53729937D01*
X103656661Y-53733142D01*
X103656664Y-53733144D01*
X103759216Y-53801667D01*
X103827677Y-53847411D01*
X103832985Y-53849692D01*
X103832986Y-53849692D01*
X104016650Y-53928600D01*
X104016653Y-53928601D01*
X104021953Y-53930878D01*
X104027582Y-53932152D01*
X104027583Y-53932152D01*
X104222550Y-53976269D01*
X104222553Y-53976269D01*
X104228186Y-53977544D01*
X104233957Y-53977771D01*
X104233959Y-53977771D01*
X104295989Y-53980208D01*
X104439470Y-53985846D01*
X104445179Y-53985018D01*
X104445183Y-53985018D01*
X104643015Y-53956333D01*
X104643019Y-53956332D01*
X104648730Y-53955504D01*
X104735579Y-53926023D01*
X104843483Y-53889395D01*
X104843488Y-53889393D01*
X104848955Y-53887537D01*
X104853998Y-53884713D01*
X105028395Y-53787046D01*
X105028399Y-53787043D01*
X105033442Y-53784219D01*
X105196012Y-53649012D01*
X105331219Y-53486442D01*
X105334043Y-53481399D01*
X105334046Y-53481395D01*
X105431713Y-53306998D01*
X105431714Y-53306996D01*
X105434537Y-53301955D01*
X105436393Y-53296488D01*
X105436395Y-53296483D01*
X105500647Y-53107200D01*
X105502504Y-53101730D01*
X105510772Y-53044710D01*
X105524090Y-52952860D01*
X105553660Y-52888315D01*
X105613432Y-52850003D01*
X105684429Y-52850087D01*
X105744109Y-52888542D01*
X105773525Y-52953158D01*
X105774515Y-52962695D01*
X105777796Y-53012749D01*
X105779217Y-53018345D01*
X105779218Y-53018350D01*
X105801000Y-53104115D01*
X105829845Y-53217690D01*
X105918369Y-53409714D01*
X106040405Y-53582391D01*
X106044539Y-53586418D01*
X106184727Y-53722983D01*
X106191865Y-53729937D01*
X106196661Y-53733142D01*
X106196664Y-53733144D01*
X106299216Y-53801667D01*
X106367677Y-53847411D01*
X106372985Y-53849692D01*
X106372986Y-53849692D01*
X106556650Y-53928600D01*
X106556653Y-53928601D01*
X106561953Y-53930878D01*
X106567582Y-53932152D01*
X106567583Y-53932152D01*
X106762550Y-53976269D01*
X106762553Y-53976269D01*
X106768186Y-53977544D01*
X106773957Y-53977771D01*
X106773959Y-53977771D01*
X106835989Y-53980208D01*
X106979470Y-53985846D01*
X106985179Y-53985018D01*
X106985183Y-53985018D01*
X107183015Y-53956333D01*
X107183019Y-53956332D01*
X107188730Y-53955504D01*
X107275579Y-53926023D01*
X107383483Y-53889395D01*
X107383488Y-53889393D01*
X107388955Y-53887537D01*
X107393998Y-53884713D01*
X107568395Y-53787046D01*
X107568399Y-53787043D01*
X107573442Y-53784219D01*
X107736012Y-53649012D01*
X107871219Y-53486442D01*
X107874043Y-53481399D01*
X107874046Y-53481395D01*
X107971713Y-53306998D01*
X107971714Y-53306996D01*
X107974537Y-53301955D01*
X107976393Y-53296488D01*
X107976395Y-53296483D01*
X108040647Y-53107200D01*
X108042504Y-53101730D01*
X108050772Y-53044710D01*
X108064090Y-52952860D01*
X108093660Y-52888315D01*
X108153432Y-52850003D01*
X108224429Y-52850087D01*
X108284109Y-52888542D01*
X108313525Y-52953158D01*
X108314515Y-52962695D01*
X108317796Y-53012749D01*
X108319217Y-53018345D01*
X108319218Y-53018350D01*
X108341000Y-53104115D01*
X108369845Y-53217690D01*
X108458369Y-53409714D01*
X108580405Y-53582391D01*
X108584539Y-53586418D01*
X108724727Y-53722983D01*
X108731865Y-53729937D01*
X108736661Y-53733142D01*
X108736664Y-53733144D01*
X108839216Y-53801667D01*
X108907677Y-53847411D01*
X108912985Y-53849692D01*
X108912986Y-53849692D01*
X109096650Y-53928600D01*
X109096653Y-53928601D01*
X109101953Y-53930878D01*
X109107582Y-53932152D01*
X109107583Y-53932152D01*
X109302550Y-53976269D01*
X109302553Y-53976269D01*
X109308186Y-53977544D01*
X109313957Y-53977771D01*
X109313959Y-53977771D01*
X109375989Y-53980208D01*
X109519470Y-53985846D01*
X109525179Y-53985018D01*
X109525183Y-53985018D01*
X109723015Y-53956333D01*
X109723019Y-53956332D01*
X109728730Y-53955504D01*
X109815579Y-53926023D01*
X109923483Y-53889395D01*
X109923488Y-53889393D01*
X109928955Y-53887537D01*
X109933998Y-53884713D01*
X110108395Y-53787046D01*
X110108399Y-53787043D01*
X110113442Y-53784219D01*
X110276012Y-53649012D01*
X110411219Y-53486442D01*
X110414043Y-53481399D01*
X110414046Y-53481395D01*
X110511713Y-53306998D01*
X110511714Y-53306996D01*
X110514537Y-53301955D01*
X110516393Y-53296488D01*
X110516395Y-53296483D01*
X110580647Y-53107200D01*
X110582504Y-53101730D01*
X110590772Y-53044710D01*
X110604090Y-52952860D01*
X110633660Y-52888315D01*
X110693432Y-52850003D01*
X110764429Y-52850087D01*
X110824109Y-52888542D01*
X110853525Y-52953158D01*
X110854515Y-52962695D01*
X110857796Y-53012749D01*
X110859217Y-53018345D01*
X110859218Y-53018350D01*
X110881000Y-53104115D01*
X110909845Y-53217690D01*
X110998369Y-53409714D01*
X111120405Y-53582391D01*
X111124539Y-53586418D01*
X111264727Y-53722983D01*
X111271865Y-53729937D01*
X111276661Y-53733142D01*
X111276664Y-53733144D01*
X111379216Y-53801667D01*
X111447677Y-53847411D01*
X111452985Y-53849692D01*
X111452986Y-53849692D01*
X111636650Y-53928600D01*
X111636653Y-53928601D01*
X111641953Y-53930878D01*
X111647582Y-53932152D01*
X111647583Y-53932152D01*
X111842550Y-53976269D01*
X111842553Y-53976269D01*
X111848186Y-53977544D01*
X111853957Y-53977771D01*
X111853959Y-53977771D01*
X111915989Y-53980208D01*
X112059470Y-53985846D01*
X112065179Y-53985018D01*
X112065183Y-53985018D01*
X112263015Y-53956333D01*
X112263019Y-53956332D01*
X112268730Y-53955504D01*
X112355579Y-53926023D01*
X112463483Y-53889395D01*
X112463488Y-53889393D01*
X112468955Y-53887537D01*
X112473998Y-53884713D01*
X112648395Y-53787046D01*
X112648399Y-53787043D01*
X112653442Y-53784219D01*
X112816012Y-53649012D01*
X112951219Y-53486442D01*
X112954043Y-53481399D01*
X112954046Y-53481395D01*
X113051713Y-53306998D01*
X113051714Y-53306996D01*
X113054537Y-53301955D01*
X113056393Y-53296488D01*
X113056395Y-53296483D01*
X113120647Y-53107200D01*
X113122504Y-53101730D01*
X113130772Y-53044710D01*
X113144090Y-52952860D01*
X113173660Y-52888315D01*
X113233432Y-52850003D01*
X113304429Y-52850087D01*
X113364109Y-52888542D01*
X113393525Y-52953158D01*
X113394515Y-52962695D01*
X113397796Y-53012749D01*
X113399217Y-53018345D01*
X113399218Y-53018350D01*
X113421000Y-53104115D01*
X113449845Y-53217690D01*
X113538369Y-53409714D01*
X113660405Y-53582391D01*
X113664539Y-53586418D01*
X113804727Y-53722983D01*
X113811865Y-53729937D01*
X113816661Y-53733142D01*
X113816664Y-53733144D01*
X113919216Y-53801667D01*
X113987677Y-53847411D01*
X113992985Y-53849692D01*
X113992986Y-53849692D01*
X114176650Y-53928600D01*
X114176653Y-53928601D01*
X114181953Y-53930878D01*
X114187582Y-53932152D01*
X114187583Y-53932152D01*
X114382550Y-53976269D01*
X114382553Y-53976269D01*
X114388186Y-53977544D01*
X114393957Y-53977771D01*
X114393959Y-53977771D01*
X114455989Y-53980208D01*
X114599470Y-53985846D01*
X114605179Y-53985018D01*
X114605183Y-53985018D01*
X114803015Y-53956333D01*
X114803019Y-53956332D01*
X114808730Y-53955504D01*
X114895579Y-53926023D01*
X115003483Y-53889395D01*
X115003488Y-53889393D01*
X115008955Y-53887537D01*
X115013998Y-53884713D01*
X115188395Y-53787046D01*
X115188399Y-53787043D01*
X115193442Y-53784219D01*
X115356012Y-53649012D01*
X115491219Y-53486442D01*
X115494043Y-53481399D01*
X115494046Y-53481395D01*
X115591713Y-53306998D01*
X115591714Y-53306996D01*
X115594537Y-53301955D01*
X115596393Y-53296488D01*
X115596395Y-53296483D01*
X115660647Y-53107200D01*
X115662504Y-53101730D01*
X115670772Y-53044710D01*
X115684090Y-52952860D01*
X115713660Y-52888315D01*
X115773432Y-52850003D01*
X115844429Y-52850087D01*
X115904109Y-52888542D01*
X115933525Y-52953158D01*
X115934515Y-52962695D01*
X115937796Y-53012749D01*
X115939217Y-53018345D01*
X115939218Y-53018350D01*
X115961000Y-53104115D01*
X115989845Y-53217690D01*
X116078369Y-53409714D01*
X116200405Y-53582391D01*
X116204539Y-53586418D01*
X116344727Y-53722983D01*
X116351865Y-53729937D01*
X116356661Y-53733142D01*
X116356664Y-53733144D01*
X116459216Y-53801667D01*
X116527677Y-53847411D01*
X116532985Y-53849692D01*
X116532986Y-53849692D01*
X116716650Y-53928600D01*
X116716653Y-53928601D01*
X116721953Y-53930878D01*
X116727582Y-53932152D01*
X116727583Y-53932152D01*
X116922550Y-53976269D01*
X116922553Y-53976269D01*
X116928186Y-53977544D01*
X116933957Y-53977771D01*
X116933959Y-53977771D01*
X116995989Y-53980208D01*
X117139470Y-53985846D01*
X117145179Y-53985018D01*
X117145183Y-53985018D01*
X117343015Y-53956333D01*
X117343019Y-53956332D01*
X117348730Y-53955504D01*
X117435579Y-53926023D01*
X117543483Y-53889395D01*
X117543488Y-53889393D01*
X117548955Y-53887537D01*
X117553998Y-53884713D01*
X117728395Y-53787046D01*
X117728399Y-53787043D01*
X117733442Y-53784219D01*
X117896012Y-53649012D01*
X118031219Y-53486442D01*
X118034043Y-53481399D01*
X118034046Y-53481395D01*
X118131713Y-53306998D01*
X118131714Y-53306996D01*
X118134537Y-53301955D01*
X118136393Y-53296488D01*
X118136395Y-53296483D01*
X118200647Y-53107200D01*
X118202504Y-53101730D01*
X118217804Y-52996211D01*
X118247374Y-52931665D01*
X118307146Y-52893353D01*
X118378143Y-52893437D01*
X118437823Y-52931892D01*
X118467239Y-52996508D01*
X118468500Y-53014291D01*
X118468500Y-53726646D01*
X118471618Y-53752846D01*
X118517061Y-53855153D01*
X118525294Y-53863372D01*
X118525295Y-53863373D01*
X118551363Y-53889395D01*
X118596287Y-53934241D01*
X118606924Y-53938944D01*
X118606926Y-53938945D01*
X118644382Y-53955504D01*
X118698673Y-53979506D01*
X118724354Y-53982500D01*
X120513646Y-53982500D01*
X120517350Y-53982059D01*
X120517353Y-53982059D01*
X120524746Y-53981179D01*
X120539846Y-53979382D01*
X120642153Y-53933939D01*
X120721241Y-53854713D01*
X120766506Y-53752327D01*
X120769500Y-53726646D01*
X120769500Y-51937354D01*
X120766382Y-51911154D01*
X120750341Y-51875039D01*
X120725663Y-51819482D01*
X120720939Y-51808847D01*
X120712444Y-51800366D01*
X120649945Y-51737977D01*
X120641713Y-51729759D01*
X120631076Y-51725056D01*
X120631074Y-51725055D01*
X120561998Y-51694517D01*
X120539327Y-51684494D01*
X120513646Y-51681500D01*
X118724354Y-51681500D01*
X118720650Y-51681941D01*
X118720647Y-51681941D01*
X118713254Y-51682821D01*
X118698154Y-51684618D01*
X118689514Y-51688456D01*
X118689513Y-51688456D01*
X118623131Y-51717942D01*
X118595847Y-51730061D01*
X118516759Y-51809287D01*
X118512056Y-51819924D01*
X118512055Y-51819926D01*
X118489880Y-51870085D01*
X118471494Y-51911673D01*
X118468500Y-51937354D01*
X118468500Y-52631111D01*
X118448498Y-52699232D01*
X118394842Y-52745725D01*
X118324568Y-52755829D01*
X118259988Y-52726335D01*
X118221604Y-52666609D01*
X118217029Y-52642640D01*
X118215610Y-52627197D01*
X118215081Y-52621440D01*
X118212481Y-52612219D01*
X118159255Y-52423496D01*
X118157686Y-52417931D01*
X118148692Y-52399692D01*
X118066719Y-52233469D01*
X118064165Y-52228290D01*
X117937651Y-52058867D01*
X117810236Y-51941086D01*
X117786622Y-51919257D01*
X117786620Y-51919255D01*
X117782381Y-51915337D01*
X117650641Y-51832215D01*
X117608434Y-51805584D01*
X117608433Y-51805584D01*
X117603554Y-51802505D01*
X117407160Y-51724152D01*
X117401503Y-51723027D01*
X117401497Y-51723025D01*
X117205442Y-51684028D01*
X117205440Y-51684028D01*
X117199775Y-51682901D01*
X117194000Y-51682825D01*
X117193996Y-51682825D01*
X117087976Y-51681437D01*
X116988346Y-51680133D01*
X116982649Y-51681112D01*
X116982648Y-51681112D01*
X116785650Y-51714962D01*
X116785649Y-51714962D01*
X116779953Y-51715941D01*
X116581575Y-51789127D01*
X116576614Y-51792079D01*
X116576613Y-51792079D01*
X116428673Y-51880094D01*
X116399856Y-51897238D01*
X116240881Y-52036655D01*
X116109976Y-52202708D01*
X116107287Y-52207819D01*
X116107285Y-52207822D01*
X116057400Y-52302638D01*
X116011523Y-52389836D01*
X115948820Y-52591773D01*
X115948141Y-52597510D01*
X115934088Y-52716239D01*
X115906217Y-52781537D01*
X115847469Y-52821401D01*
X115776494Y-52823174D01*
X115715828Y-52786295D01*
X115684730Y-52722471D01*
X115683490Y-52712958D01*
X115679232Y-52666609D01*
X115675081Y-52621440D01*
X115672481Y-52612219D01*
X115619255Y-52423496D01*
X115617686Y-52417931D01*
X115608692Y-52399692D01*
X115526719Y-52233469D01*
X115524165Y-52228290D01*
X115397651Y-52058867D01*
X115270236Y-51941086D01*
X115246622Y-51919257D01*
X115246620Y-51919255D01*
X115242381Y-51915337D01*
X115110641Y-51832215D01*
X115068434Y-51805584D01*
X115068433Y-51805584D01*
X115063554Y-51802505D01*
X114867160Y-51724152D01*
X114861503Y-51723027D01*
X114861497Y-51723025D01*
X114665442Y-51684028D01*
X114665440Y-51684028D01*
X114659775Y-51682901D01*
X114654000Y-51682825D01*
X114653996Y-51682825D01*
X114547976Y-51681437D01*
X114448346Y-51680133D01*
X114442649Y-51681112D01*
X114442648Y-51681112D01*
X114245650Y-51714962D01*
X114245649Y-51714962D01*
X114239953Y-51715941D01*
X114041575Y-51789127D01*
X114036614Y-51792079D01*
X114036613Y-51792079D01*
X113888673Y-51880094D01*
X113859856Y-51897238D01*
X113700881Y-52036655D01*
X113569976Y-52202708D01*
X113567287Y-52207819D01*
X113567285Y-52207822D01*
X113517400Y-52302638D01*
X113471523Y-52389836D01*
X113408820Y-52591773D01*
X113408141Y-52597510D01*
X113394088Y-52716239D01*
X113366217Y-52781537D01*
X113307469Y-52821401D01*
X113236494Y-52823174D01*
X113175828Y-52786295D01*
X113144730Y-52722471D01*
X113143490Y-52712958D01*
X113139232Y-52666609D01*
X113135081Y-52621440D01*
X113132481Y-52612219D01*
X113079255Y-52423496D01*
X113077686Y-52417931D01*
X113068692Y-52399692D01*
X112986719Y-52233469D01*
X112984165Y-52228290D01*
X112857651Y-52058867D01*
X112730236Y-51941086D01*
X112706622Y-51919257D01*
X112706620Y-51919255D01*
X112702381Y-51915337D01*
X112570641Y-51832215D01*
X112528434Y-51805584D01*
X112528433Y-51805584D01*
X112523554Y-51802505D01*
X112327160Y-51724152D01*
X112321503Y-51723027D01*
X112321497Y-51723025D01*
X112125442Y-51684028D01*
X112125440Y-51684028D01*
X112119775Y-51682901D01*
X112114000Y-51682825D01*
X112113996Y-51682825D01*
X112007976Y-51681437D01*
X111908346Y-51680133D01*
X111902649Y-51681112D01*
X111902648Y-51681112D01*
X111705650Y-51714962D01*
X111705649Y-51714962D01*
X111699953Y-51715941D01*
X111501575Y-51789127D01*
X111496614Y-51792079D01*
X111496613Y-51792079D01*
X111348673Y-51880094D01*
X111319856Y-51897238D01*
X111160881Y-52036655D01*
X111029976Y-52202708D01*
X111027287Y-52207819D01*
X111027285Y-52207822D01*
X110977400Y-52302638D01*
X110931523Y-52389836D01*
X110868820Y-52591773D01*
X110868141Y-52597510D01*
X110854088Y-52716239D01*
X110826217Y-52781537D01*
X110767469Y-52821401D01*
X110696494Y-52823174D01*
X110635828Y-52786295D01*
X110604730Y-52722471D01*
X110603490Y-52712958D01*
X110599232Y-52666609D01*
X110595081Y-52621440D01*
X110592481Y-52612219D01*
X110539255Y-52423496D01*
X110537686Y-52417931D01*
X110528692Y-52399692D01*
X110446719Y-52233469D01*
X110444165Y-52228290D01*
X110317651Y-52058867D01*
X110190236Y-51941086D01*
X110166622Y-51919257D01*
X110166620Y-51919255D01*
X110162381Y-51915337D01*
X110030641Y-51832215D01*
X109988434Y-51805584D01*
X109988433Y-51805584D01*
X109983554Y-51802505D01*
X109787160Y-51724152D01*
X109781503Y-51723027D01*
X109781497Y-51723025D01*
X109585442Y-51684028D01*
X109585440Y-51684028D01*
X109579775Y-51682901D01*
X109574000Y-51682825D01*
X109573996Y-51682825D01*
X109467976Y-51681437D01*
X109368346Y-51680133D01*
X109362649Y-51681112D01*
X109362648Y-51681112D01*
X109165650Y-51714962D01*
X109165649Y-51714962D01*
X109159953Y-51715941D01*
X108961575Y-51789127D01*
X108956614Y-51792079D01*
X108956613Y-51792079D01*
X108808673Y-51880094D01*
X108779856Y-51897238D01*
X108620881Y-52036655D01*
X108489976Y-52202708D01*
X108487287Y-52207819D01*
X108487285Y-52207822D01*
X108437400Y-52302638D01*
X108391523Y-52389836D01*
X108328820Y-52591773D01*
X108328141Y-52597510D01*
X108314088Y-52716239D01*
X108286217Y-52781537D01*
X108227469Y-52821401D01*
X108156494Y-52823174D01*
X108095828Y-52786295D01*
X108064730Y-52722471D01*
X108063490Y-52712958D01*
X108059232Y-52666609D01*
X108055081Y-52621440D01*
X108052481Y-52612219D01*
X107999255Y-52423496D01*
X107997686Y-52417931D01*
X107988692Y-52399692D01*
X107906719Y-52233469D01*
X107904165Y-52228290D01*
X107777651Y-52058867D01*
X107650236Y-51941086D01*
X107626622Y-51919257D01*
X107626620Y-51919255D01*
X107622381Y-51915337D01*
X107490641Y-51832215D01*
X107448434Y-51805584D01*
X107448433Y-51805584D01*
X107443554Y-51802505D01*
X107247160Y-51724152D01*
X107241503Y-51723027D01*
X107241497Y-51723025D01*
X107045442Y-51684028D01*
X107045440Y-51684028D01*
X107039775Y-51682901D01*
X107034000Y-51682825D01*
X107033996Y-51682825D01*
X106927976Y-51681437D01*
X106828346Y-51680133D01*
X106822649Y-51681112D01*
X106822648Y-51681112D01*
X106625650Y-51714962D01*
X106625649Y-51714962D01*
X106619953Y-51715941D01*
X106421575Y-51789127D01*
X106416614Y-51792079D01*
X106416613Y-51792079D01*
X106268673Y-51880094D01*
X106239856Y-51897238D01*
X106080881Y-52036655D01*
X105949976Y-52202708D01*
X105947287Y-52207819D01*
X105947285Y-52207822D01*
X105897400Y-52302638D01*
X105851523Y-52389836D01*
X105788820Y-52591773D01*
X105788141Y-52597510D01*
X105774088Y-52716239D01*
X105746217Y-52781537D01*
X105687469Y-52821401D01*
X105616494Y-52823174D01*
X105555828Y-52786295D01*
X105524730Y-52722471D01*
X105523490Y-52712958D01*
X105519232Y-52666609D01*
X105515081Y-52621440D01*
X105512481Y-52612219D01*
X105459255Y-52423496D01*
X105457686Y-52417931D01*
X105448692Y-52399692D01*
X105366719Y-52233469D01*
X105364165Y-52228290D01*
X105237651Y-52058867D01*
X105110236Y-51941086D01*
X105086622Y-51919257D01*
X105086620Y-51919255D01*
X105082381Y-51915337D01*
X104950641Y-51832215D01*
X104908434Y-51805584D01*
X104908433Y-51805584D01*
X104903554Y-51802505D01*
X104707160Y-51724152D01*
X104701503Y-51723027D01*
X104701497Y-51723025D01*
X104505442Y-51684028D01*
X104505440Y-51684028D01*
X104499775Y-51682901D01*
X104494000Y-51682825D01*
X104493996Y-51682825D01*
X104387976Y-51681437D01*
X104288346Y-51680133D01*
X104282649Y-51681112D01*
X104282648Y-51681112D01*
X104085650Y-51714962D01*
X104085649Y-51714962D01*
X104079953Y-51715941D01*
X103881575Y-51789127D01*
X103876614Y-51792079D01*
X103876613Y-51792079D01*
X103728673Y-51880094D01*
X103699856Y-51897238D01*
X103540881Y-52036655D01*
X103409976Y-52202708D01*
X103407287Y-52207819D01*
X103407285Y-52207822D01*
X103357400Y-52302638D01*
X103311523Y-52389836D01*
X103248820Y-52591773D01*
X103248141Y-52597510D01*
X103234088Y-52716239D01*
X103206217Y-52781537D01*
X103147469Y-52821401D01*
X103076494Y-52823174D01*
X103015828Y-52786295D01*
X102984730Y-52722471D01*
X102983490Y-52712958D01*
X102979232Y-52666609D01*
X102975081Y-52621440D01*
X102972481Y-52612219D01*
X102919255Y-52423496D01*
X102917686Y-52417931D01*
X102908692Y-52399692D01*
X102826719Y-52233469D01*
X102824165Y-52228290D01*
X102697651Y-52058867D01*
X102570236Y-51941086D01*
X102546622Y-51919257D01*
X102546620Y-51919255D01*
X102542381Y-51915337D01*
X102410641Y-51832215D01*
X102368434Y-51805584D01*
X102368433Y-51805584D01*
X102363554Y-51802505D01*
X102167160Y-51724152D01*
X102161503Y-51723027D01*
X102161497Y-51723025D01*
X101965442Y-51684028D01*
X101965440Y-51684028D01*
X101959775Y-51682901D01*
X101954000Y-51682825D01*
X101953996Y-51682825D01*
X101847976Y-51681437D01*
X101748346Y-51680133D01*
X101742649Y-51681112D01*
X101742648Y-51681112D01*
X101545650Y-51714962D01*
X101545649Y-51714962D01*
X101539953Y-51715941D01*
X101341575Y-51789127D01*
X101336614Y-51792079D01*
X101336613Y-51792079D01*
X101188673Y-51880094D01*
X101159856Y-51897238D01*
X101000881Y-52036655D01*
X100869976Y-52202708D01*
X100867287Y-52207819D01*
X100867285Y-52207822D01*
X100793155Y-52348720D01*
X100743736Y-52399692D01*
X100674603Y-52415855D01*
X100607707Y-52392076D01*
X100566097Y-52340294D01*
X100501971Y-52192814D01*
X100497105Y-52183739D01*
X100381426Y-52004926D01*
X100375136Y-51996757D01*
X100231806Y-51839240D01*
X100224273Y-51832215D01*
X100057139Y-51700222D01*
X100048552Y-51694517D01*
X99862117Y-51591599D01*
X99852705Y-51587369D01*
X99651959Y-51516280D01*
X99641988Y-51513646D01*
X99570837Y-51500972D01*
X99557540Y-51502432D01*
X99553000Y-51516989D01*
X99553000Y-54150517D01*
X99045000Y-54150517D01*
X99045000Y-53104115D01*
X99040525Y-53088876D01*
X99039135Y-53087671D01*
X99031452Y-53086000D01*
X97982225Y-53086000D01*
X97968694Y-53089973D01*
X97967257Y-53099966D01*
X94886533Y-53099966D01*
X95003334Y-52957770D01*
X95128840Y-52742128D01*
X95134903Y-52726335D01*
X95196379Y-52566183D01*
X97963389Y-52566183D01*
X97964912Y-52574607D01*
X97977292Y-52578000D01*
X99026885Y-52578000D01*
X99042124Y-52573525D01*
X99043329Y-52572135D01*
X99045000Y-52564452D01*
X99045000Y-51515102D01*
X99041082Y-51501758D01*
X99026806Y-51499771D01*
X98988324Y-51505660D01*
X98978288Y-51508051D01*
X98775868Y-51574212D01*
X98766359Y-51578209D01*
X98577463Y-51676542D01*
X98568738Y-51682036D01*
X98398433Y-51809905D01*
X98390726Y-51816748D01*
X98243590Y-51970717D01*
X98237104Y-51978727D01*
X98117098Y-52154649D01*
X98112000Y-52163623D01*
X98022338Y-52356783D01*
X98018775Y-52366470D01*
X97963389Y-52566183D01*
X95196379Y-52566183D01*
X95216443Y-52513915D01*
X95218255Y-52509195D01*
X95236159Y-52423496D01*
X95268243Y-52269915D01*
X95269278Y-52264961D01*
X95270944Y-52228290D01*
X95279645Y-52036655D01*
X95280596Y-52015712D01*
X95269648Y-51921084D01*
X95252501Y-51772890D01*
X95251919Y-51767860D01*
X95241138Y-51729759D01*
X95185360Y-51532648D01*
X95183983Y-51527781D01*
X95078538Y-51301652D01*
X94938294Y-51095290D01*
X94766862Y-50914006D01*
X94568651Y-50762462D01*
X94348761Y-50644557D01*
X94112848Y-50563326D01*
X93984901Y-50541226D01*
X93870893Y-50521533D01*
X93870887Y-50521532D01*
X93866983Y-50520858D01*
X93863022Y-50520678D01*
X93863021Y-50520678D01*
X93838497Y-50519564D01*
X93838478Y-50519564D01*
X93837078Y-50519500D01*
X93663309Y-50519500D01*
X93660801Y-50519702D01*
X93660796Y-50519702D01*
X93482339Y-50534060D01*
X93482334Y-50534061D01*
X93477298Y-50534466D01*
X93472390Y-50535671D01*
X93472387Y-50535672D01*
X93242392Y-50592165D01*
X93234994Y-50593982D01*
X93230342Y-50595957D01*
X93230338Y-50595958D01*
X93009978Y-50689495D01*
X93005323Y-50691471D01*
X92794192Y-50824427D01*
X92790398Y-50827772D01*
X92610832Y-50986080D01*
X92610829Y-50986083D01*
X92607035Y-50989428D01*
X92448666Y-51182230D01*
X92323160Y-51397872D01*
X92233745Y-51630805D01*
X92232712Y-51635751D01*
X92232710Y-51635757D01*
X92211289Y-51738295D01*
X92182722Y-51875039D01*
X92182493Y-51880088D01*
X92182492Y-51880094D01*
X92179892Y-51937354D01*
X92171404Y-52124288D01*
X91300000Y-52124288D01*
X91300000Y-49426000D01*
X91320002Y-49357879D01*
X91373658Y-49311386D01*
X91426000Y-49300000D01*
X125574000Y-49300000D01*
X125642121Y-49320002D01*
G37*
%TD.AperFunction*%
M02*
