%TF.GenerationSoftware,KiCad,Pcbnew,(6.0.0)*%
%TF.CreationDate,2022-01-19T10:56:36+01:00*%
%TF.ProjectId,CH423_ev_routed,43483432-335f-4657-965f-726f75746564,rev?*%
%TF.SameCoordinates,Original*%
%TF.FileFunction,Legend,Top*%
%TF.FilePolarity,Positive*%
%FSLAX46Y46*%
G04 Gerber Fmt 4.6, Leading zero omitted, Abs format (unit mm)*
G04 Created by KiCad (PCBNEW (6.0.0)) date 2022-01-19 10:56:36*
%MOMM*%
%LPD*%
G01*
G04 APERTURE LIST*
%ADD10C,0.150000*%
%ADD11C,0.100000*%
%ADD12C,0.200000*%
%ADD13C,0.120000*%
G04 APERTURE END LIST*
D10*
X125679200Y-79032100D02*
X115265200Y-79032100D01*
X125679200Y-75412600D02*
X115265200Y-75412600D01*
X115265200Y-75412600D02*
X115265200Y-82651600D01*
X115265200Y-82651600D02*
X125679200Y-82651600D01*
X125679200Y-82651600D02*
X125679200Y-75412600D01*
D11*
X115653104Y-82180242D02*
X115653104Y-82027861D01*
X115691200Y-81951671D01*
X115767390Y-81875480D01*
X115919771Y-81837385D01*
X116186438Y-81837385D01*
X116338819Y-81875480D01*
X116415009Y-81951671D01*
X116453104Y-82027861D01*
X116453104Y-82180242D01*
X116415009Y-82256433D01*
X116338819Y-82332623D01*
X116186438Y-82370719D01*
X115919771Y-82370719D01*
X115767390Y-82332623D01*
X115691200Y-82256433D01*
X115653104Y-82180242D01*
X116376914Y-81037385D02*
X116415009Y-81075480D01*
X116453104Y-81189766D01*
X116453104Y-81265957D01*
X116415009Y-81380242D01*
X116338819Y-81456433D01*
X116262628Y-81494528D01*
X116110247Y-81532623D01*
X115995961Y-81532623D01*
X115843580Y-81494528D01*
X115767390Y-81456433D01*
X115691200Y-81380242D01*
X115653104Y-81265957D01*
X115653104Y-81189766D01*
X115691200Y-81075480D01*
X115729295Y-81037385D01*
X115653104Y-80542147D02*
X115653104Y-80465957D01*
X115691200Y-80389766D01*
X115729295Y-80351671D01*
X115805485Y-80313576D01*
X115957866Y-80275480D01*
X116148342Y-80275480D01*
X116300723Y-80313576D01*
X116376914Y-80351671D01*
X116415009Y-80389766D01*
X116453104Y-80465957D01*
X116453104Y-80542147D01*
X116415009Y-80618338D01*
X116376914Y-80656433D01*
X116300723Y-80694528D01*
X116148342Y-80732623D01*
X115957866Y-80732623D01*
X115805485Y-80694528D01*
X115729295Y-80656433D01*
X115691200Y-80618338D01*
X115653104Y-80542147D01*
X115653104Y-78561195D02*
X115653104Y-78408814D01*
X115691200Y-78332623D01*
X115767390Y-78256433D01*
X115919771Y-78218338D01*
X116186438Y-78218338D01*
X116338819Y-78256433D01*
X116415009Y-78332623D01*
X116453104Y-78408814D01*
X116453104Y-78561195D01*
X116415009Y-78637385D01*
X116338819Y-78713576D01*
X116186438Y-78751671D01*
X115919771Y-78751671D01*
X115767390Y-78713576D01*
X115691200Y-78637385D01*
X115653104Y-78561195D01*
X116376914Y-77418338D02*
X116415009Y-77456433D01*
X116453104Y-77570719D01*
X116453104Y-77646909D01*
X116415009Y-77761195D01*
X116338819Y-77837385D01*
X116262628Y-77875480D01*
X116110247Y-77913576D01*
X115995961Y-77913576D01*
X115843580Y-77875480D01*
X115767390Y-77837385D01*
X115691200Y-77761195D01*
X115653104Y-77646909D01*
X115653104Y-77570719D01*
X115691200Y-77456433D01*
X115729295Y-77418338D01*
X116453104Y-76656433D02*
X116453104Y-77113576D01*
X116453104Y-76885004D02*
X115653104Y-76885004D01*
X115767390Y-76961195D01*
X115843580Y-77037385D01*
X115881676Y-77113576D01*
X116941104Y-82180242D02*
X116941104Y-82027861D01*
X116979200Y-81951671D01*
X117055390Y-81875480D01*
X117207771Y-81837385D01*
X117474438Y-81837385D01*
X117626819Y-81875480D01*
X117703009Y-81951671D01*
X117741104Y-82027861D01*
X117741104Y-82180242D01*
X117703009Y-82256433D01*
X117626819Y-82332623D01*
X117474438Y-82370719D01*
X117207771Y-82370719D01*
X117055390Y-82332623D01*
X116979200Y-82256433D01*
X116941104Y-82180242D01*
X117664914Y-81037385D02*
X117703009Y-81075480D01*
X117741104Y-81189766D01*
X117741104Y-81265957D01*
X117703009Y-81380242D01*
X117626819Y-81456433D01*
X117550628Y-81494528D01*
X117398247Y-81532623D01*
X117283961Y-81532623D01*
X117131580Y-81494528D01*
X117055390Y-81456433D01*
X116979200Y-81380242D01*
X116941104Y-81265957D01*
X116941104Y-81189766D01*
X116979200Y-81075480D01*
X117017295Y-81037385D01*
X117017295Y-80732623D02*
X116979200Y-80694528D01*
X116941104Y-80618338D01*
X116941104Y-80427861D01*
X116979200Y-80351671D01*
X117017295Y-80313576D01*
X117093485Y-80275480D01*
X117169676Y-80275480D01*
X117283961Y-80313576D01*
X117741104Y-80770719D01*
X117741104Y-80275480D01*
X116941104Y-78561195D02*
X116941104Y-78408814D01*
X116979200Y-78332623D01*
X117055390Y-78256433D01*
X117207771Y-78218338D01*
X117474438Y-78218338D01*
X117626819Y-78256433D01*
X117703009Y-78332623D01*
X117741104Y-78408814D01*
X117741104Y-78561195D01*
X117703009Y-78637385D01*
X117626819Y-78713576D01*
X117474438Y-78751671D01*
X117207771Y-78751671D01*
X117055390Y-78713576D01*
X116979200Y-78637385D01*
X116941104Y-78561195D01*
X117664914Y-77418338D02*
X117703009Y-77456433D01*
X117741104Y-77570719D01*
X117741104Y-77646909D01*
X117703009Y-77761195D01*
X117626819Y-77837385D01*
X117550628Y-77875480D01*
X117398247Y-77913576D01*
X117283961Y-77913576D01*
X117131580Y-77875480D01*
X117055390Y-77837385D01*
X116979200Y-77761195D01*
X116941104Y-77646909D01*
X116941104Y-77570719D01*
X116979200Y-77456433D01*
X117017295Y-77418338D01*
X116941104Y-77151671D02*
X116941104Y-76656433D01*
X117245866Y-76923100D01*
X117245866Y-76808814D01*
X117283961Y-76732623D01*
X117322057Y-76694528D01*
X117398247Y-76656433D01*
X117588723Y-76656433D01*
X117664914Y-76694528D01*
X117703009Y-76732623D01*
X117741104Y-76808814D01*
X117741104Y-77037385D01*
X117703009Y-77113576D01*
X117664914Y-77151671D01*
X118229104Y-82180242D02*
X118229104Y-82027861D01*
X118267200Y-81951671D01*
X118343390Y-81875480D01*
X118495771Y-81837385D01*
X118762438Y-81837385D01*
X118914819Y-81875480D01*
X118991009Y-81951671D01*
X119029104Y-82027861D01*
X119029104Y-82180242D01*
X118991009Y-82256433D01*
X118914819Y-82332623D01*
X118762438Y-82370719D01*
X118495771Y-82370719D01*
X118343390Y-82332623D01*
X118267200Y-82256433D01*
X118229104Y-82180242D01*
X118952914Y-81037385D02*
X118991009Y-81075480D01*
X119029104Y-81189766D01*
X119029104Y-81265957D01*
X118991009Y-81380242D01*
X118914819Y-81456433D01*
X118838628Y-81494528D01*
X118686247Y-81532623D01*
X118571961Y-81532623D01*
X118419580Y-81494528D01*
X118343390Y-81456433D01*
X118267200Y-81380242D01*
X118229104Y-81265957D01*
X118229104Y-81189766D01*
X118267200Y-81075480D01*
X118305295Y-81037385D01*
X118495771Y-80351671D02*
X119029104Y-80351671D01*
X118191009Y-80542147D02*
X118762438Y-80732623D01*
X118762438Y-80237385D01*
X118229104Y-78561195D02*
X118229104Y-78408814D01*
X118267200Y-78332623D01*
X118343390Y-78256433D01*
X118495771Y-78218338D01*
X118762438Y-78218338D01*
X118914819Y-78256433D01*
X118991009Y-78332623D01*
X119029104Y-78408814D01*
X119029104Y-78561195D01*
X118991009Y-78637385D01*
X118914819Y-78713576D01*
X118762438Y-78751671D01*
X118495771Y-78751671D01*
X118343390Y-78713576D01*
X118267200Y-78637385D01*
X118229104Y-78561195D01*
X118952914Y-77418338D02*
X118991009Y-77456433D01*
X119029104Y-77570719D01*
X119029104Y-77646909D01*
X118991009Y-77761195D01*
X118914819Y-77837385D01*
X118838628Y-77875480D01*
X118686247Y-77913576D01*
X118571961Y-77913576D01*
X118419580Y-77875480D01*
X118343390Y-77837385D01*
X118267200Y-77761195D01*
X118229104Y-77646909D01*
X118229104Y-77570719D01*
X118267200Y-77456433D01*
X118305295Y-77418338D01*
X118229104Y-76694528D02*
X118229104Y-77075480D01*
X118610057Y-77113576D01*
X118571961Y-77075480D01*
X118533866Y-76999290D01*
X118533866Y-76808814D01*
X118571961Y-76732623D01*
X118610057Y-76694528D01*
X118686247Y-76656433D01*
X118876723Y-76656433D01*
X118952914Y-76694528D01*
X118991009Y-76732623D01*
X119029104Y-76808814D01*
X119029104Y-76999290D01*
X118991009Y-77075480D01*
X118952914Y-77113576D01*
X119517104Y-82180242D02*
X119517104Y-82027861D01*
X119555200Y-81951671D01*
X119631390Y-81875480D01*
X119783771Y-81837385D01*
X120050438Y-81837385D01*
X120202819Y-81875480D01*
X120279009Y-81951671D01*
X120317104Y-82027861D01*
X120317104Y-82180242D01*
X120279009Y-82256433D01*
X120202819Y-82332623D01*
X120050438Y-82370719D01*
X119783771Y-82370719D01*
X119631390Y-82332623D01*
X119555200Y-82256433D01*
X119517104Y-82180242D01*
X120240914Y-81037385D02*
X120279009Y-81075480D01*
X120317104Y-81189766D01*
X120317104Y-81265957D01*
X120279009Y-81380242D01*
X120202819Y-81456433D01*
X120126628Y-81494528D01*
X119974247Y-81532623D01*
X119859961Y-81532623D01*
X119707580Y-81494528D01*
X119631390Y-81456433D01*
X119555200Y-81380242D01*
X119517104Y-81265957D01*
X119517104Y-81189766D01*
X119555200Y-81075480D01*
X119593295Y-81037385D01*
X119517104Y-80351671D02*
X119517104Y-80504052D01*
X119555200Y-80580242D01*
X119593295Y-80618338D01*
X119707580Y-80694528D01*
X119859961Y-80732623D01*
X120164723Y-80732623D01*
X120240914Y-80694528D01*
X120279009Y-80656433D01*
X120317104Y-80580242D01*
X120317104Y-80427861D01*
X120279009Y-80351671D01*
X120240914Y-80313576D01*
X120164723Y-80275480D01*
X119974247Y-80275480D01*
X119898057Y-80313576D01*
X119859961Y-80351671D01*
X119821866Y-80427861D01*
X119821866Y-80580242D01*
X119859961Y-80656433D01*
X119898057Y-80694528D01*
X119974247Y-80732623D01*
X119517104Y-78561195D02*
X119517104Y-78408814D01*
X119555200Y-78332623D01*
X119631390Y-78256433D01*
X119783771Y-78218338D01*
X120050438Y-78218338D01*
X120202819Y-78256433D01*
X120279009Y-78332623D01*
X120317104Y-78408814D01*
X120317104Y-78561195D01*
X120279009Y-78637385D01*
X120202819Y-78713576D01*
X120050438Y-78751671D01*
X119783771Y-78751671D01*
X119631390Y-78713576D01*
X119555200Y-78637385D01*
X119517104Y-78561195D01*
X120240914Y-77418338D02*
X120279009Y-77456433D01*
X120317104Y-77570719D01*
X120317104Y-77646909D01*
X120279009Y-77761195D01*
X120202819Y-77837385D01*
X120126628Y-77875480D01*
X119974247Y-77913576D01*
X119859961Y-77913576D01*
X119707580Y-77875480D01*
X119631390Y-77837385D01*
X119555200Y-77761195D01*
X119517104Y-77646909D01*
X119517104Y-77570719D01*
X119555200Y-77456433D01*
X119593295Y-77418338D01*
X119517104Y-77151671D02*
X119517104Y-76618338D01*
X120317104Y-76961195D01*
X120805104Y-82180242D02*
X120805104Y-82027861D01*
X120843200Y-81951671D01*
X120919390Y-81875480D01*
X121071771Y-81837385D01*
X121338438Y-81837385D01*
X121490819Y-81875480D01*
X121567009Y-81951671D01*
X121605104Y-82027861D01*
X121605104Y-82180242D01*
X121567009Y-82256433D01*
X121490819Y-82332623D01*
X121338438Y-82370719D01*
X121071771Y-82370719D01*
X120919390Y-82332623D01*
X120843200Y-82256433D01*
X120805104Y-82180242D01*
X121528914Y-81037385D02*
X121567009Y-81075480D01*
X121605104Y-81189766D01*
X121605104Y-81265957D01*
X121567009Y-81380242D01*
X121490819Y-81456433D01*
X121414628Y-81494528D01*
X121262247Y-81532623D01*
X121147961Y-81532623D01*
X120995580Y-81494528D01*
X120919390Y-81456433D01*
X120843200Y-81380242D01*
X120805104Y-81265957D01*
X120805104Y-81189766D01*
X120843200Y-81075480D01*
X120881295Y-81037385D01*
X121147961Y-80580242D02*
X121109866Y-80656433D01*
X121071771Y-80694528D01*
X120995580Y-80732623D01*
X120957485Y-80732623D01*
X120881295Y-80694528D01*
X120843200Y-80656433D01*
X120805104Y-80580242D01*
X120805104Y-80427861D01*
X120843200Y-80351671D01*
X120881295Y-80313576D01*
X120957485Y-80275480D01*
X120995580Y-80275480D01*
X121071771Y-80313576D01*
X121109866Y-80351671D01*
X121147961Y-80427861D01*
X121147961Y-80580242D01*
X121186057Y-80656433D01*
X121224152Y-80694528D01*
X121300342Y-80732623D01*
X121452723Y-80732623D01*
X121528914Y-80694528D01*
X121567009Y-80656433D01*
X121605104Y-80580242D01*
X121605104Y-80427861D01*
X121567009Y-80351671D01*
X121528914Y-80313576D01*
X121452723Y-80275480D01*
X121300342Y-80275480D01*
X121224152Y-80313576D01*
X121186057Y-80351671D01*
X121147961Y-80427861D01*
X120805104Y-78561195D02*
X120805104Y-78408814D01*
X120843200Y-78332623D01*
X120919390Y-78256433D01*
X121071771Y-78218338D01*
X121338438Y-78218338D01*
X121490819Y-78256433D01*
X121567009Y-78332623D01*
X121605104Y-78408814D01*
X121605104Y-78561195D01*
X121567009Y-78637385D01*
X121490819Y-78713576D01*
X121338438Y-78751671D01*
X121071771Y-78751671D01*
X120919390Y-78713576D01*
X120843200Y-78637385D01*
X120805104Y-78561195D01*
X121528914Y-77418338D02*
X121567009Y-77456433D01*
X121605104Y-77570719D01*
X121605104Y-77646909D01*
X121567009Y-77761195D01*
X121490819Y-77837385D01*
X121414628Y-77875480D01*
X121262247Y-77913576D01*
X121147961Y-77913576D01*
X120995580Y-77875480D01*
X120919390Y-77837385D01*
X120843200Y-77761195D01*
X120805104Y-77646909D01*
X120805104Y-77570719D01*
X120843200Y-77456433D01*
X120881295Y-77418338D01*
X121605104Y-77037385D02*
X121605104Y-76885004D01*
X121567009Y-76808814D01*
X121528914Y-76770719D01*
X121414628Y-76694528D01*
X121262247Y-76656433D01*
X120957485Y-76656433D01*
X120881295Y-76694528D01*
X120843200Y-76732623D01*
X120805104Y-76808814D01*
X120805104Y-76961195D01*
X120843200Y-77037385D01*
X120881295Y-77075480D01*
X120957485Y-77113576D01*
X121147961Y-77113576D01*
X121224152Y-77075480D01*
X121262247Y-77037385D01*
X121300342Y-76961195D01*
X121300342Y-76808814D01*
X121262247Y-76732623D01*
X121224152Y-76694528D01*
X121147961Y-76656433D01*
X122093104Y-82180242D02*
X122093104Y-82027861D01*
X122131200Y-81951671D01*
X122207390Y-81875480D01*
X122359771Y-81837385D01*
X122626438Y-81837385D01*
X122778819Y-81875480D01*
X122855009Y-81951671D01*
X122893104Y-82027861D01*
X122893104Y-82180242D01*
X122855009Y-82256433D01*
X122778819Y-82332623D01*
X122626438Y-82370719D01*
X122359771Y-82370719D01*
X122207390Y-82332623D01*
X122131200Y-82256433D01*
X122093104Y-82180242D01*
X122816914Y-81037385D02*
X122855009Y-81075480D01*
X122893104Y-81189766D01*
X122893104Y-81265957D01*
X122855009Y-81380242D01*
X122778819Y-81456433D01*
X122702628Y-81494528D01*
X122550247Y-81532623D01*
X122435961Y-81532623D01*
X122283580Y-81494528D01*
X122207390Y-81456433D01*
X122131200Y-81380242D01*
X122093104Y-81265957D01*
X122093104Y-81189766D01*
X122131200Y-81075480D01*
X122169295Y-81037385D01*
X122893104Y-80275480D02*
X122893104Y-80732623D01*
X122893104Y-80504052D02*
X122093104Y-80504052D01*
X122207390Y-80580242D01*
X122283580Y-80656433D01*
X122321676Y-80732623D01*
X122093104Y-79780242D02*
X122093104Y-79704052D01*
X122131200Y-79627861D01*
X122169295Y-79589766D01*
X122245485Y-79551671D01*
X122397866Y-79513576D01*
X122588342Y-79513576D01*
X122740723Y-79551671D01*
X122816914Y-79589766D01*
X122855009Y-79627861D01*
X122893104Y-79704052D01*
X122893104Y-79780242D01*
X122855009Y-79856433D01*
X122816914Y-79894528D01*
X122740723Y-79932623D01*
X122588342Y-79970719D01*
X122397866Y-79970719D01*
X122245485Y-79932623D01*
X122169295Y-79894528D01*
X122131200Y-79856433D01*
X122093104Y-79780242D01*
X122093104Y-78408814D02*
X122093104Y-78256433D01*
X122131200Y-78180242D01*
X122207390Y-78104052D01*
X122359771Y-78065957D01*
X122626438Y-78065957D01*
X122778819Y-78104052D01*
X122855009Y-78180242D01*
X122893104Y-78256433D01*
X122893104Y-78408814D01*
X122855009Y-78485004D01*
X122778819Y-78561195D01*
X122626438Y-78599290D01*
X122359771Y-78599290D01*
X122207390Y-78561195D01*
X122131200Y-78485004D01*
X122093104Y-78408814D01*
X122816914Y-77265957D02*
X122855009Y-77304052D01*
X122893104Y-77418338D01*
X122893104Y-77494528D01*
X122855009Y-77608814D01*
X122778819Y-77685004D01*
X122702628Y-77723100D01*
X122550247Y-77761195D01*
X122435961Y-77761195D01*
X122283580Y-77723100D01*
X122207390Y-77685004D01*
X122131200Y-77608814D01*
X122093104Y-77494528D01*
X122093104Y-77418338D01*
X122131200Y-77304052D01*
X122169295Y-77265957D01*
X122893104Y-76504052D02*
X122893104Y-76961195D01*
X122893104Y-76732623D02*
X122093104Y-76732623D01*
X122207390Y-76808814D01*
X122283580Y-76885004D01*
X122321676Y-76961195D01*
X122893104Y-75742147D02*
X122893104Y-76199290D01*
X122893104Y-75970719D02*
X122093104Y-75970719D01*
X122207390Y-76046909D01*
X122283580Y-76123100D01*
X122321676Y-76199290D01*
X123381104Y-82180242D02*
X123381104Y-82027861D01*
X123419200Y-81951671D01*
X123495390Y-81875480D01*
X123647771Y-81837385D01*
X123914438Y-81837385D01*
X124066819Y-81875480D01*
X124143009Y-81951671D01*
X124181104Y-82027861D01*
X124181104Y-82180242D01*
X124143009Y-82256433D01*
X124066819Y-82332623D01*
X123914438Y-82370719D01*
X123647771Y-82370719D01*
X123495390Y-82332623D01*
X123419200Y-82256433D01*
X123381104Y-82180242D01*
X124104914Y-81037385D02*
X124143009Y-81075480D01*
X124181104Y-81189766D01*
X124181104Y-81265957D01*
X124143009Y-81380242D01*
X124066819Y-81456433D01*
X123990628Y-81494528D01*
X123838247Y-81532623D01*
X123723961Y-81532623D01*
X123571580Y-81494528D01*
X123495390Y-81456433D01*
X123419200Y-81380242D01*
X123381104Y-81265957D01*
X123381104Y-81189766D01*
X123419200Y-81075480D01*
X123457295Y-81037385D01*
X124181104Y-80275480D02*
X124181104Y-80732623D01*
X124181104Y-80504052D02*
X123381104Y-80504052D01*
X123495390Y-80580242D01*
X123571580Y-80656433D01*
X123609676Y-80732623D01*
X123457295Y-79970719D02*
X123419200Y-79932623D01*
X123381104Y-79856433D01*
X123381104Y-79665957D01*
X123419200Y-79589766D01*
X123457295Y-79551671D01*
X123533485Y-79513576D01*
X123609676Y-79513576D01*
X123723961Y-79551671D01*
X124181104Y-80008814D01*
X124181104Y-79513576D01*
X123381104Y-78408814D02*
X123381104Y-78256433D01*
X123419200Y-78180242D01*
X123495390Y-78104052D01*
X123647771Y-78065957D01*
X123914438Y-78065957D01*
X124066819Y-78104052D01*
X124143009Y-78180242D01*
X124181104Y-78256433D01*
X124181104Y-78408814D01*
X124143009Y-78485004D01*
X124066819Y-78561195D01*
X123914438Y-78599290D01*
X123647771Y-78599290D01*
X123495390Y-78561195D01*
X123419200Y-78485004D01*
X123381104Y-78408814D01*
X124104914Y-77265957D02*
X124143009Y-77304052D01*
X124181104Y-77418338D01*
X124181104Y-77494528D01*
X124143009Y-77608814D01*
X124066819Y-77685004D01*
X123990628Y-77723100D01*
X123838247Y-77761195D01*
X123723961Y-77761195D01*
X123571580Y-77723100D01*
X123495390Y-77685004D01*
X123419200Y-77608814D01*
X123381104Y-77494528D01*
X123381104Y-77418338D01*
X123419200Y-77304052D01*
X123457295Y-77265957D01*
X124181104Y-76504052D02*
X124181104Y-76961195D01*
X124181104Y-76732623D02*
X123381104Y-76732623D01*
X123495390Y-76808814D01*
X123571580Y-76885004D01*
X123609676Y-76961195D01*
X123381104Y-76237385D02*
X123381104Y-75742147D01*
X123685866Y-76008814D01*
X123685866Y-75894528D01*
X123723961Y-75818338D01*
X123762057Y-75780242D01*
X123838247Y-75742147D01*
X124028723Y-75742147D01*
X124104914Y-75780242D01*
X124143009Y-75818338D01*
X124181104Y-75894528D01*
X124181104Y-76123100D01*
X124143009Y-76199290D01*
X124104914Y-76237385D01*
X124669104Y-82180242D02*
X124669104Y-82027861D01*
X124707200Y-81951671D01*
X124783390Y-81875480D01*
X124935771Y-81837385D01*
X125202438Y-81837385D01*
X125354819Y-81875480D01*
X125431009Y-81951671D01*
X125469104Y-82027861D01*
X125469104Y-82180242D01*
X125431009Y-82256433D01*
X125354819Y-82332623D01*
X125202438Y-82370719D01*
X124935771Y-82370719D01*
X124783390Y-82332623D01*
X124707200Y-82256433D01*
X124669104Y-82180242D01*
X125392914Y-81037385D02*
X125431009Y-81075480D01*
X125469104Y-81189766D01*
X125469104Y-81265957D01*
X125431009Y-81380242D01*
X125354819Y-81456433D01*
X125278628Y-81494528D01*
X125126247Y-81532623D01*
X125011961Y-81532623D01*
X124859580Y-81494528D01*
X124783390Y-81456433D01*
X124707200Y-81380242D01*
X124669104Y-81265957D01*
X124669104Y-81189766D01*
X124707200Y-81075480D01*
X124745295Y-81037385D01*
X125469104Y-80275480D02*
X125469104Y-80732623D01*
X125469104Y-80504052D02*
X124669104Y-80504052D01*
X124783390Y-80580242D01*
X124859580Y-80656433D01*
X124897676Y-80732623D01*
X124935771Y-79589766D02*
X125469104Y-79589766D01*
X124631009Y-79780242D02*
X125202438Y-79970719D01*
X125202438Y-79475480D01*
X124669104Y-78408814D02*
X124669104Y-78256433D01*
X124707200Y-78180242D01*
X124783390Y-78104052D01*
X124935771Y-78065957D01*
X125202438Y-78065957D01*
X125354819Y-78104052D01*
X125431009Y-78180242D01*
X125469104Y-78256433D01*
X125469104Y-78408814D01*
X125431009Y-78485004D01*
X125354819Y-78561195D01*
X125202438Y-78599290D01*
X124935771Y-78599290D01*
X124783390Y-78561195D01*
X124707200Y-78485004D01*
X124669104Y-78408814D01*
X125392914Y-77265957D02*
X125431009Y-77304052D01*
X125469104Y-77418338D01*
X125469104Y-77494528D01*
X125431009Y-77608814D01*
X125354819Y-77685004D01*
X125278628Y-77723100D01*
X125126247Y-77761195D01*
X125011961Y-77761195D01*
X124859580Y-77723100D01*
X124783390Y-77685004D01*
X124707200Y-77608814D01*
X124669104Y-77494528D01*
X124669104Y-77418338D01*
X124707200Y-77304052D01*
X124745295Y-77265957D01*
X125469104Y-76504052D02*
X125469104Y-76961195D01*
X125469104Y-76732623D02*
X124669104Y-76732623D01*
X124783390Y-76808814D01*
X124859580Y-76885004D01*
X124897676Y-76961195D01*
X124669104Y-75780242D02*
X124669104Y-76161195D01*
X125050057Y-76199290D01*
X125011961Y-76161195D01*
X124973866Y-76085004D01*
X124973866Y-75894528D01*
X125011961Y-75818338D01*
X125050057Y-75780242D01*
X125126247Y-75742147D01*
X125316723Y-75742147D01*
X125392914Y-75780242D01*
X125431009Y-75818338D01*
X125469104Y-75894528D01*
X125469104Y-76085004D01*
X125431009Y-76161195D01*
X125392914Y-76199290D01*
D10*
X98497023Y-77560000D02*
X98420833Y-77521904D01*
X98306547Y-77521904D01*
X98192261Y-77560000D01*
X98116071Y-77636190D01*
X98077976Y-77712380D01*
X98039880Y-77864761D01*
X98039880Y-77979047D01*
X98077976Y-78131428D01*
X98116071Y-78207619D01*
X98192261Y-78283809D01*
X98306547Y-78321904D01*
X98382738Y-78321904D01*
X98497023Y-78283809D01*
X98535119Y-78245714D01*
X98535119Y-77979047D01*
X98382738Y-77979047D01*
X98877976Y-78321904D02*
X98877976Y-77521904D01*
X99335119Y-78321904D01*
X99335119Y-77521904D01*
X99716071Y-78321904D02*
X99716071Y-77521904D01*
X99906547Y-77521904D01*
X100020833Y-77560000D01*
X100097023Y-77636190D01*
X100135119Y-77712380D01*
X100173214Y-77864761D01*
X100173214Y-77979047D01*
X100135119Y-78131428D01*
X100097023Y-78207619D01*
X100020833Y-78283809D01*
X99906547Y-78321904D01*
X99716071Y-78321904D01*
X98077976Y-80897904D02*
X98077976Y-80097904D01*
X98458928Y-80897904D02*
X98458928Y-80097904D01*
X98916071Y-80897904D01*
X98916071Y-80097904D01*
X99182738Y-80097904D02*
X99639880Y-80097904D01*
X99411309Y-80897904D02*
X99411309Y-80097904D01*
X98497023Y-57494000D02*
X98420833Y-57455904D01*
X98306547Y-57455904D01*
X98192261Y-57494000D01*
X98116071Y-57570190D01*
X98077976Y-57646380D01*
X98039880Y-57798761D01*
X98039880Y-57913047D01*
X98077976Y-58065428D01*
X98116071Y-58141619D01*
X98192261Y-58217809D01*
X98306547Y-58255904D01*
X98382738Y-58255904D01*
X98497023Y-58217809D01*
X98535119Y-58179714D01*
X98535119Y-57913047D01*
X98382738Y-57913047D01*
X98877976Y-58255904D02*
X98877976Y-57455904D01*
X99335119Y-58255904D01*
X99335119Y-57455904D01*
X99716071Y-58255904D02*
X99716071Y-57455904D01*
X99906547Y-57455904D01*
X100020833Y-57494000D01*
X100097023Y-57570190D01*
X100135119Y-57646380D01*
X100173214Y-57798761D01*
X100173214Y-57913047D01*
X100135119Y-58065428D01*
X100097023Y-58141619D01*
X100020833Y-58217809D01*
X99906547Y-58255904D01*
X99716071Y-58255904D01*
X98077976Y-60527142D02*
X98687500Y-60527142D01*
X98382738Y-60831904D02*
X98382738Y-60222380D01*
X98992261Y-60031904D02*
X99487500Y-60031904D01*
X99220833Y-60336666D01*
X99335119Y-60336666D01*
X99411309Y-60374761D01*
X99449404Y-60412857D01*
X99487500Y-60489047D01*
X99487500Y-60679523D01*
X99449404Y-60755714D01*
X99411309Y-60793809D01*
X99335119Y-60831904D01*
X99106547Y-60831904D01*
X99030357Y-60793809D01*
X98992261Y-60755714D01*
X99830357Y-60755714D02*
X99868452Y-60793809D01*
X99830357Y-60831904D01*
X99792261Y-60793809D01*
X99830357Y-60755714D01*
X99830357Y-60831904D01*
X100211309Y-60755714D02*
X100249404Y-60793809D01*
X100211309Y-60831904D01*
X100173214Y-60793809D01*
X100211309Y-60755714D01*
X100211309Y-60831904D01*
X100973214Y-60031904D02*
X100592261Y-60031904D01*
X100554166Y-60412857D01*
X100592261Y-60374761D01*
X100668452Y-60336666D01*
X100858928Y-60336666D01*
X100935119Y-60374761D01*
X100973214Y-60412857D01*
X101011309Y-60489047D01*
X101011309Y-60679523D01*
X100973214Y-60755714D01*
X100935119Y-60793809D01*
X100858928Y-60831904D01*
X100668452Y-60831904D01*
X100592261Y-60793809D01*
X100554166Y-60755714D01*
X101239880Y-60031904D02*
X101506547Y-60831904D01*
X101773214Y-60031904D01*
X98077976Y-65408142D02*
X98687500Y-65408142D01*
X98382738Y-65712904D02*
X98382738Y-65103380D01*
X98992261Y-64912904D02*
X99487500Y-64912904D01*
X99220833Y-65217666D01*
X99335119Y-65217666D01*
X99411309Y-65255761D01*
X99449404Y-65293857D01*
X99487500Y-65370047D01*
X99487500Y-65560523D01*
X99449404Y-65636714D01*
X99411309Y-65674809D01*
X99335119Y-65712904D01*
X99106547Y-65712904D01*
X99030357Y-65674809D01*
X98992261Y-65636714D01*
X99716071Y-64912904D02*
X99982738Y-65712904D01*
X100249404Y-64912904D01*
X100516071Y-65636714D02*
X100554166Y-65674809D01*
X100516071Y-65712904D01*
X100477976Y-65674809D01*
X100516071Y-65636714D01*
X100516071Y-65712904D01*
X100897023Y-65636714D02*
X100935119Y-65674809D01*
X100897023Y-65712904D01*
X100858928Y-65674809D01*
X100897023Y-65636714D01*
X100897023Y-65712904D01*
X101658928Y-64912904D02*
X101277976Y-64912904D01*
X101239880Y-65293857D01*
X101277976Y-65255761D01*
X101354166Y-65217666D01*
X101544642Y-65217666D01*
X101620833Y-65255761D01*
X101658928Y-65293857D01*
X101697023Y-65370047D01*
X101697023Y-65560523D01*
X101658928Y-65636714D01*
X101620833Y-65674809D01*
X101544642Y-65712904D01*
X101354166Y-65712904D01*
X101277976Y-65674809D01*
X101239880Y-65636714D01*
X101925595Y-64912904D02*
X102192261Y-65712904D01*
X102458928Y-64912904D01*
X98039880Y-68250809D02*
X98154166Y-68288904D01*
X98344642Y-68288904D01*
X98420833Y-68250809D01*
X98458928Y-68212714D01*
X98497023Y-68136523D01*
X98497023Y-68060333D01*
X98458928Y-67984142D01*
X98420833Y-67946047D01*
X98344642Y-67907952D01*
X98192261Y-67869857D01*
X98116071Y-67831761D01*
X98077976Y-67793666D01*
X98039880Y-67717476D01*
X98039880Y-67641285D01*
X98077976Y-67565095D01*
X98116071Y-67527000D01*
X98192261Y-67488904D01*
X98382738Y-67488904D01*
X98497023Y-67527000D01*
X99297023Y-68212714D02*
X99258928Y-68250809D01*
X99144642Y-68288904D01*
X99068452Y-68288904D01*
X98954166Y-68250809D01*
X98877976Y-68174619D01*
X98839880Y-68098428D01*
X98801785Y-67946047D01*
X98801785Y-67831761D01*
X98839880Y-67679380D01*
X98877976Y-67603190D01*
X98954166Y-67527000D01*
X99068452Y-67488904D01*
X99144642Y-67488904D01*
X99258928Y-67527000D01*
X99297023Y-67565095D01*
X100020833Y-68288904D02*
X99639880Y-68288904D01*
X99639880Y-67488904D01*
X98039880Y-70826809D02*
X98154166Y-70864904D01*
X98344642Y-70864904D01*
X98420833Y-70826809D01*
X98458928Y-70788714D01*
X98497023Y-70712523D01*
X98497023Y-70636333D01*
X98458928Y-70560142D01*
X98420833Y-70522047D01*
X98344642Y-70483952D01*
X98192261Y-70445857D01*
X98116071Y-70407761D01*
X98077976Y-70369666D01*
X98039880Y-70293476D01*
X98039880Y-70217285D01*
X98077976Y-70141095D01*
X98116071Y-70103000D01*
X98192261Y-70064904D01*
X98382738Y-70064904D01*
X98497023Y-70103000D01*
X98839880Y-70864904D02*
X98839880Y-70064904D01*
X99030357Y-70064904D01*
X99144642Y-70103000D01*
X99220833Y-70179190D01*
X99258928Y-70255380D01*
X99297023Y-70407761D01*
X99297023Y-70522047D01*
X99258928Y-70674428D01*
X99220833Y-70750619D01*
X99144642Y-70826809D01*
X99030357Y-70864904D01*
X98839880Y-70864904D01*
X99601785Y-70636333D02*
X99982738Y-70636333D01*
X99525595Y-70864904D02*
X99792261Y-70064904D01*
X100058928Y-70864904D01*
X98497023Y-72679000D02*
X98420833Y-72640904D01*
X98306547Y-72640904D01*
X98192261Y-72679000D01*
X98116071Y-72755190D01*
X98077976Y-72831380D01*
X98039880Y-72983761D01*
X98039880Y-73098047D01*
X98077976Y-73250428D01*
X98116071Y-73326619D01*
X98192261Y-73402809D01*
X98306547Y-73440904D01*
X98382738Y-73440904D01*
X98497023Y-73402809D01*
X98535119Y-73364714D01*
X98535119Y-73098047D01*
X98382738Y-73098047D01*
X98877976Y-73440904D02*
X98877976Y-72640904D01*
X99335119Y-73440904D01*
X99335119Y-72640904D01*
X99716071Y-73440904D02*
X99716071Y-72640904D01*
X99906547Y-72640904D01*
X100020833Y-72679000D01*
X100097023Y-72755190D01*
X100135119Y-72831380D01*
X100173214Y-72983761D01*
X100173214Y-73098047D01*
X100135119Y-73250428D01*
X100097023Y-73326619D01*
X100020833Y-73402809D01*
X99906547Y-73440904D01*
X99716071Y-73440904D01*
X98770000Y-56235523D02*
X98731904Y-56311714D01*
X98731904Y-56426000D01*
X98770000Y-56540285D01*
X98846190Y-56616476D01*
X98922380Y-56654571D01*
X99074761Y-56692666D01*
X99189047Y-56692666D01*
X99341428Y-56654571D01*
X99417619Y-56616476D01*
X99493809Y-56540285D01*
X99531904Y-56426000D01*
X99531904Y-56349809D01*
X99493809Y-56235523D01*
X99455714Y-56197428D01*
X99189047Y-56197428D01*
X99189047Y-56349809D01*
X99531904Y-55854571D02*
X98731904Y-55854571D01*
X99531904Y-55397428D01*
X98731904Y-55397428D01*
X99531904Y-55016476D02*
X98731904Y-55016476D01*
X98731904Y-54826000D01*
X98770000Y-54711714D01*
X98846190Y-54635523D01*
X98922380Y-54597428D01*
X99074761Y-54559333D01*
X99189047Y-54559333D01*
X99341428Y-54597428D01*
X99417619Y-54635523D01*
X99493809Y-54711714D01*
X99531904Y-54826000D01*
X99531904Y-55016476D01*
X102107904Y-56426000D02*
X101307904Y-56426000D01*
X101307904Y-55892666D02*
X101307904Y-55740285D01*
X101346000Y-55664095D01*
X101422190Y-55587904D01*
X101574571Y-55549809D01*
X101841238Y-55549809D01*
X101993619Y-55587904D01*
X102069809Y-55664095D01*
X102107904Y-55740285D01*
X102107904Y-55892666D01*
X102069809Y-55968857D01*
X101993619Y-56045047D01*
X101841238Y-56083142D01*
X101574571Y-56083142D01*
X101422190Y-56045047D01*
X101346000Y-55968857D01*
X101307904Y-55892666D01*
X101307904Y-55283142D02*
X101307904Y-54749809D01*
X102107904Y-55092666D01*
X104683904Y-56426000D02*
X103883904Y-56426000D01*
X103883904Y-55892666D02*
X103883904Y-55740285D01*
X103922000Y-55664095D01*
X103998190Y-55587904D01*
X104150571Y-55549809D01*
X104417238Y-55549809D01*
X104569619Y-55587904D01*
X104645809Y-55664095D01*
X104683904Y-55740285D01*
X104683904Y-55892666D01*
X104645809Y-55968857D01*
X104569619Y-56045047D01*
X104417238Y-56083142D01*
X104150571Y-56083142D01*
X103998190Y-56045047D01*
X103922000Y-55968857D01*
X103883904Y-55892666D01*
X103883904Y-54864095D02*
X103883904Y-55016476D01*
X103922000Y-55092666D01*
X103960095Y-55130761D01*
X104074380Y-55206952D01*
X104226761Y-55245047D01*
X104531523Y-55245047D01*
X104607714Y-55206952D01*
X104645809Y-55168857D01*
X104683904Y-55092666D01*
X104683904Y-54940285D01*
X104645809Y-54864095D01*
X104607714Y-54826000D01*
X104531523Y-54787904D01*
X104341047Y-54787904D01*
X104264857Y-54826000D01*
X104226761Y-54864095D01*
X104188666Y-54940285D01*
X104188666Y-55092666D01*
X104226761Y-55168857D01*
X104264857Y-55206952D01*
X104341047Y-55245047D01*
X107259904Y-56426000D02*
X106459904Y-56426000D01*
X106459904Y-55892666D02*
X106459904Y-55740285D01*
X106498000Y-55664095D01*
X106574190Y-55587904D01*
X106726571Y-55549809D01*
X106993238Y-55549809D01*
X107145619Y-55587904D01*
X107221809Y-55664095D01*
X107259904Y-55740285D01*
X107259904Y-55892666D01*
X107221809Y-55968857D01*
X107145619Y-56045047D01*
X106993238Y-56083142D01*
X106726571Y-56083142D01*
X106574190Y-56045047D01*
X106498000Y-55968857D01*
X106459904Y-55892666D01*
X106459904Y-54826000D02*
X106459904Y-55206952D01*
X106840857Y-55245047D01*
X106802761Y-55206952D01*
X106764666Y-55130761D01*
X106764666Y-54940285D01*
X106802761Y-54864095D01*
X106840857Y-54826000D01*
X106917047Y-54787904D01*
X107107523Y-54787904D01*
X107183714Y-54826000D01*
X107221809Y-54864095D01*
X107259904Y-54940285D01*
X107259904Y-55130761D01*
X107221809Y-55206952D01*
X107183714Y-55245047D01*
X109835904Y-56426000D02*
X109035904Y-56426000D01*
X109035904Y-55892666D02*
X109035904Y-55740285D01*
X109074000Y-55664095D01*
X109150190Y-55587904D01*
X109302571Y-55549809D01*
X109569238Y-55549809D01*
X109721619Y-55587904D01*
X109797809Y-55664095D01*
X109835904Y-55740285D01*
X109835904Y-55892666D01*
X109797809Y-55968857D01*
X109721619Y-56045047D01*
X109569238Y-56083142D01*
X109302571Y-56083142D01*
X109150190Y-56045047D01*
X109074000Y-55968857D01*
X109035904Y-55892666D01*
X109302571Y-54864095D02*
X109835904Y-54864095D01*
X108997809Y-55054571D02*
X109569238Y-55245047D01*
X109569238Y-54749809D01*
X112411904Y-56426000D02*
X111611904Y-56426000D01*
X111611904Y-55892666D02*
X111611904Y-55740285D01*
X111650000Y-55664095D01*
X111726190Y-55587904D01*
X111878571Y-55549809D01*
X112145238Y-55549809D01*
X112297619Y-55587904D01*
X112373809Y-55664095D01*
X112411904Y-55740285D01*
X112411904Y-55892666D01*
X112373809Y-55968857D01*
X112297619Y-56045047D01*
X112145238Y-56083142D01*
X111878571Y-56083142D01*
X111726190Y-56045047D01*
X111650000Y-55968857D01*
X111611904Y-55892666D01*
X111611904Y-55283142D02*
X111611904Y-54787904D01*
X111916666Y-55054571D01*
X111916666Y-54940285D01*
X111954761Y-54864095D01*
X111992857Y-54826000D01*
X112069047Y-54787904D01*
X112259523Y-54787904D01*
X112335714Y-54826000D01*
X112373809Y-54864095D01*
X112411904Y-54940285D01*
X112411904Y-55168857D01*
X112373809Y-55245047D01*
X112335714Y-55283142D01*
X114987904Y-56426000D02*
X114187904Y-56426000D01*
X114187904Y-55892666D02*
X114187904Y-55740285D01*
X114226000Y-55664095D01*
X114302190Y-55587904D01*
X114454571Y-55549809D01*
X114721238Y-55549809D01*
X114873619Y-55587904D01*
X114949809Y-55664095D01*
X114987904Y-55740285D01*
X114987904Y-55892666D01*
X114949809Y-55968857D01*
X114873619Y-56045047D01*
X114721238Y-56083142D01*
X114454571Y-56083142D01*
X114302190Y-56045047D01*
X114226000Y-55968857D01*
X114187904Y-55892666D01*
X114264095Y-55245047D02*
X114226000Y-55206952D01*
X114187904Y-55130761D01*
X114187904Y-54940285D01*
X114226000Y-54864095D01*
X114264095Y-54826000D01*
X114340285Y-54787904D01*
X114416476Y-54787904D01*
X114530761Y-54826000D01*
X114987904Y-55283142D01*
X114987904Y-54787904D01*
X117563904Y-56426000D02*
X116763904Y-56426000D01*
X116763904Y-55892666D02*
X116763904Y-55740285D01*
X116802000Y-55664095D01*
X116878190Y-55587904D01*
X117030571Y-55549809D01*
X117297238Y-55549809D01*
X117449619Y-55587904D01*
X117525809Y-55664095D01*
X117563904Y-55740285D01*
X117563904Y-55892666D01*
X117525809Y-55968857D01*
X117449619Y-56045047D01*
X117297238Y-56083142D01*
X117030571Y-56083142D01*
X116878190Y-56045047D01*
X116802000Y-55968857D01*
X116763904Y-55892666D01*
X117563904Y-54787904D02*
X117563904Y-55245047D01*
X117563904Y-55016476D02*
X116763904Y-55016476D01*
X116878190Y-55092666D01*
X116954380Y-55168857D01*
X116992476Y-55245047D01*
X120139904Y-56426000D02*
X119339904Y-56426000D01*
X119339904Y-55892666D02*
X119339904Y-55740285D01*
X119378000Y-55664095D01*
X119454190Y-55587904D01*
X119606571Y-55549809D01*
X119873238Y-55549809D01*
X120025619Y-55587904D01*
X120101809Y-55664095D01*
X120139904Y-55740285D01*
X120139904Y-55892666D01*
X120101809Y-55968857D01*
X120025619Y-56045047D01*
X119873238Y-56083142D01*
X119606571Y-56083142D01*
X119454190Y-56045047D01*
X119378000Y-55968857D01*
X119339904Y-55892666D01*
X119339904Y-55054571D02*
X119339904Y-54978380D01*
X119378000Y-54902190D01*
X119416095Y-54864095D01*
X119492285Y-54826000D01*
X119644666Y-54787904D01*
X119835142Y-54787904D01*
X119987523Y-54826000D01*
X120063714Y-54864095D01*
X120101809Y-54902190D01*
X120139904Y-54978380D01*
X120139904Y-55054571D01*
X120101809Y-55130761D01*
X120063714Y-55168857D01*
X119987523Y-55206952D01*
X119835142Y-55245047D01*
X119644666Y-55245047D01*
X119492285Y-55206952D01*
X119416095Y-55168857D01*
X119378000Y-55130761D01*
X119339904Y-55054571D01*
X115741466Y-61677504D02*
X115474800Y-61296552D01*
X115284323Y-61677504D02*
X115284323Y-60877504D01*
X115589085Y-60877504D01*
X115665276Y-60915600D01*
X115703371Y-60953695D01*
X115741466Y-61029885D01*
X115741466Y-61144171D01*
X115703371Y-61220361D01*
X115665276Y-61258457D01*
X115589085Y-61296552D01*
X115284323Y-61296552D01*
X116008133Y-60877504D02*
X116503371Y-60877504D01*
X116236704Y-61182266D01*
X116350990Y-61182266D01*
X116427180Y-61220361D01*
X116465276Y-61258457D01*
X116503371Y-61334647D01*
X116503371Y-61525123D01*
X116465276Y-61601314D01*
X116427180Y-61639409D01*
X116350990Y-61677504D01*
X116122419Y-61677504D01*
X116046228Y-61639409D01*
X116008133Y-61601314D01*
X93154533Y-63976304D02*
X93154533Y-64547733D01*
X93116438Y-64662019D01*
X93040247Y-64738209D01*
X92925961Y-64776304D01*
X92849771Y-64776304D01*
X93497390Y-64052495D02*
X93535485Y-64014400D01*
X93611676Y-63976304D01*
X93802152Y-63976304D01*
X93878342Y-64014400D01*
X93916438Y-64052495D01*
X93954533Y-64128685D01*
X93954533Y-64204876D01*
X93916438Y-64319161D01*
X93459295Y-64776304D01*
X93954533Y-64776304D01*
X115741466Y-64344514D02*
X115703371Y-64382609D01*
X115589085Y-64420704D01*
X115512895Y-64420704D01*
X115398609Y-64382609D01*
X115322419Y-64306419D01*
X115284323Y-64230228D01*
X115246228Y-64077847D01*
X115246228Y-63963561D01*
X115284323Y-63811180D01*
X115322419Y-63734990D01*
X115398609Y-63658800D01*
X115512895Y-63620704D01*
X115589085Y-63620704D01*
X115703371Y-63658800D01*
X115741466Y-63696895D01*
X116046228Y-63696895D02*
X116084323Y-63658800D01*
X116160514Y-63620704D01*
X116350990Y-63620704D01*
X116427180Y-63658800D01*
X116465276Y-63696895D01*
X116503371Y-63773085D01*
X116503371Y-63849276D01*
X116465276Y-63963561D01*
X116008133Y-64420704D01*
X116503371Y-64420704D01*
X93154533Y-78657504D02*
X93154533Y-79228933D01*
X93116438Y-79343219D01*
X93040247Y-79419409D01*
X92925961Y-79457504D01*
X92849771Y-79457504D01*
X93916438Y-78657504D02*
X93535485Y-78657504D01*
X93497390Y-79038457D01*
X93535485Y-79000361D01*
X93611676Y-78962266D01*
X93802152Y-78962266D01*
X93878342Y-79000361D01*
X93916438Y-79038457D01*
X93954533Y-79114647D01*
X93954533Y-79305123D01*
X93916438Y-79381314D01*
X93878342Y-79419409D01*
X93802152Y-79457504D01*
X93611676Y-79457504D01*
X93535485Y-79419409D01*
X93497390Y-79381314D01*
X93154533Y-58845504D02*
X93154533Y-59416933D01*
X93116438Y-59531219D01*
X93040247Y-59607409D01*
X92925961Y-59645504D01*
X92849771Y-59645504D01*
X93954533Y-59645504D02*
X93497390Y-59645504D01*
X93725961Y-59645504D02*
X93725961Y-58845504D01*
X93649771Y-58959790D01*
X93573580Y-59035980D01*
X93497390Y-59074076D01*
X120059523Y-64877904D02*
X120059523Y-64077904D01*
X120250000Y-64077904D01*
X120364285Y-64116000D01*
X120440476Y-64192190D01*
X120478571Y-64268380D01*
X120516666Y-64420761D01*
X120516666Y-64535047D01*
X120478571Y-64687428D01*
X120440476Y-64763619D01*
X120364285Y-64839809D01*
X120250000Y-64877904D01*
X120059523Y-64877904D01*
X121278571Y-64877904D02*
X120821428Y-64877904D01*
X121050000Y-64877904D02*
X121050000Y-64077904D01*
X120973809Y-64192190D01*
X120897619Y-64268380D01*
X120821428Y-64306476D01*
D12*
X122874819Y-64719676D02*
X121774819Y-64719676D01*
X121774819Y-64300628D01*
X121827200Y-64195866D01*
X121879580Y-64143485D01*
X121984342Y-64091104D01*
X122141485Y-64091104D01*
X122246247Y-64143485D01*
X122298628Y-64195866D01*
X122351009Y-64300628D01*
X122351009Y-64719676D01*
X121774819Y-63410152D02*
X121774819Y-63200628D01*
X121827200Y-63095866D01*
X121931961Y-62991104D01*
X122141485Y-62938723D01*
X122508152Y-62938723D01*
X122717676Y-62991104D01*
X122822438Y-63095866D01*
X122874819Y-63200628D01*
X122874819Y-63410152D01*
X122822438Y-63514914D01*
X122717676Y-63619676D01*
X122508152Y-63672057D01*
X122141485Y-63672057D01*
X121931961Y-63619676D01*
X121827200Y-63514914D01*
X121774819Y-63410152D01*
X121774819Y-62572057D02*
X122874819Y-62310152D01*
X122089104Y-62100628D01*
X122874819Y-61891104D01*
X121774819Y-61629200D01*
X122298628Y-61210152D02*
X122298628Y-60843485D01*
X122874819Y-60686342D02*
X122874819Y-61210152D01*
X121774819Y-61210152D01*
X121774819Y-60686342D01*
X122874819Y-59586342D02*
X122351009Y-59953009D01*
X122874819Y-60214914D02*
X121774819Y-60214914D01*
X121774819Y-59795866D01*
X121827200Y-59691104D01*
X121879580Y-59638723D01*
X121984342Y-59586342D01*
X122141485Y-59586342D01*
X122246247Y-59638723D01*
X122298628Y-59691104D01*
X122351009Y-59795866D01*
X122351009Y-60214914D01*
D10*
X95389733Y-87039504D02*
X95389733Y-87610933D01*
X95351638Y-87725219D01*
X95275447Y-87801409D01*
X95161161Y-87839504D01*
X95084971Y-87839504D01*
X96113542Y-87306171D02*
X96113542Y-87839504D01*
X95923066Y-87001409D02*
X95732590Y-87572838D01*
X96227828Y-87572838D01*
X92799333Y-69684380D02*
X92466000Y-69208190D01*
X92227904Y-69684380D02*
X92227904Y-68684380D01*
X92608857Y-68684380D01*
X92704095Y-68732000D01*
X92751714Y-68779619D01*
X92799333Y-68874857D01*
X92799333Y-69017714D01*
X92751714Y-69112952D01*
X92704095Y-69160571D01*
X92608857Y-69208190D01*
X92227904Y-69208190D01*
X93751714Y-69684380D02*
X93180285Y-69684380D01*
X93466000Y-69684380D02*
X93466000Y-68684380D01*
X93370761Y-68827238D01*
X93275523Y-68922476D01*
X93180285Y-68970095D01*
X121958133Y-51123904D02*
X121958133Y-51695333D01*
X121920038Y-51809619D01*
X121843847Y-51885809D01*
X121729561Y-51923904D01*
X121653371Y-51923904D01*
X122262895Y-51123904D02*
X122758133Y-51123904D01*
X122491466Y-51428666D01*
X122605752Y-51428666D01*
X122681942Y-51466761D01*
X122720038Y-51504857D01*
X122758133Y-51581047D01*
X122758133Y-51771523D01*
X122720038Y-51847714D01*
X122681942Y-51885809D01*
X122605752Y-51923904D01*
X122377180Y-51923904D01*
X122300990Y-51885809D01*
X122262895Y-51847714D01*
X92797333Y-72224380D02*
X92464000Y-71748190D01*
X92225904Y-72224380D02*
X92225904Y-71224380D01*
X92606857Y-71224380D01*
X92702095Y-71272000D01*
X92749714Y-71319619D01*
X92797333Y-71414857D01*
X92797333Y-71557714D01*
X92749714Y-71652952D01*
X92702095Y-71700571D01*
X92606857Y-71748190D01*
X92225904Y-71748190D01*
X93178285Y-71319619D02*
X93225904Y-71272000D01*
X93321142Y-71224380D01*
X93559238Y-71224380D01*
X93654476Y-71272000D01*
X93702095Y-71319619D01*
X93749714Y-71414857D01*
X93749714Y-71510095D01*
X93702095Y-71652952D01*
X93130666Y-72224380D01*
X93749714Y-72224380D01*
X109016876Y-78200304D02*
X109016876Y-78847923D01*
X109054971Y-78924114D01*
X109093066Y-78962209D01*
X109169257Y-79000304D01*
X109321638Y-79000304D01*
X109397828Y-78962209D01*
X109435923Y-78924114D01*
X109474019Y-78847923D01*
X109474019Y-78200304D01*
X110274019Y-79000304D02*
X109816876Y-79000304D01*
X110045447Y-79000304D02*
X110045447Y-78200304D01*
X109969257Y-78314590D01*
X109893066Y-78390780D01*
X109816876Y-78428876D01*
D12*
X115741466Y-68484704D02*
X115474800Y-68103752D01*
X115284323Y-68484704D02*
X115284323Y-67684704D01*
X115589085Y-67684704D01*
X115665276Y-67722800D01*
X115703371Y-67760895D01*
X115741466Y-67837085D01*
X115741466Y-67951371D01*
X115703371Y-68027561D01*
X115665276Y-68065657D01*
X115589085Y-68103752D01*
X115284323Y-68103752D01*
X116427180Y-67951371D02*
X116427180Y-68484704D01*
X116236704Y-67646609D02*
X116046228Y-68218038D01*
X116541466Y-68218038D01*
D10*
X115741466Y-63074514D02*
X115703371Y-63112609D01*
X115589085Y-63150704D01*
X115512895Y-63150704D01*
X115398609Y-63112609D01*
X115322419Y-63036419D01*
X115284323Y-62960228D01*
X115246228Y-62807847D01*
X115246228Y-62693561D01*
X115284323Y-62541180D01*
X115322419Y-62464990D01*
X115398609Y-62388800D01*
X115512895Y-62350704D01*
X115589085Y-62350704D01*
X115703371Y-62388800D01*
X115741466Y-62426895D01*
X116503371Y-63150704D02*
X116046228Y-63150704D01*
X116274800Y-63150704D02*
X116274800Y-62350704D01*
X116198609Y-62464990D01*
X116122419Y-62541180D01*
X116046228Y-62579276D01*
D13*
X117753641Y-61594000D02*
X117446359Y-61594000D01*
X117753641Y-60834000D02*
X117446359Y-60834000D01*
X94682000Y-65415000D02*
X94682000Y-64085000D01*
X94682000Y-66685000D02*
X97342000Y-66685000D01*
X97342000Y-66685000D02*
X97342000Y-74365000D01*
X94682000Y-64085000D02*
X96012000Y-64085000D01*
X94682000Y-74365000D02*
X97342000Y-74365000D01*
X94682000Y-66685000D02*
X94682000Y-74365000D01*
X117466164Y-63648000D02*
X117681836Y-63648000D01*
X117466164Y-64368000D02*
X117681836Y-64368000D01*
X94682000Y-79248000D02*
X94682000Y-76648000D01*
X97342000Y-79248000D02*
X94682000Y-79248000D01*
X97342000Y-81848000D02*
X96012000Y-81848000D01*
X97342000Y-76648000D02*
X94682000Y-76648000D01*
X97342000Y-80518000D02*
X97342000Y-81848000D01*
X97342000Y-79248000D02*
X97342000Y-76648000D01*
X97342000Y-59182000D02*
X94682000Y-59182000D01*
X97342000Y-56582000D02*
X94682000Y-56582000D01*
X94682000Y-59182000D02*
X94682000Y-56582000D01*
X97342000Y-60452000D02*
X97342000Y-61782000D01*
X97342000Y-59182000D02*
X97342000Y-56582000D01*
X97342000Y-61782000D02*
X96012000Y-61782000D01*
X121385000Y-63689500D02*
X121385000Y-61404500D01*
X119915000Y-61404500D02*
X119915000Y-63689500D01*
X119915000Y-63689500D02*
X121385000Y-63689500D01*
X113048000Y-91632500D02*
X113048000Y-91632500D01*
X108948000Y-92942500D02*
X108948000Y-91632500D01*
X123798000Y-91632500D02*
X113048000Y-91632500D01*
X108948000Y-91632500D02*
X98198000Y-91632500D01*
X113048000Y-91632500D02*
X113048000Y-92942500D01*
X96898000Y-83822500D02*
X125098000Y-83822500D01*
X98198000Y-91632500D02*
X98198000Y-85132500D01*
X102608000Y-94332500D02*
X102108000Y-93332500D01*
X98198000Y-85132500D02*
X123798000Y-85132500D01*
X101608000Y-94332500D02*
X102608000Y-94332500D01*
X125098000Y-83822500D02*
X125098000Y-92942500D01*
X96898000Y-92942500D02*
X96898000Y-83822500D01*
X125098000Y-92942500D02*
X96898000Y-92942500D01*
X102108000Y-93332500D02*
X101608000Y-94332500D01*
X123798000Y-85132500D02*
X123798000Y-91632500D01*
X93119641Y-67682000D02*
X92812359Y-67682000D01*
X93119641Y-68442000D02*
X92812359Y-68442000D01*
X118349000Y-51502000D02*
X118349000Y-54162000D01*
X120949000Y-51502000D02*
X120949000Y-52832000D01*
X118349000Y-51502000D02*
X97969000Y-51502000D01*
X118349000Y-54162000D02*
X97969000Y-54162000D01*
X119619000Y-51502000D02*
X120949000Y-51502000D01*
X97969000Y-51502000D02*
X97969000Y-54162000D01*
X93117641Y-70222000D02*
X92810359Y-70222000D01*
X93117641Y-70982000D02*
X92810359Y-70982000D01*
X109220000Y-77640000D02*
X105360000Y-77640000D01*
X105360000Y-77640000D02*
X105360000Y-77395000D01*
X105360000Y-59765000D02*
X103545000Y-59765000D01*
X109220000Y-77640000D02*
X113080000Y-77640000D01*
X113080000Y-59520000D02*
X113080000Y-59765000D01*
X109220000Y-59520000D02*
X113080000Y-59520000D01*
X109220000Y-59520000D02*
X105360000Y-59520000D01*
X105360000Y-59520000D02*
X105360000Y-59765000D01*
X113080000Y-77640000D02*
X113080000Y-77395000D01*
X117446359Y-67692000D02*
X117753641Y-67692000D01*
X117446359Y-68452000D02*
X117753641Y-68452000D01*
X117410164Y-63094000D02*
X117625836Y-63094000D01*
X117410164Y-62374000D02*
X117625836Y-62374000D01*
M02*
