%TF.GenerationSoftware,KiCad,Pcbnew,(6.0.0)*%
%TF.CreationDate,2022-01-19T10:56:36+01:00*%
%TF.ProjectId,CH423_ev_routed,43483432-335f-4657-965f-726f75746564,rev?*%
%TF.SameCoordinates,Original*%
%TF.FileFunction,Soldermask,Top*%
%TF.FilePolarity,Negative*%
%FSLAX46Y46*%
G04 Gerber Fmt 4.6, Leading zero omitted, Abs format (unit mm)*
G04 Created by KiCad (PCBNEW (6.0.0)) date 2022-01-19 10:56:36*
%MOMM*%
%LPD*%
G01*
G04 APERTURE LIST*
G04 Aperture macros list*
%AMRoundRect*
0 Rectangle with rounded corners*
0 $1 Rounding radius*
0 $2 $3 $4 $5 $6 $7 $8 $9 X,Y pos of 4 corners*
0 Add a 4 corners polygon primitive as box body*
4,1,4,$2,$3,$4,$5,$6,$7,$8,$9,$2,$3,0*
0 Add four circle primitives for the rounded corners*
1,1,$1+$1,$2,$3*
1,1,$1+$1,$4,$5*
1,1,$1+$1,$6,$7*
1,1,$1+$1,$8,$9*
0 Add four rect primitives between the rounded corners*
20,1,$1+$1,$2,$3,$4,$5,0*
20,1,$1+$1,$4,$5,$6,$7,0*
20,1,$1+$1,$6,$7,$8,$9,0*
20,1,$1+$1,$8,$9,$2,$3,0*%
G04 Aperture macros list end*
%ADD10RoundRect,0.135000X0.135000X0.185000X-0.135000X0.185000X-0.135000X-0.185000X0.135000X-0.185000X0*%
%ADD11R,1.700000X1.700000*%
%ADD12O,1.700000X1.700000*%
%ADD13C,2.500000*%
%ADD14RoundRect,0.140000X-0.140000X-0.170000X0.140000X-0.170000X0.140000X0.170000X-0.140000X0.170000X0*%
%ADD15RoundRect,0.218750X0.256250X-0.218750X0.256250X0.218750X-0.256250X0.218750X-0.256250X-0.218750X0*%
%ADD16RoundRect,0.250000X0.600000X-0.600000X0.600000X0.600000X-0.600000X0.600000X-0.600000X-0.600000X0*%
%ADD17C,1.700000*%
%ADD18RoundRect,0.150000X-0.875000X-0.150000X0.875000X-0.150000X0.875000X0.150000X-0.875000X0.150000X0*%
%ADD19RoundRect,0.135000X-0.135000X-0.185000X0.135000X-0.185000X0.135000X0.185000X-0.135000X0.185000X0*%
G04 APERTURE END LIST*
D10*
X118110000Y-61214000D03*
X117090000Y-61214000D03*
D11*
X96012000Y-65415000D03*
D12*
X96012000Y-67955000D03*
X96012000Y-70495000D03*
X96012000Y-73035000D03*
D13*
X93726000Y-90932000D03*
X93726000Y-52070000D03*
D14*
X117094000Y-64008000D03*
X118054000Y-64008000D03*
D11*
X96012000Y-80518000D03*
D12*
X96012000Y-77978000D03*
D11*
X96012000Y-60452000D03*
D12*
X96012000Y-57912000D03*
D15*
X120650000Y-62992000D03*
X120650000Y-61417000D03*
D16*
X102108000Y-89652500D03*
D17*
X102108000Y-87112500D03*
X104648000Y-89652500D03*
X104648000Y-87112500D03*
X107188000Y-89652500D03*
X107188000Y-87112500D03*
X109728000Y-89652500D03*
X109728000Y-87112500D03*
X112268000Y-89652500D03*
X112268000Y-87112500D03*
X114808000Y-89652500D03*
X114808000Y-87112500D03*
X117348000Y-89652500D03*
X117348000Y-87112500D03*
X119888000Y-89652500D03*
X119888000Y-87112500D03*
D13*
X122936000Y-68072000D03*
D10*
X93476000Y-68062000D03*
X92456000Y-68062000D03*
D11*
X119619000Y-52832000D03*
D12*
X117079000Y-52832000D03*
X114539000Y-52832000D03*
X111999000Y-52832000D03*
X109459000Y-52832000D03*
X106919000Y-52832000D03*
X104379000Y-52832000D03*
X101839000Y-52832000D03*
X99299000Y-52832000D03*
D10*
X93474000Y-70602000D03*
X92454000Y-70602000D03*
D18*
X104570000Y-60325000D03*
X104570000Y-61595000D03*
X104570000Y-62865000D03*
X104570000Y-64135000D03*
X104570000Y-65405000D03*
X104570000Y-66675000D03*
X104570000Y-67945000D03*
X104570000Y-69215000D03*
X104570000Y-70485000D03*
X104570000Y-71755000D03*
X104570000Y-73025000D03*
X104570000Y-74295000D03*
X104570000Y-75565000D03*
X104570000Y-76835000D03*
X113870000Y-76835000D03*
X113870000Y-75565000D03*
X113870000Y-74295000D03*
X113870000Y-73025000D03*
X113870000Y-71755000D03*
X113870000Y-70485000D03*
X113870000Y-69215000D03*
X113870000Y-67945000D03*
X113870000Y-66675000D03*
X113870000Y-65405000D03*
X113870000Y-64135000D03*
X113870000Y-62865000D03*
X113870000Y-61595000D03*
X113870000Y-60325000D03*
D19*
X117090000Y-68072000D03*
X118110000Y-68072000D03*
D14*
X117038000Y-62734000D03*
X117998000Y-62734000D03*
M02*
